<?xml version="1.0" encoding="utf-8"?>
<!-- Generator: Adobe Illustrator 22.0.1, SVG Export Plug-In . SVG Version: 6.00 Build 0)  -->
<svg version="1.1" id="Layer_1" xmlns="http://www.w3.org/2000/svg" xmlns:xlink="http://www.w3.org/1999/xlink" x="0px" y="0px"
	 viewBox="0 0 48.1 26.4" style="enable-background:new 0 0 48.1 26.4;" xml:space="preserve">
<g>
	<g>
		<g>
			<rect x="0.5" y="0.5" style="fill:none;stroke:#5A5A5A;stroke-miterlimit:10;" width="47.1" height="25.4"/>
		</g>
		<g>
			<path style="fill:#5A5A5A;" d="M10.5,8.1H7C6.9,8.1,6.9,8.1,6.9,8V4.4c0-0.1,0.1-0.1,0.1-0.1h3.6c0.1,0,0.1,0.1,0.1,0.1V8
				C10.7,8.1,10.6,8.1,10.5,8.1z"/>
		</g>
		<g>
			<path style="fill:#5A5A5A;" d="M10.5,14.5H7c-0.1,0-0.1-0.1-0.1-0.1v-3.6c0-0.1,0.1-0.1,0.1-0.1h3.6c0.1,0,0.1,0.1,0.1,0.1v3.6
				C10.7,14.4,10.6,14.5,10.5,14.5z"/>
		</g>
		<g>
			<path style="fill:#5A5A5A;" d="M18.2,8.1h-3.6c-0.1,0-0.1-0.1-0.1-0.1V4.4c0-0.1,0.1-0.1,0.1-0.1h3.6c0.1,0,0.1,0.1,0.1,0.1V8
				C18.3,8.1,18.2,8.1,18.2,8.1z"/>
		</g>
		<g>
			<path style="fill:#5A5A5A;" d="M18.2,14.5h-3.6c-0.1,0-0.1-0.1-0.1-0.1v-3.6c0-0.1,0.1-0.1,0.1-0.1h3.6c0.1,0,0.1,0.1,0.1,0.1
				v3.6C18.3,14.4,18.2,14.5,18.2,14.5z"/>
		</g>
		<g>
			<path style="fill:#5A5A5A;" d="M25.8,8.1h-3.6c-0.1,0-0.1-0.1-0.1-0.1V4.4c0-0.1,0.1-0.1,0.1-0.1h3.6c0.1,0,0.1,0.1,0.1,0.1V8
				C25.9,8.1,25.9,8.1,25.8,8.1z"/>
		</g>
		<g>
			<path style="fill:#5A5A5A;" d="M25.8,14.5h-3.6c-0.1,0-0.1-0.1-0.1-0.1v-3.6c0-0.1,0.1-0.1,0.1-0.1h3.6c0.1,0,0.1,0.1,0.1,0.1
				v3.6C25.9,14.4,25.9,14.5,25.8,14.5z"/>
		</g>
		<g>
			<path style="fill:#5A5A5A;" d="M33.4,8.1h-3.6c-0.1,0-0.1-0.1-0.1-0.1V4.4c0-0.1,0.1-0.1,0.1-0.1h3.6c0.1,0,0.1,0.1,0.1,0.1V8
				C33.6,8.1,33.5,8.1,33.4,8.1z"/>
		</g>
		<g>
			<path style="fill:#5A5A5A;" d="M33.4,14.5h-3.6c-0.1,0-0.1-0.1-0.1-0.1v-3.6c0-0.1,0.1-0.1,0.1-0.1h3.6c0.1,0,0.1,0.1,0.1,0.1
				v3.6C33.6,14.4,33.5,14.5,33.4,14.5z"/>
		</g>
		<g>
			<path style="fill:#5A5A5A;" d="M41.1,8.1h-3.6c-0.1,0-0.1-0.1-0.1-0.1V4.4c0-0.1,0.1-0.1,0.1-0.1h3.6c0.1,0,0.1,0.1,0.1,0.1V8
				C41.2,8.1,41.1,8.1,41.1,8.1z"/>
		</g>
		<g>
			<path style="fill:#5A5A5A;" d="M41.1,14.5h-3.6c-0.1,0-0.1-0.1-0.1-0.1v-3.6c0-0.1,0.1-0.1,0.1-0.1h3.6c0.1,0,0.1,0.1,0.1,0.1
				v3.6C41.2,14.4,41.1,14.5,41.1,14.5z"/>
		</g>
		<g>
			<path style="fill:#5A5A5A;" d="M35.3,22.1H12.7c-0.1,0-0.1-0.1-0.1-0.1v-3.5c0-0.1,0.1-0.1,0.1-0.1h22.6c0.1,0,0.1,0.1,0.1,0.1
				V22C35.5,22.1,35.4,22.1,35.3,22.1z"/>
		</g>
	</g>
</g>
</svg>
