<?xml version="1.0" standalone="no"?>
<!DOCTYPE svg PUBLIC "-//W3C//DTD SVG 1.1//EN" "http://www.w3.org/Graphics/SVG/1.1/DTD/svg11.dtd" >
<svg xmlns="http://www.w3.org/2000/svg" xmlns:xlink="http://www.w3.org/1999/xlink" version="1.1">
<metadata>
Created by FontForge 20161003 at Sun Oct 22 14:44:24 2017
 By www-data
Copyright (c) 2015 by Masterfont LTD. Studio Rosenberg. All rights reserved.
</metadata>
<defs>
<font id="NarkisBlockMFOCond-Medium" horiz-adv-x="390" >
  <font-face 
    font-family="NarkisBlockMFOCond"
    font-weight="400"
    font-stretch="normal"
    units-per-em="1000"
    panose-1="1 0 5 3 0 0 0 2 0 3"
    ascent="800"
    descent="-200"
    x-height="523"
    cap-height="728"
    bbox="-112 -372 1061 949"
    underline-thickness="50"
    underline-position="-200"
    unicode-range="U+0020-FFFC"
  />
<missing-glyph horiz-adv-x="221" 
 />
    <glyph glyph-name=".notdef" horiz-adv-x="221" 
 />
    <glyph glyph-name="NULL" horiz-adv-x="0" 
 />
    <glyph glyph-name="nonmarkingreturn" horiz-adv-x="221" 
 />
    <glyph glyph-name="space" unicode=" " horiz-adv-x="250" 
 />
    <glyph glyph-name="exclam" unicode="!" horiz-adv-x="268" 
d="M174 214h-80l-22 536h124zM84 0v96h92v-96h-92z" />
    <glyph glyph-name="quotedbl" unicode="&#x22;" horiz-adv-x="347" 
d="M239 380h-47l42 245h79zM96 380h-47l42 245h79z" />
    <glyph glyph-name="numbersign" unicode="#" horiz-adv-x="460" 
d="M391 320h-84l-19 -116h84l-7 -39h-85l-29 -165h-37l29 165h-90l-29 -165h-37l29 165h-86l7 39h86l19 116h-86l8 41h85l27 164h38l-27 -164h90l27 164h37l-27 -164h85zM179 320l-19 -116h90l19 116h-90z" />
    <glyph glyph-name="dollar" unicode="$" horiz-adv-x="470" 
d="M420 188q0 -41 -10.5 -77t-31.5 -63.5t-53 -43.5t-75 -17v-72h-36v72q-39 0 -79 6t-75 26v98q35 -22 74 -33t80 -12v249q-29 16 -58 33.5t-53 39.5t-39 50.5t-15 66.5q0 36 11 70.5t32.5 62.5t52 45.5t69.5 19.5v74h36v-74q36 0 72 -7t69 -22v-93q-32 20 -67.5 27.5
t-73.5 9.5v-217q34 -16 65 -37t54.5 -47.5t37 -60t13.5 -74.5zM214 622q-34 -10 -49.5 -36t-15.5 -61q0 -33 19.5 -56t45.5 -39v192zM321 188q0 24 -5 39.5t-14 27t-22.5 21t-29.5 21.5v-225q6 0 12.5 2.5t11.5 5.5q27 17 37 47.5t10 60.5z" />
    <glyph glyph-name="percent" unicode="%" horiz-adv-x="585" 
d="M463 626l-290 -637h-50l290 637h50zM234 437q0 18 -1 39t-4.5 41.5t-10 40t-18 34t-28.5 23.5t-41 9t-41 -8.5t-29 -23.5t-18.5 -34t-10 -40t-4.5 -42t-1 -39t1 -39t4.5 -41.5t10 -40t18 -34t28.5 -23.5t41 -9q25 0 42 8.5t28.5 23.5t18.5 34t10 40t4 41.5t1 39.5z
M180 437v-21.5t-1.5 -29t-4 -31.5t-8 -29t-14 -21.5t-20.5 -8.5q-13 0 -22 8.5t-14.5 21t-8.5 28.5t-4 31.5t-1.5 29.5t-0.5 22t0.5 21.5t1.5 29t4 31.5t8.5 28.5t14 21t21.5 8.5t21.5 -8.5t14 -21t8 -28.5t4 -31.5t1.5 -29v-21.5zM555 173q0 18 -1 39t-4.5 41.5t-10 40
t-18 34t-28.5 23.5t-41 9t-41 -8.5t-29 -23.5t-18.5 -34t-10 -40t-4.5 -42t-1 -39t1 -39t4.5 -41.5t10 -40t18 -34t28.5 -23.5t41 -9q25 0 42 8.5t28.5 23.5t18.5 34t10 40t4 41.5t1 39.5zM501 173v-21.5t-1.5 -29t-4 -31.5t-8 -29t-14 -21.5t-20.5 -8.5q-13 0 -22 8.5
t-14.5 21t-8.5 28.5t-4 31.5t-1.5 29.5t-0.5 22t0.5 21.5t1.5 29t4 31.5t8.5 28.5t14 21t21.5 8.5t21.5 -8.5t14 -21t8 -28.5t4 -31.5t1.5 -29v-21.5z" />
    <glyph glyph-name="ampersand" unicode="&#x26;" horiz-adv-x="592" 
d="M536 313q-3 -35 -7.5 -62t-11 -48.5t-16 -40t-23.5 -36.5l113 -126h-106l-51 66q-15 -16 -32 -31t-39 -27t-51.5 -19t-68.5 -7q-52 0 -90.5 16t-63.5 41.5t-37 57t-12 63.5q0 33 12.5 62t35 54t52 46t64.5 37l-40 50q-20 26 -31 51.5t-14 54.5q0 31 12 58t32.5 46.5
t48 30.5t58.5 11q42 0 71.5 -11t47.5 -30.5t26.5 -46.5t8.5 -58q0 -24 -5.5 -44t-19.5 -40t-37.5 -40.5t-58.5 -45.5l131 -156q11 24 18.5 58t7.5 66h76zM270 394q30 22 46.5 41.5t24 36.5t9 30.5t1.5 23.5q0 16 -3 29.5t-12 23.5t-25 15.5t-42 5.5q-29 0 -52.5 -21
t-23.5 -53q0 -22 9 -45t33 -49zM241 313q-20 -13 -40.5 -29t-37 -34.5t-27 -39t-10.5 -42.5q0 -25 10 -46t26 -36.5t36.5 -24t41.5 -8.5q30 0 50.5 4.5t37 13.5t30.5 23t31 34z" />
    <glyph glyph-name="quotesingle" unicode="'" horiz-adv-x="204" 
d="M96 380h-47l42 245h79z" />
    <glyph glyph-name="parenleft" unicode="(" horiz-adv-x="251" 
d="M151 -115q-23 36 -41.5 83.5t-32 99t-20.5 102.5t-7 93t7 92.5t20.5 102t32 99.5t41.5 83h64q-41 -86 -60.5 -184t-19.5 -193t19.5 -193.5t60.5 -184.5h-64z" />
    <glyph glyph-name="parenright" unicode=")" horiz-adv-x="250" 
d="M200 263q0 -42 -7 -93t-20 -102.5t-32 -99t-42 -83.5h-64q42 86 61 184.5t19 193.5t-19 193t-61 184h64q23 -35 41.5 -83t32 -99.5t20.5 -102t7 -92.5z" />
    <glyph glyph-name="asterisk" unicode="*" horiz-adv-x="387" 
d="M313 343l-102 70l9 -124h-58l8 124l-102 -70l-30 51l113 54l-113 55l30 51l103 -72l-9 125h58l-9 -125l102 72l30 -51l-112 -55l112 -54z" />
    <glyph glyph-name="plus" unicode="+" horiz-adv-x="391" 
d="M227 214v-170h-61v170h-119v61h119v170h61v-170h119v-61h-119z" />
    <glyph glyph-name="comma" unicode="," horiz-adv-x="180" 
d="M57 -152h-47l42 245h93z" />
    <glyph glyph-name="hyphen" unicode="-" 
d="M47 214v61h298v-61h-298z" />
    <glyph glyph-name="period" unicode="." horiz-adv-x="174" 
d="M29 0v96h92v-96h-92z" />
    <glyph glyph-name="slash" unicode="/" horiz-adv-x="268" 
d="M93 -87h-73l156 694h72z" />
    <glyph glyph-name="zero" unicode="0" horiz-adv-x="526" 
d="M470 354q0 -37 -1.5 -78.5t-8 -83t-20 -80t-36.5 -68t-57.5 -47t-83.5 -17.5q-48 0 -82 18t-57 47.5t-36.5 68t-20 80t-8.5 83t-2 77.5t2 78t8.5 84t20 80.5t37 68t57.5 47t83 17.5q48 0 82 -18t57 -47.5t36 -68t19.5 -80t8.5 -83.5t2 -78zM362 354v43t-2.5 58t-8 63
t-16 57.5t-28 42t-42.5 16.5q-26 0 -43.5 -16.5t-28.5 -42t-16.5 -57.5t-8 -63t-3 -58t-0.5 -43t0.5 -43.5t3 -58.5t8 -63t17 -57.5t29 -42t43.5 -16.5q25 0 42 16.5t27.5 42.5t16 58t8 63.5t2.5 58v42.5z" />
    <glyph glyph-name="one" unicode="1" horiz-adv-x="526" 
d="M233 0v595l-120 -112v119l127 107h102v-709h-109z" />
    <glyph glyph-name="two" unicode="2" horiz-adv-x="526" 
d="M67 0v123q49 57 98 113.5t97 114.5q26 32 46.5 71.5t20.5 81.5q0 30 -6 54t-19.5 41.5t-35.5 27t-55 9.5q-35 0 -73.5 -18t-62.5 -44v116q27 19 65.5 29t70.5 10q118 0 175.5 -52t57.5 -173q0 -27 -9.5 -56t-24.5 -56.5t-33 -52t-36 -43.5l-184 -200h295v-96h-387z" />
    <glyph glyph-name="three" unicode="3" horiz-adv-x="526" 
d="M454 201q0 -59 -18.5 -101t-51.5 -68.5t-79 -39t-100 -12.5q-17 0 -37 2.5t-39.5 7.5t-38 12t-33.5 17v115q26 -29 68 -45.5t80 -16.5q60 0 97.5 35t37.5 95q0 30 -10.5 55t-29 43t-44 27.5t-55.5 9.5q-11 0 -22 -0.5t-22 -1.5v86l32 3q22 2 45.5 11t42.5 24t31.5 35
t12.5 45q0 26 -9 44.5t-25 30.5t-37 17.5t-46 5.5q-35 0 -71.5 -16.5t-59.5 -44.5v114q13 10 31.5 17.5t38 12t39 7t35.5 2.5q47 0 87.5 -10t70 -32.5t46 -58.5t16.5 -87q0 -29 -11.5 -54t-30.5 -45t-44 -34.5t-51 -21.5q33 -6 61.5 -23t49 -41.5t32 -55.5t11.5 -65z" />
    <glyph glyph-name="four" unicode="4" horiz-adv-x="526" 
d="M412 169v-169h-106v169h-264v98l232 442h138v-450h66v-90h-66zM310 612q-16 -45 -39 -87.5t-44 -81.5l-100 -185h178v270q0 21 2 42.5t3 41.5z" />
    <glyph glyph-name="five" unicode="5" horiz-adv-x="526" 
d="M470 212q0 -50 -17 -92t-47 -73.5t-72 -49t-92 -17.5q-18 0 -39 2.5t-42 7t-41 12t-35 18.5v112q10 -16 27.5 -27.5t38 -19t42 -11.5t39.5 -4q30 0 54 12t41 32t26 46t9 55q0 26 -10 50.5t-27.5 43t-40.5 30t-50 11.5q-31 0 -70.5 -10t-64.5 -30v399h351v-96h-246v-185
q15 3 31.5 6t31.5 3q49 0 87 -17.5t63.5 -48.5t39 -72t13.5 -87z" />
    <glyph glyph-name="six" unicode="6" horiz-adv-x="526" 
d="M475 228q0 -45 -12 -89.5t-36.5 -80t-62.5 -57t-89 -21.5q-49 0 -84 16t-59 42.5t-37.5 62.5t-20.5 75.5t-9 81t-2 79.5q0 59 7.5 127.5t32 127.5t70.5 98t123 39q12 0 32 -1.5t40.5 -6t38 -12.5t25.5 -21v-103q-8 15 -22.5 25t-32 17t-35.5 10t-33 3q-48 0 -74.5 -24.5
t-40 -60.5t-17.5 -77.5t-7 -76.5q9 13 21 25.5t27 22.5t31 16t32 6q54 0 91 -20t60 -54t33 -77.5t10 -91.5zM367 230q0 25 -3.5 51t-13.5 47.5t-29.5 35.5t-50.5 14q-28 0 -46 -14.5t-28.5 -36.5t-14.5 -47.5t-4 -47.5q0 -21 4.5 -48.5t15 -52t28.5 -41.5t46 -17
q31 0 50 15.5t29 38.5t13.5 51t3.5 52z" />
    <glyph glyph-name="seven" unicode="7" horiz-adv-x="526" 
d="M452 589q-21 -54 -45 -106.5t-47 -107.5q-35 -91 -61.5 -184t-42.5 -191h-113q14 79 38 157t54 153.5t64 150t68 146.5h-305v102h390v-120v0z" />
    <glyph glyph-name="eight" unicode="8" horiz-adv-x="526" 
d="M485 201q0 -109 -57 -165t-165 -56t-164.5 56t-56.5 165q0 60 33 106.5t90 66.5q-55 20 -81 61t-26 97q0 99 54.5 148t150.5 49t150.5 -49t54.5 -147q0 -57 -25.5 -98t-80.5 -61q56 -20 89.5 -66.5t33.5 -106.5zM359 528q0 23 -5.5 44t-17 37t-29.5 25.5t-44 9.5
t-44 -9.5t-29.5 -25.5t-17 -37t-5.5 -44t5.5 -43.5t17.5 -36.5t30 -25t43 -9t43 9t30 25t17.5 36.5t5.5 43.5zM377 198q0 58 -26 96.5t-88 38.5q-31 0 -52.5 -10t-35 -28t-19.5 -42.5t-6 -52.5q0 -26 7 -50.5t20.5 -43.5t34.5 -30t50 -11t50.5 11t36 30t21.5 42.5t7 49.5z
" />
    <glyph glyph-name="nine" unicode="9" horiz-adv-x="526" 
d="M464 371q0 -39 -3 -83t-11.5 -87.5t-24 -83.5t-41.5 -70.5t-63 -48.5t-89 -18q-15 0 -36 2t-42.5 6.5t-40.5 12t-31 19.5v110q23 -30 62 -45.5t75 -15.5q48 0 75 26t40.5 64t17 81.5t6.5 78.5q-8 -14 -20.5 -26.5t-27 -22.5t-31 -16t-32.5 -6q-54 0 -91 19.5t-60 52
t-33 75.5t-10 91q0 47 11.5 91t36 77.5t62 54t89.5 20.5q75 0 117.5 -34.5t63.5 -87t26 -115.5t5 -121zM351 482q0 22 -4.5 48.5t-15 50t-29 39.5t-46.5 16q-31 0 -49.5 -14.5t-28.5 -36.5t-13.5 -48.5t-3.5 -51.5q0 -26 3.5 -51.5t14 -45.5t29.5 -33t50 -13q28 0 46 13.5
t28.5 34.5t14.5 45.5t4 46.5z" />
    <glyph glyph-name="colon" unicode=":" horiz-adv-x="208" 
d="M39 308v90h80v-90h-80zM39 0v90h80v-90h-80z" />
    <glyph glyph-name="semicolon" unicode=";" horiz-adv-x="208" 
d="M50 308v90h80v-90h-80zM50 -147h-40l42 240h86z" />
    <glyph glyph-name="less" unicode="&#x3c;" 
d="M45 218v53l299 193v-71l-230 -149l230 -148v-71z" />
    <glyph glyph-name="equal" unicode="=" horiz-adv-x="391" 
d="M47 294v60h299v-60h-299zM47 175v60h299v-60h-299z" />
    <glyph glyph-name="greater" unicode="&#x3e;" 
d="M46 24v71l230 148l-230 149v71l299 -193v-53z" />
    <glyph glyph-name="question" unicode="?" horiz-adv-x="383" 
d="M333 557q0 -32 -10.5 -64t-27.5 -62.5t-39 -57t-46 -45.5v-116h-96v138q24 17 45.5 40.5t38 50.5t26.5 56.5t10 59.5q0 22 -3.5 41t-12.5 33.5t-25.5 22.5t-42.5 8q-25 0 -53 -12.5t-47 -29.5v94q18 17 47 26.5t53 9.5q53 0 88 -11.5t56 -35t30 -60t9 -86.5zM114 0v96h92
v-96h-92z" />
    <glyph glyph-name="at" unicode="@" horiz-adv-x="896" 
d="M646 500l-77 -267q-8 -26 -3.5 -39.5t18.5 -13.5q12 0 33.5 6.5t42.5 27.5t36.5 59.5t15.5 102.5q0 52 -19 94t-51 72t-75.5 46.5t-91.5 16.5q-63 0 -116.5 -21.5t-92 -61t-60.5 -94t-22 -120.5q0 -63 25 -113t65 -84.5t90.5 -53t102.5 -18.5q76 0 130.5 26t88.5 76h59
q-17 -43 -48 -73t-70.5 -49t-86 -28t-93.5 -9q-62 0 -120 23.5t-103 66.5t-72.5 102.5t-27.5 130.5q0 87 27.5 153.5t75.5 111.5t112 68t137 23q59 0 113 -19.5t94.5 -55t64.5 -86.5t24 -114q0 -65 -18 -114t-48 -82t-69 -50t-82 -17q-25 0 -37.5 11.5t-20.5 43.5
q-27 -29 -49 -42t-57 -13q-32 0 -57 12.5t-42 32.5t-26.5 45.5t-9.5 51.5q0 43 15 87.5t42.5 80.5t65.5 58.5t84 22.5q24 0 42 -9.5t30.5 -21.5t20 -23.5t10.5 -16.5l19 57h61zM536 334q7 26 4 47t-13.5 36t-26.5 23t-35 8q-27 0 -51 -16.5t-42.5 -42t-29.5 -56.5t-11 -60
q0 -34 18 -59.5t56 -25.5t67 21t45 70z" />
    <glyph glyph-name="A" unicode="A" horiz-adv-x="476" 
d="M318 225h-164l-53 -225h-106l191 728h105l190 -728h-106zM172 298h133l-67 323z" />
    <glyph glyph-name="B" unicode="B" horiz-adv-x="529" 
d="M79 0v728h223q27 0 53.5 -13t48 -37t35 -57.5t13.5 -73.5q0 -47 -11.5 -87t-39.5 -68h-1q40 -24 59.5 -70.5t19.5 -106.5q0 -44 -13.5 -83t-36 -68t-51 -46.5t-58.5 -17.5h-241zM176 653v-233h98q19 0 34 10.5t25 27t15 36.5t5 40q0 21 -5.5 42.5t-17 38.5t-28 27.5
t-37.5 10.5h-89zM176 350v-276h100q24 0 42.5 13.5t31 34.5t19.5 46.5t7 49.5q0 27 -6.5 51t-18 42t-27 28.5t-33.5 10.5h-115z" />
    <glyph glyph-name="C" unicode="C" horiz-adv-x="539" 
d="M299 -21q-129 0 -198.5 97t-69.5 286q0 76 13.5 145.5t44 123t80 85.5t121.5 32q58 0 104.5 -19.5t94.5 -65.5v-111q-24 23 -47.5 44t-47 36.5t-48 25t-51.5 9.5q-43 0 -74 -23t-50.5 -63t-28.5 -93t-9 -113q0 -61 8 -117t27 -98.5t50 -67.5t78 -25q54 0 99.5 32t93.5 84
v-113q-42 -51 -88.5 -71t-101.5 -20z" />
    <glyph glyph-name="D" unicode="D" horiz-adv-x="575" 
d="M79 0v728h220q55 0 97 -29.5t70 -79t42 -115.5t14 -138q0 -71 -13 -137t-40 -117t-68 -81.5t-97 -30.5h-225zM176 654v-580h108q39 0 64.5 26t41.5 68t22.5 93.5t6.5 102.5q0 52 -6 104t-21 93.5t-40.5 67t-65.5 25.5h-110z" />
    <glyph glyph-name="E" unicode="E" horiz-adv-x="511" 
d="M79 728h372v-75h-275v-239h259v-75h-259v-265h287v-74h-384v728z" />
    <glyph glyph-name="F" unicode="F" horiz-adv-x="462" 
d="M176 414h233v-75h-233v-339h-97v728h365v-75h-268v-239z" />
    <glyph glyph-name="G" unicode="G" horiz-adv-x="535" 
d="M294 -20q-132 0 -197.5 101.5t-65.5 285.5q0 89 16 159.5t48.5 119.5t82 75t116.5 26q54 0 103.5 -22t92.5 -62v-86q-32 25 -57 42.5t-48 28t-47 15.5t-54 5q-40 0 -69 -26.5t-47.5 -69.5t-27.5 -96t-9 -105q0 -60 8.5 -115t27 -96.5t49 -66.5t75.5 -25q55 0 105 28v191
h-133v73h227v-305q-23 -15 -44 -28.5t-44 -24t-49 -16.5t-59 -6z" />
    <glyph glyph-name="H" unicode="H" horiz-adv-x="577" 
d="M401 351h-225v-351h-97v728h97v-302h225v302h97v-728h-97v351z" />
    <glyph glyph-name="I" unicode="I" horiz-adv-x="272" 
d="M87 728h97v-728h-97v728z" />
    <glyph glyph-name="J" unicode="J" horiz-adv-x="403" 
d="M166 -20q-29 0 -57 11.5t-50 34.5t-35.5 56.5t-13.5 78.5v99h97v-114q0 -39 17 -60t42 -21t43 22t18 62v579h97v-560q0 -44 -14 -79t-36.5 -59t-50.5 -37t-57 -13z" />
    <glyph glyph-name="K" unicode="K" horiz-adv-x="508" 
d="M394 728h115l-204 -294l206 -434h-109l-157 354l-70 -91h1v-263h-97v728h97v-305z" />
    <glyph glyph-name="L" unicode="L" horiz-adv-x="429" 
d="M79 728h97v-654h246v-74h-343v728z" />
    <glyph glyph-name="M" unicode="M" horiz-adv-x="654" 
d="M453 728h122v-728h-97l10 513l-119 -513h-83l-120 512l10 -512h-97v728h131l117 -545z" />
    <glyph glyph-name="N" unicode="N" horiz-adv-x="576" 
d="M401 728h96v-728h-106l-225 545l10 -545h-97v728h108l224 -544z" />
    <glyph glyph-name="O" unicode="O" horiz-adv-x="561" 
d="M280 -20q-61 0 -107.5 27.5t-78 78.5t-47.5 122.5t-16 159.5q0 87 16.5 157.5t48.5 120t78.5 76t105.5 26.5q60 0 106.5 -26.5t78.5 -76t48.5 -120t16.5 -157.5q0 -88 -16.5 -159.5t-48.5 -122.5t-78.5 -78.5t-106.5 -27.5zM280 663q-42 0 -70 -25t-45.5 -66.5
t-24.5 -94.5t-7 -109t7 -110.5t24 -97t45.5 -69t70.5 -26.5t70.5 26.5t45.5 69.5t24 97t7 110q0 55 -7 108.5t-24.5 94.5t-45.5 66.5t-70 25.5z" />
    <glyph glyph-name="P" unicode="P" horiz-adv-x="494" 
d="M176 330v-330h-97v728h220q32 0 61.5 -15t52.5 -42.5t36.5 -66t13.5 -84.5q0 -42 -13.5 -76.5t-36 -60t-52 -39.5t-62.5 -14h-123zM176 654v-249h98q21 0 39 11t32 28.5t22 39t8 42.5t-7 44t-20.5 41.5t-32.5 30.5t-42 12h-97z" />
    <glyph glyph-name="Q" unicode="Q" horiz-adv-x="575" 
d="M280 -20q-61 0 -107.5 27.5t-78 78.5t-47.5 122.5t-16 159.5q0 87 16.5 157.5t48.5 120t78.5 76t105.5 26.5q60 0 106.5 -26.5t78.5 -76t48.5 -120t16.5 -157.5q0 -109 -25.5 -192.5t-74.5 -133.5l44 -72l-73 -50l-44 74q-37 -14 -77 -14zM258 160l72 49l49 -82
q26 45 37 109t11 132q0 55 -7 108.5t-24.5 94.5t-45.5 66.5t-70 25.5t-70 -25t-45.5 -66.5t-24.5 -94.5t-7 -109t7 -110.5t24 -97t45.5 -69t70.5 -26.5q19 0 32 4z" />
    <glyph glyph-name="R" unicode="R" horiz-adv-x="512" 
d="M477 0h-99l-82 330h-120v-330h-97v728h220q29 0 58.5 -16t53 -43.5t38 -64.5t14.5 -78q0 -62 -22.5 -105t-71.5 -73zM176 653v-247h100q25 0 44 10.5t32 27.5t19 38t6 43q0 20 -5.5 42.5t-17.5 41.5t-32 31.5t-49 12.5h-97z" />
    <glyph glyph-name="S" unicode="S" horiz-adv-x="449" 
d="M217 -19q-56 0 -102.5 15t-96.5 48v122q45 -48 96 -74t104 -26q16 0 36.5 8t38 24.5t29.5 41.5t12 58q0 30 -12 49.5t-30.5 33t-41.5 22t-45 16.5q-43 15 -77 32t-58 41t-36.5 57.5t-12.5 80.5q0 55 17.5 96t46 68t64.5 40t73 13q52 0 97 -14t93 -41v-113
q-45 46 -91.5 67t-98.5 21q-15 0 -33 -9.5t-33.5 -26.5t-26 -40.5t-10.5 -52.5q0 -31 10 -51t26.5 -32.5t37.5 -21t42 -15.5q44 -16 80 -31t62 -37t40 -54.5t14 -83.5q0 -47 -14.5 -89.5t-40.5 -72.5q-34 -38 -74.5 -53.5t-84.5 -15.5z" />
    <glyph glyph-name="T" unicode="T" horiz-adv-x="415" 
d="M256 0h-97v654h-152v74h401v-74h-152v-654z" />
    <glyph glyph-name="U" unicode="U" horiz-adv-x="553" 
d="M273 -20q-41 0 -77.5 16t-64.5 47t-44 77t-16 106v502h97v-526q0 -33 8.5 -58.5t23 -43t33.5 -26.5t40 -9q20 0 40 8.5t36 26t26 43t10 59.5v526h97v-502q0 -62 -17.5 -108t-46.5 -76.5t-66.5 -46t-78.5 -15.5z" />
    <glyph glyph-name="V" unicode="V" horiz-adv-x="451" 
d="M350 728h106l-181 -728h-100l-180 728h106l124 -571z" />
    <glyph glyph-name="W" unicode="W" horiz-adv-x="639" 
d="M414 0l-94 508l-95 -508h-99l-131 728h106l77 -534l94 534h95l93 -534l78 534h106l-131 -728h-99z" />
    <glyph glyph-name="X" unicode="X" horiz-adv-x="444" 
d="M222 289l-112 -289h-118l177 372l-163 356h110l106 -274q13 30 26.5 65.5t27 71.5t26.5 71.5t26 65.5h109l-163 -356l178 -372h-118z" />
    <glyph glyph-name="Y" unicode="Y" horiz-adv-x="460" 
d="M352 728h118l-192 -436v-292h-96v292l-192 436h118l122 -336z" />
    <glyph glyph-name="Z" unicode="Z" horiz-adv-x="447" 
d="M429 74v-74h-413v84l316 569h-295v75h392v-94l-310 -560h310z" />
    <glyph glyph-name="bracketleft" unicode="[" horiz-adv-x="243" 
d="M70 -115v755h144v-63h-66v-629h66v-63h-144z" />
    <glyph glyph-name="backslash" unicode="\" horiz-adv-x="243" 
d="M242 -14h-41l-202 629h42z" />
    <glyph glyph-name="bracketright" unicode="]" horiz-adv-x="244" 
d="M30 -115v62h66v631h-66v62h144v-755h-144z" />
    <glyph glyph-name="asciicircum" unicode="^" horiz-adv-x="369" 
d="M221 644l149 -241h-62l-123 176l-124 -176h-61l149 241h72z" />
    <glyph glyph-name="underscore" unicode="_" horiz-adv-x="311" 
d="M314 -126v-61h-317v61h317z" />
    <glyph glyph-name="grave" unicode="`" horiz-adv-x="124" 
d="M121 783h-40l-78 156h85z" />
    <glyph glyph-name="a" unicode="a" horiz-adv-x="425" 
d="M277 43q-20 -31 -41.5 -42t-53.5 -11q-29 0 -55 9t-45.5 28.5t-30.5 51.5t-11 77q0 49 16.5 83t42.5 55.5t57.5 30.5t60.5 9l60 -1q0 37 -6 61t-16.5 38t-25 19.5t-31.5 5.5q-31 0 -60 -20t-57 -49l-4 91q31 25 63.5 39.5t68.5 14.5q81 0 119.5 -51t38.5 -165v-317h-90
v43zM277 261h-31q-15 0 -35 -5.5t-38 -18.5t-30.5 -33.5t-12.5 -50.5q0 -19 5.5 -35t13.5 -27.5t18.5 -18t20.5 -6.5q22 0 38.5 11t27.5 28.5t17 38t6 38.5v79z" />
    <glyph glyph-name="b" unicode="b" horiz-adv-x="472" 
d="M155 485q22 26 52 37t58 11q50 0 82.5 -26.5t51 -66t26 -85t7.5 -82.5q0 -56 -9 -107.5t-29 -90.5t-51.5 -62t-76.5 -23q-35 0 -62 11.5t-52 40.5v-42h-87v727h90v-242zM153 262q0 -33 6.5 -67t19.5 -62.5t31 -46.5t41 -18t40.5 17.5t29 45.5t17.5 64t6 73
q0 36 -5.5 69.5t-17 60t-28.5 42.5t-40 16q-31 0 -50.5 -22.5t-30.5 -54t-15 -64.5t-4 -53z" />
    <glyph glyph-name="c" unicode="c" horiz-adv-x="388" 
d="M348 48q-30 -28 -58.5 -43.5t-65.5 -15.5q-41 0 -74.5 18t-58 53t-38 86.5t-13.5 119.5q0 127 49.5 196t134.5 71q35 1 66 -15.5t58 -43.5v-91q-29 31 -61.5 48.5t-64.5 17.5q-21 0 -38 -15.5t-29 -41t-18.5 -58.5t-6.5 -68t5 -69.5t16 -62.5t28.5 -45t42.5 -17
q34 0 64 17.5t62 49.5v-91z" />
    <glyph glyph-name="d" unicode="d" horiz-adv-x="472" 
d="M317 727h90v-727h-87v42q-25 -29 -52 -40.5t-62 -11.5q-45 0 -76.5 23t-51.5 62t-29 90.5t-9 107.5q0 37 7.5 82.5t26 85t51 66t82.5 26.5q28 0 58 -11t52 -37v242zM319 262q0 20 -4 53t-15 64.5t-30.5 54t-50.5 22.5q-23 0 -40.5 -16t-28.5 -42.5t-16.5 -60t-5.5 -69.5
q0 -37 6 -73t17.5 -64t29 -45.5t40.5 -17.5t41 18t31 46.5t19.5 62.5t6.5 67z" />
    <glyph glyph-name="e" unicode="e" horiz-adv-x="442" 
d="M394 239h-265q1 -37 8 -68t20 -53.5t33 -35t48 -12.5q18 0 37.5 7t39 19t38 28t33.5 33v-92q-15 -14 -33.5 -28t-38.5 -24.5t-40 -17t-39 -6.5q-95 0 -145 67.5t-50 201.5q0 131 49.5 203t134.5 72q81 0 125.5 -62.5t44.5 -173.5v-58zM313 325q-2 27 -7.5 51.5t-16 42.5
t-26 28.5t-36.5 10.5t-37 -11t-27.5 -30t-19 -43t-10.5 -49h180z" />
    <glyph glyph-name="f" unicode="f" horiz-adv-x="257" 
d="M192 634q-8 0 -13.5 -9.5t-5.5 -24.5v-75h61v-75h-61v-450h-92v450h-61v75h61v98q0 57 27.5 86t66.5 29q16 0 32.5 -9t29.5 -19v-100q-19 24 -45 24z" />
    <glyph glyph-name="g" unicode="g" horiz-adv-x="466" 
d="M318 523h91v-496q0 -68 -14.5 -115.5t-40.5 -77.5t-62.5 -44t-81.5 -14q-38 0 -73 11t-70 29l9 97q38 -26 71 -40.5t71 -14.5q25 1 44 13.5t33.5 35t18 62t4.5 74.5q-25 -28 -51.5 -40.5t-59.5 -12.5t-63 19t-53.5 53.5t-37 83.5t-13.5 109q0 65 13 116.5t36.5 87.5
t55.5 55t70 19q29 0 56 -12t47 -38v40zM226 450q-23 0 -40.5 -16.5t-29.5 -44t-18 -62t-6 -70.5q0 -33 5.5 -66.5t17 -60.5t29.5 -44t42 -17q23 0 40.5 18t29.5 45.5t18 61t6 63.5t-6 64t-18 62.5t-29.5 47.5t-40.5 19z" />
    <glyph glyph-name="h" unicode="h" horiz-adv-x="452" 
d="M153 487q22 26 47.5 36t55.5 10q26 0 50.5 -7t44 -24.5t31.5 -45.5t12 -70v-386h-90v379q0 22 -5.5 36t-14.5 21.5t-20.5 10t-23.5 2.5q-13 0 -28.5 -7.5t-28.5 -21t-21.5 -32.5t-8.5 -42v-346h-90v728h90v-241z" />
    <glyph glyph-name="i" unicode="i" horiz-adv-x="218" 
d="M64 728h90v-105h-90v105zM64 525h90v-525h-90v525z" />
    <glyph glyph-name="j" unicode="j" horiz-adv-x="200" 
d="M47 622v106h90v-106h-90zM36 -223q-28 0 -46 19v72q4 -4 12.5 -9t22.5 -5t18 15t4 37v619h90v-604q0 -66 -25.5 -105t-75.5 -39z" />
    <glyph glyph-name="k" unicode="k" horiz-adv-x="401" 
d="M153 334l133 191h111l-139 -198q35 -82 70.5 -163.5t70.5 -163.5h-110l-92 243l-45 -59l1 -184h-90v728h90v-394z" />
    <glyph glyph-name="l" unicode="l" horiz-adv-x="216" 
d="M63 728h90v-728h-90v728z" />
    <glyph glyph-name="m" unicode="m" horiz-adv-x="659" 
d="M153 488q20 21 44 33t49 12q31 0 58 -14.5t48 -46.5q21 32 51 47t62 15q25 0 49.5 -8t43.5 -25t31 -45.5t12 -68.5v-387h-90v380q0 38 -17 54.5t-39 16.5q-11 0 -24.5 -8t-25.5 -21.5t-20 -30.5t-8 -36v-355h-90v380q0 38 -17 54.5t-39 16.5q-11 0 -24.5 -8t-25.5 -21.5
t-20 -30.5t-8 -36v-355h-90v523h90v-35z" />
    <glyph glyph-name="n" unicode="n" horiz-adv-x="451" 
d="M153 489q21 24 46.5 34t53.5 10q24 0 49 -8.5t45.5 -26.5t33 -46.5t12.5 -67.5v-384h-90v376q0 33 -16.5 54t-36.5 21q-26 0 -52 -22t-40 -59q-2 -4 -3.5 -10t-1.5 -8v-352h-90v525h90v-36z" />
    <glyph glyph-name="o" unicode="o" horiz-adv-x="448" 
d="M225 449q-24 0 -41.5 -17.5t-29.5 -45.5t-18 -61.5t-6 -65.5q0 -21 4 -53t14.5 -62t29 -51t46.5 -21q25 0 43 16t29.5 42.5t16.5 60t5 68.5q0 30 -6 63.5t-18 61.5t-29.5 46.5t-39.5 18.5zM40 261q0 63 13 113.5t37 86t58 54t76 18.5q41 0 75 -18.5t58 -54t37.5 -86
t13.5 -113.5t-13.5 -113t-37.5 -85.5t-58 -54t-75 -18.5q-42 0 -76 18.5t-58 54t-37 85.5t-13 113z" />
    <glyph glyph-name="p" unicode="p" horiz-adv-x="470" 
d="M153 -203h-90v728h87v-43q25 29 52 40.5t62 11.5q45 0 76.5 -23t51.5 -62t29 -90.5t9 -107.5q0 -38 -7.5 -83t-26 -84.5t-51 -66t-82.5 -26.5q-28 0 -58 11t-52 37v-242zM151 262q0 -20 4 -53t15 -64.5t30.5 -54t50.5 -22.5q23 0 40 16t28.5 42.5t17 60t5.5 69.5
q0 37 -6 73t-17.5 64t-29 45.5t-40.5 17.5t-41 -18t-31 -46.5t-19.5 -62.5t-6.5 -67z" />
    <glyph glyph-name="q" unicode="q" horiz-adv-x="470" 
d="M317 39q-22 -26 -52 -37t-58 -11q-50 0 -82.5 26.5t-51 66t-26 84.5t-7.5 83q0 56 9 107.5t29 90.5t51.5 62t76.5 23q35 0 62 -11.5t52 -40.5v43h87v-728h-90v242zM319 262q0 33 -6.5 67t-19.5 62.5t-31 46.5t-41 18t-40.5 -17.5t-29 -45.5t-17.5 -64t-6 -73
q0 -36 5.5 -69.5t16.5 -60t28.5 -42.5t40.5 -16q31 0 50.5 22.5t30.5 54t15 64.5t4 53z" />
    <glyph glyph-name="r" unicode="r" horiz-adv-x="278" 
d="M153 499q14 19 32.5 26.5t38.5 7.5q24 0 43 -16v-77q-23 9 -42 9q-29 0 -50.5 -24t-21.5 -72v-353h-90v525h90v-26z" />
    <glyph glyph-name="s" unicode="s" horiz-adv-x="374" 
d="M176 -10q-38 0 -72.5 12.5t-70.5 33.5v117q16 -15 34 -29.5t37.5 -26.5t39 -19t37.5 -7q10 0 22 2.5t22.5 10t18 20t7.5 32.5q0 42 -23 60.5t-61 32.5q-21 8 -44.5 19t-43 27.5t-32 39t-12.5 53.5q0 45 14.5 76t37.5 50.5t51.5 29t55.5 9.5q34 0 68.5 -12t64.5 -32v-98
q-32 28 -62 45.5t-76 17.5q-9 0 -20 -5t-21 -15t-16.5 -23.5t-6.5 -31.5q0 -19 9.5 -33.5t23.5 -25t30 -18t29 -11.5q36 -12 59.5 -25t38 -29.5t20.5 -38.5t6 -50q0 -46 -15.5 -76.5t-39.5 -48.5t-53 -25.5t-57 -7.5z" />
    <glyph glyph-name="t" unicode="t" horiz-adv-x="298" 
d="M218 -10q-56 0 -91 37.5t-35 120.5v302h-72v75h72v135h90v-135h94v-75h-94v-302q0 -13 2 -26.5t7 -24.5t14 -18t24 -7q12 0 29 4.5t31 15.5v-84q-18 -9 -34.5 -13.5t-36.5 -4.5z" />
    <glyph glyph-name="u" unicode="u" horiz-adv-x="451" 
d="M298 34q-21 -24 -46.5 -34t-53.5 -10q-24 0 -49 8.5t-45 26.5t-33 46t-13 68v386h90v-378q0 -31 15.5 -53.5t35.5 -22.5q26 0 52.5 22t40.5 57q1 3 3.5 11t2.5 10v354h90v-525h-90v34z" />
    <glyph glyph-name="v" unicode="v" horiz-adv-x="381" 
d="M148 0l-148 525h100l91 -387q11 44 22.5 93.5t22.5 100t22.5 100t22.5 93.5h100l-148 -525h-85z" />
    <glyph glyph-name="w" unicode="w" horiz-adv-x="527" 
d="M330 0l-66 344l-34 -172t-33 -172h-85l-112 525h93l60 -372l66 372h90l65 -372l60 372h93l-111 -525h-86z" />
    <glyph glyph-name="x" unicode="x" horiz-adv-x="369" 
d="M184 199q-20 -45 -40 -99.5t-39 -99.5h-100l126 269l-120 256h99l74 -194l77 194h99l-123 -257q33 -66 63.5 -134t63.5 -134h-101z" />
    <glyph glyph-name="y" unicode="y" horiz-adv-x="376" 
d="M188 154l84 371h99l-166 -628q-6 -22 -15 -43.5t-21 -38.5t-27.5 -27.5t-34.5 -10.5q-31 0 -56 17v106q12 -12 22.5 -15.5t26.5 -3.5q6 0 10.5 6.5t8.5 16.5t6 20.5t4 18.5l13 62q-33 129 -68.5 260t-68.5 260h99z" />
    <glyph glyph-name="z" unicode="z" 
d="M360 76v-76h-330v91l231 360h-218v72h310v-91l-234 -356h241z" />
    <glyph glyph-name="braceleft" unicode="{" horiz-adv-x="212" 
d="M162 -115q-32 0 -52.5 7t-32.5 21t-17 36.5t-5 52.5v171q0 8 -1.5 18.5t-5.5 20t-11 16.5t-17 8v57q10 0 17 7t11 16t5.5 19.5t1.5 18.5v169q0 61 23 89t86 28h18v-63h-18q-14 0 -21.5 -8t-10.5 -19t-3.5 -24t-0.5 -23v-160q0 -23 -11.5 -48.5t-34.5 -34.5
q23 -10 34.5 -31t11.5 -45v-162q0 -10 0.5 -23t3.5 -24t10.5 -19t21.5 -8h18v-63h-20z" />
    <glyph glyph-name="bar" unicode="|" horiz-adv-x="228" 
d="M140 -76h-58v887h58v-887z" />
    <glyph glyph-name="braceright" unicode="}" horiz-adv-x="211" 
d="M181 236q-10 -1 -16.5 -8t-10.5 -16.5t-5.5 -20t-1.5 -18.5v-171q0 -30 -5 -52.5t-17 -36.5t-32.5 -21t-52.5 -7h-20v63h18q14 0 21.5 8t11 19t4 24t0.5 23v162q0 24 11 45t34 31q-23 9 -34 34.5t-11 48.5v160q0 10 -0.5 23t-4 24t-11 19t-21.5 8h-18v63h18
q64 0 86.5 -28t22.5 -89v-169q0 -8 1.5 -18t5.5 -19.5t10.5 -16.5t16.5 -7v-57v0z" />
    <glyph glyph-name="asciitilde" unicode="~" horiz-adv-x="636" 
d="M569 379q0 -98 -41.5 -148.5t-108.5 -50.5q-32 0 -53 11t-36.5 28t-27.5 36t-26.5 36t-33 28t-45.5 11q-24 0 -40 -13.5t-25 -34t-13 -44t-4 -43.5h-62q0 39 9.5 75.5t28.5 65t48.5 46t68.5 17.5q35 0 59.5 -11t42 -28t30.5 -36t25.5 -36t26 -28t32.5 -11q14 0 29 10
t27 27t20 41t8 52h61z" />
    <glyph glyph-name="exclamdown" unicode="&#xa1;" horiz-adv-x="246" 
d="M80 0v267l17 216h52l17 -215v-268h-86zM166 644v-98h-86v98h86z" />
    <glyph glyph-name="cent" unicode="&#xa2;" horiz-adv-x="463" 
d="M54 -123l67 150q-46 35 -67.5 92.5t-21.5 118.5q0 49 14 91.5t40.5 74t63 49.5t81.5 18q44 0 81 -14l44 100h39l-51 -115q35 -21 56 -54.5t28 -73.5h-81q-7 43 -31 64l-136 -306q23 -14 51 -14q54 0 81 30.5t35 80.5l81 1q-7 -83 -58 -131t-139 -48q-43 0 -79 17
l-57 -131h-41zM113 238q0 -41 9.5 -78.5t29.5 -63.5l133 299q-11 5 -24.5 6t-28.5 1q-32 0 -54.5 -13.5t-36.5 -36t-21 -52t-7 -62.5z" />
    <glyph glyph-name="sterling" unicode="&#xa3;" horiz-adv-x="543" 
d="M352 371v-36h1v-36h-136q8 -11 13.5 -32.5t5.5 -37.5q0 -30 -6 -52t-16.5 -39.5t-25 -31t-30.5 -25.5l1 -2q19 8 33 11.5t41 3.5q23 0 43.5 -4.5t39.5 -10.5t36 -10.5t32 -4.5q22 0 44 10t33 21l42 -65q-32 -24 -61 -36.5t-65 -12.5q-22 0 -44.5 6.5t-46 14t-48.5 14
t-53 6.5t-59 -12t-58 -29l-48 70q39 26 63 51.5t37.5 48.5t18 43t4.5 35t-5.5 35.5t-11.5 34.5h-110v72h70q-14 29 -28 64.5t-14 87.5q0 42 17.5 76t49 58t74.5 37t94 13q48 0 86.5 -16.5t66.5 -45.5t45.5 -68t23.5 -83h-93q-4 27 -13.5 50.5t-25.5 41t-39 27.5t-53 10
q-33 0 -58.5 -9.5t-42 -25.5t-25 -38t-8.5 -46q0 -30 9 -59t34 -74h166z" />
    <glyph glyph-name="currency" unicode="&#xa4;" horiz-adv-x="401" 
d="M330 116l-31 31q-43 -31 -98 -31q-56 0 -99 31l-31 -31l-44 44l30 31q-30 44 -30 98q0 27 8.5 52t22.5 46l-31 31l45 44l31 -30q44 30 98 30t98 -30l31 30l44 -44l-31 -31q31 -43 31 -98t-31 -98l31 -31zM201 401q-23 0 -43.5 -9t-35.5 -24t-24 -35.5t-9 -43.5t9 -43
t24 -35t35.5 -24t43.5 -9t43 9t35 24t24 35t9 43t-9 43.5t-24 35.5t-35 24t-43 9z" />
    <glyph glyph-name="yen" unicode="&#xa5;" horiz-adv-x="460" 
d="M265 211v66l-5 8h-172v62h136l-208 342h114l180 -335h2l180 335h115l-208 -342h136v-62h-172l-6 -8v-66h177v-61h-177v-150h-92v150h-178v61h178z" />
    <glyph glyph-name="brokenbar" unicode="&#xa6;" horiz-adv-x="222" 
d="M80 -125v387h62v-387h-62zM142 732v-386h-62v386h62z" />
    <glyph glyph-name="section" unicode="&#xa7;" horiz-adv-x="454" 
d="M115 149q0 -47 28 -72.5t72 -25.5q18 0 37.5 2.5t35 10t26 21t10.5 34.5q0 16 -9.5 29t-26 24t-38 19.5t-45.5 16.5q-32 9 -60 20.5t-49 27.5t-33.5 38t-12.5 54q0 37 19 60t48 37q-26 13 -43 34.5t-17 55.5q0 35 13 59t35 39t50.5 21.5t59.5 6.5q37 0 69 -8t55.5 -24
t36.5 -41.5t13 -59.5h-79q0 20 -7.5 32.5t-20 19.5t-30 9.5t-37.5 2.5q-36 0 -56 -15.5t-20 -38.5q0 -26 20.5 -41t51.5 -25t67.5 -18t67.5 -21.5t51.5 -35.5t20.5 -59q0 -44 -21.5 -68.5t-59.5 -40.5q29 -14 47.5 -41t18.5 -62q0 -40 -15.5 -67.5t-41 -44.5t-60 -24.5
t-71.5 -7.5q-36 0 -69 11.5t-57.5 33t-39 52.5t-14.5 70h80zM130 349q0 -18 11 -30.5t29 -22t40.5 -16.5t45.5 -14l26 6.5t26 10.5t20.5 18.5t8.5 29.5q0 16 -10 28.5t-27 22t-39 16.5t-46 13q-37 0 -61 -19t-24 -43z" />
    <glyph glyph-name="dieresis" unicode="&#xa8;" horiz-adv-x="252" 
d="M95 824q0 -16 -12.5 -28t-30.5 -12t-30 12t-12 28q0 17 12 29t30 12t30.5 -12t12.5 -29zM250 824q0 -16 -12.5 -28t-29.5 -12q-18 0 -30.5 12t-12.5 28q0 17 12.5 29t30.5 12q17 0 29.5 -12t12.5 -29z" />
    <glyph glyph-name="copyright" unicode="&#xa9;" horiz-adv-x="746" 
d="M366 -18q-70 0 -132 27t-108 73t-72.5 108t-26.5 133q0 70 26.5 131.5t72.5 107.5t108 72.5t132 26.5t132.5 -26.5t108.5 -72.5t73 -107.5t27 -131.5q0 -71 -27 -133t-73 -108t-108.5 -73t-132.5 -27zM366 23q62 0 116.5 23.5t95.5 64.5t64.5 95.5t23.5 116.5
q0 61 -23.5 115.5t-64.5 95t-95.5 64t-116.5 23.5t-116 -23.5t-95 -64t-64.5 -95t-23.5 -115.5q0 -62 23.5 -116.5t64.5 -95.5t95 -64.5t116 -23.5zM555 405q-4 32 -19 60t-39.5 48.5t-58 32t-74.5 11.5q-48 0 -85.5 -19.5t-63.5 -52t-39.5 -74t-13.5 -86.5q0 -57 14 -102.5
t40.5 -77t63.5 -48.5t84 -17q42 0 75.5 13.5t57.5 37t39 55.5t20 70h-62q-3 -23 -13 -45t-26.5 -39t-39.5 -27.5t-51 -10.5q-26 0 -51 11.5t-44.5 35t-31.5 59.5t-12 85q0 35 10 67t28 56t43.5 38.5t57.5 14.5q51 0 84.5 -23.5t45.5 -72.5h61z" />
    <glyph glyph-name="ordfeminine" unicode="&#xaa;" horiz-adv-x="348" 
d="M304 317v-55h-260v55h260zM50 565q0 26 11 44t27.5 29.5t36.5 17t39 5.5t38.5 -3.5t35.5 -13t26 -26t10 -41.5v-148q0 -7 3.5 -12t9.5 -5t17 8v-52q-8 -4 -15 -6t-19 -2q-20 0 -35.5 8.5t-23.5 27.5q-12 -19 -34.5 -27.5t-52.5 -8.5q-35 0 -57.5 23.5t-22.5 62.5
q0 29 12.5 47.5t31 29.5t40 17t40 10t31 8.5t12.5 13.5q0 20 -12.5 28t-40.5 8q-21 0 -36 -10.5t-15 -32.5h-57zM211 519q-13 -6 -30.5 -11t-34 -12t-28 -18.5t-11.5 -31.5q0 -19 8.5 -26.5t25.5 -7.5q24 0 40 8.5t30 34.5v64z" />
    <glyph glyph-name="guillemotleft" unicode="&#xab;" horiz-adv-x="373" 
d="M164 197v36l147 124v-62l-94 -81l94 -80v-61zM53 197v36l147 124v-62l-95 -81l95 -80v-61z" />
    <glyph glyph-name="logicalnot" unicode="&#xac;" horiz-adv-x="492" 
d="M460 373v-144h-63v85h-362v59h425z" />
    <glyph glyph-name="registered" unicode="&#xae;" horiz-adv-x="746" 
d="M477 95h62l-80 203q37 17 61.5 53t24.5 79q0 22 -8.5 44t-24.5 39.5t-37.5 28.5t-48.5 11h-218v-458h62v192h131zM270 498h134q29 0 51.5 -21.5t22.5 -53.5q0 -33 -21 -57t-53 -24h-134v156zM366 -18q-70 0 -132 27t-108 73t-72.5 108t-26.5 133q0 70 26.5 131.5
t72.5 107.5t108 72.5t132 26.5t132.5 -26.5t108.5 -72.5t73 -107.5t27 -131.5q0 -71 -27 -133t-73 -108t-108.5 -73t-132.5 -27zM366 23q62 0 116.5 23.5t95.5 64.5t64.5 95.5t23.5 116.5q0 61 -23.5 115.5t-64.5 95t-95.5 64t-116.5 23.5t-116 -23.5t-95 -64t-64.5 -95
t-23.5 -115.5q0 -62 23.5 -116.5t64.5 -95.5t95 -64.5t116 -23.5z" />
    <glyph glyph-name="macron" unicode="&#xaf;" horiz-adv-x="293" 
d="M253 626v-58h-213v58h213z" />
    <glyph glyph-name="degree" unicode="&#xb0;" horiz-adv-x="325" 
d="M163 414q-26 0 -48.5 10t-39 26.5t-26.5 39t-10 48.5q0 25 10 47.5t26.5 39.5t39 26.5t48.5 9.5q25 0 48 -9.5t39.5 -26.5t26.5 -39.5t10 -47.5q0 -26 -10 -48.5t-26.5 -39t-39.5 -26.5t-48 -10zM163 617q-33 0 -56.5 -23.5t-23.5 -55.5q0 -33 23.5 -56.5t56.5 -23.5
q32 0 55.5 23.5t23.5 56.5q0 32 -23.5 55.5t-55.5 23.5z" />
    <glyph glyph-name="plusminus" unicode="&#xb1;" horiz-adv-x="406" 
d="M227 244v-170h-61v170h-119v61h119v170h61v-170h119v-61h-119zM63 -16v61h298v-61h-298z" />
    <glyph glyph-name="twosuperior" unicode="&#xb2;" horiz-adv-x="310" 
d="M271.389 376.595q0 -35.3984 -11.0996 -60.5967q-11.0996 -25.1992 -30.8984 -41.0986t-47.3984 -23.3994q-27.5986 -7.5 -59.9971 -7.5q-10.2002 0 -22.1992 1.5t-23.6992 4.5q-11.6992 3 -22.7988 7.2002q-11.0996 4.19922 -20.0996 10.1992v68.9971
q15.5996 -17.3994 40.7988 -27.2988t47.998 -9.89941q35.998 0 58.4971 20.999q22.5 20.999 22.5 56.998q0 17.999 -6.2998 32.998q-6.2998 15 -17.3994 25.7988q-11.0996 10.7998 -26.3994 16.5q-15.2988 5.69922 -33.2988 5.69922q-6.59961 0 -13.1992 -0.299805
t-13.1992 -0.899414v51.5977l19.1992 1.7998q13.1992 1.2002 27.2988 6.59961t25.499 14.3994t18.8994 20.999q7.49902 12 7.49902 26.999q0 15.5996 -5.39941 26.6992t-14.999 18.2988q-9.59961 7.2002 -22.1992 10.5t-27.5996 3.2998q-20.999 0 -42.8975 -9.89941
q-21.8994 -9.90039 -35.6992 -26.6992v68.3975q7.7998 5.99902 18.8994 10.499t22.7988 7.2002q11.7002 2.7002 23.3994 4.19922q11.6992 1.5 21.2988 1.5q28.1992 0 52.498 -5.99902q24.2988 -6 41.998 -19.5q17.7002 -13.499 27.5996 -35.0977
q9.89941 -21.5996 9.89941 -52.1982q0 -17.3994 -6.89941 -32.3984q-6.90039 -15 -18.2998 -26.999q-11.3994 -12 -26.3984 -20.6992q-15 -8.7002 -30.5996 -12.8994q19.7998 -3.60059 36.8994 -13.7998q17.0986 -10.1992 29.3984 -24.8984
q12.2998 -14.7002 19.1992 -33.2988q6.89941 -18.5996 6.89941 -38.999z" />
    <glyph glyph-name="threesuperior" unicode="&#xb3;" horiz-adv-x="310" 
d="M35.1982 256v73.7969q29.3994 34.1992 58.7979 68.0977t58.1973 68.6973q15.5996 19.1992 27.8994 42.8975q12.2988 23.6992 12.2988 48.8984q0 17.999 -3.59961 32.3984t-11.6992 24.8994q-8.09961 10.499 -21.2998 16.1992q-13.1992 5.69922 -32.998 5.69922
q-20.999 0 -44.0986 -10.7988q-23.0986 -10.7998 -37.498 -26.3994v69.5977q16.1992 11.3994 39.2979 17.3994q23.0996 5.99902 42.2988 5.99902q70.7969 0 105.296 -31.1982q34.498 -31.1992 34.498 -103.796q0 -16.1992 -5.69922 -33.5986
q-5.7002 -17.3994 -14.7002 -33.8984q-8.99902 -16.5 -19.7988 -31.1992t-21.5986 -26.0986l-110.396 -119.995h176.992v-57.5977h-232.19z" />
    <glyph glyph-name="acute" unicode="&#xb4;" horiz-adv-x="178" 
d="M60 939h85l-78 -156h-40z" />
    <glyph glyph-name="mu" unicode="&#xb5;" horiz-adv-x="464" 
d="M459 89q-2 -43 -24 -71q-26 -32 -68 -32q-69 0 -73 85q-73 -85 -147 -85q-44 0 -70 35h-2q0 -47 9 -93q10 -49 10 -65q0 -50 -37 -50q-40 0 -40 51q0 16 12 72q13 55 13 124v346h74v-249q0 -116 69 -116q56 0 109 60v305h73v-298q0 -21 8 -45q9 -29 26 -29q32 0 38 55h20
z" />
    <glyph glyph-name="paragraph" unicode="&#xb6;" horiz-adv-x="477" 
d="M391 -172h-34v763h-86v-763h-34v451q-47 0 -85.5 8.5t-66.5 28t-43 51t-15 78.5q0 81 47 125.5t149 44.5h230v-24h-62v-763z" />
    <glyph glyph-name="periodcentered" unicode="&#xb7;" horiz-adv-x="168" 
d="M121 210q0 -15 -10.5 -26t-26.5 -11q-15 0 -26 11t-11 26t11 26t26 11q16 0 26.5 -11t10.5 -26z" />
    <glyph glyph-name="cedilla" unicode="&#xb8;" horiz-adv-x="306" 
d="M232 -80q0 -53 -72 -53q-30 0 -73 12l-1 27q46 -10 73 -10q31 0 31 22q0 27 -52 23v54h22v-28q72 0 72 -47z" />
    <glyph glyph-name="onesuperior" unicode="&#xb9;" horiz-adv-x="310" 
d="M155.794 256v356.985l-71.9971 -67.1973v71.3975l76.1973 64.1973h61.1973v-425.383h-65.3975z" />
    <glyph glyph-name="ordmasculine" unicode="&#xba;" horiz-adv-x="291" 
d="M281 484q0 -55 -40 -95q-41 -41 -96 -41q-58 0 -96 37q-38 35 -38 92q0 60 39 99q37 39 100 39q56 0 94 -38q37 -38 37 -93zM217 455q0 48 -19 87q-24 51 -65 51q-58 0 -58 -85q0 -42 17 -84q23 -53 61 -53q64 0 64 84z" />
    <glyph glyph-name="guillemotright" unicode="&#xbb;" horiz-adv-x="467" 
d="M423 203l-176 -203h-28l113 203l-113 203h28zM248 203l-176 -203h-28l113 203l-113 203h28z" />
    <glyph glyph-name="onequarter" unicode="&#xbc;" horiz-adv-x="710" 
d="M503 626l-290 -637h-50l290 637h50zM170 260v354h-51l-64 -53v-60l60 56v-297h55zM636 84v45h-33v225h-69l-116 -221v-49h132v-84h53v84h33zM552 306q-1 -10 -2 -21t-1 -21v-135h-89l50 92q11 20 22.5 41t19.5 44z" />
    <glyph glyph-name="onehalf" unicode="&#xbd;" horiz-adv-x="710" 
d="M493 626l-290 -637h-50l290 637h50zM170 260v354h-51l-64 -53v-60l60 56v-297h55zM624 0v48h-148l92 100q9 9 18 21.5t16.5 26t12.5 28t5 28.5q0 60 -29 86t-88 26q-16 0 -35 -5t-33 -14v-58q12 13 31.5 22t36.5 9t28 -5t17.5 -13.5t9.5 -20.5t3 -27q0 -21 -10 -41
t-23 -36q-24 -29 -48.5 -57t-49.5 -57v-61h194z" />
    <glyph glyph-name="threequarters" unicode="&#xbe;" horiz-adv-x="710" 
d="M513 626l-290 -637h-50l290 637h50zM226 360q0 17 -6 32.5t-16 28t-24.5 21t-30.5 11.5q13 3 25.5 10.5t22 17.5t15 22.5t5.5 26.5q0 26 -8 44t-23 29t-35 16t-44 5q-8 0 -17.5 -1t-19.5 -3.5t-19 -6t-16 -8.5v-57q12 14 30 22t36 8q12 0 22.5 -2.5t18.5 -8.5t12.5 -15.5
t4.5 -22.5q0 -12 -6 -22t-15.5 -17.5t-21.5 -12t-23 -5.5l-16 -2v-43q6 1 11.5 1h10.5q15 0 28 -4.5t22 -13.5t14.5 -21.5t5.5 -27.5q0 -30 -19 -47.5t-49 -17.5q-19 0 -40 8t-34 23v-58q8 -5 17 -8.5t19 -6t20 -3.5t18 -1q27 0 50 6t39.5 19.5t26 34.5t9.5 50zM636 84v45
h-33v225h-69l-116 -221v-49h132v-84h53v84h33zM552 306q-1 -10 -2 -21t-1 -21v-135h-89l50 92q11 20 22.5 41t19.5 44z" />
    <glyph glyph-name="questiondown" unicode="&#xbf;" horiz-adv-x="376" 
d="M306 54.0342q0 31.998 -10.5 63.9961t-27.5 62.4961t-39 56.9961q-22 26.499 -46 45.4971v115.993h-96v-137.991q24 -16.999 45.5 -40.498q21.5 -23.498 38 -50.4961q16.5 -26.999 26.5 -56.4971t10 -59.4961q0 -21.999 -3.5 -40.998q-3.5 -18.998 -12.5 -33.498
q-9 -14.499 -25.5 -22.498q-16.5 -8 -42.5 -8q-25 0 -53 12.5q-28 12.499 -47 29.498v-93.9941q18 -16.999 47 -26.499q29 -9.49902 53 -9.49902q53 0 88 11.499t56 34.998q21 23.498 30 59.9961t9 86.4951zM87 611v-95.9941h92v95.9941h-92z" />
    <glyph glyph-name="Agrave" unicode="&#xc0;" horiz-adv-x="476" 
d="M318 225h-164l-53 -225h-106l191 728h105l190 -728h-106zM172 298h133l-67 323zM300 783h-40l-78 156h85z" />
    <glyph glyph-name="Aacute" unicode="&#xc1;" horiz-adv-x="476" 
d="M318 225h-164l-53 -225h-106l191 728h105l190 -728h-106zM172 298h133l-67 323zM219 939h85l-78 -156h-40z" />
    <glyph glyph-name="Acircumflex" unicode="&#xc2;" horiz-adv-x="476" 
d="M318 225h-164l-53 -225h-106l191 728h105l190 -728h-106zM172 298h133l-67 323zM369 783h-35l-96 95l-96 -95h-35l88 148h85l89 -148v0z" />
    <glyph glyph-name="Atilde" unicode="&#xc3;" horiz-adv-x="476" 
d="M318 225h-164l-53 -225h-106l191 728h105l190 -728h-106zM172 298h133l-67 323zM384 935q0 -20 -8 -34t-21 -23t-30 -13t-34 -4q-21 0 -42.5 5t-41.5 13l-11 5.5l-15 7.5t-15.5 6.5t-11.5 2.5q-31 0 -33 -32h-30q0 19 8 34t21.5 25t30 15.5t34.5 5.5q10 0 23.5 -3t27 -7
t27 -8.5t23.5 -7.5q7 -2 20 -6.5t20 -4.5q25 0 26 23h32z" />
    <glyph glyph-name="Adieresis" unicode="&#xc4;" horiz-adv-x="476" 
d="M318 225h-164l-53 -225h-106l191 728h105l190 -728h-106zM172 298h133l-67 323zM201 824q0 -16 -12.5 -28t-30.5 -12t-30 12t-12 28q0 17 12 29t30 12t30.5 -12t12.5 -29zM356 824q0 -16 -12.5 -28t-29.5 -12q-18 0 -30.5 12t-12.5 28q0 17 12.5 29t30.5 12
q17 0 29.5 -12t12.5 -29z" />
    <glyph glyph-name="Aring" unicode="&#xc5;" horiz-adv-x="476" 
d="M150 798q0 36 25.5 62t62.5 26q36 0 61.5 -26t25.5 -62t-25.5 -62t-61.5 -26q-37 0 -62.5 26t-25.5 62zM189 798q0 -20 14.5 -34t34.5 -14t34 14t14 34t-14 34t-34 14t-34.5 -14t-14.5 -34zM318 225h-164l-53 -225h-106l191 728h105l190 -728h-106zM172 298h133l-67 323z
" />
    <glyph glyph-name="AE" unicode="&#xc6;" horiz-adv-x="878" 
d="M446 225h-222l-113 -225h-116l385 728h438v-75h-275v-239h259v-75h-259v-265h287v-74h-384v225zM261 298h185v355h-21z" />
    <glyph glyph-name="Ccedilla" unicode="&#xc7;" horiz-adv-x="539" 
d="M299 -21q-129 0 -198.5 97t-69.5 286q0 76 13.5 145.5t44 123t80 85.5t121.5 32q58 0 104.5 -19.5t94.5 -65.5v-111q-24 23 -47.5 44t-47 36.5t-48 25t-51.5 9.5q-43 0 -74 -23t-50.5 -63t-28.5 -93t-9 -113q0 -61 8 -117t27 -98.5t50 -67.5t78 -25q54 0 99.5 32t93.5 84
v-113q-42 -51 -88.5 -71t-101.5 -20zM375 -93q0 -53 -72 -53q-30 0 -73 12l-1 27q46 -10 73 -10q31 0 31 22q0 27 -52 23v54h22v-28q72 0 72 -47z" />
    <glyph glyph-name="Egrave" unicode="&#xc8;" horiz-adv-x="511" 
d="M79 728h372v-75h-275v-239h259v-75h-259v-265h287v-74h-384v728zM310 783h-40l-78 156h85z" />
    <glyph glyph-name="Eacute" unicode="&#xc9;" horiz-adv-x="511" 
d="M263 939h85l-78 -156h-40zM79 728h372v-75h-275v-239h259v-75h-259v-265h287v-74h-384v728z" />
    <glyph glyph-name="Ecircumflex" unicode="&#xca;" horiz-adv-x="511" 
d="M79 728h372v-75h-275v-239h259v-75h-259v-265h287v-74h-384v728zM403 783h-35l-96 95l-96 -95h-35l88 148h85l89 -148v0z" />
    <glyph glyph-name="Edieresis" unicode="&#xcb;" horiz-adv-x="511" 
d="M238 824q0 -16 -12.5 -28t-30.5 -12t-30 12t-12 28q0 17 12 29t30 12t30.5 -12t12.5 -29zM393 824q0 -16 -12.5 -28t-29.5 -12q-18 0 -30.5 12t-12.5 28q0 17 12.5 29t30.5 12q17 0 29.5 -12t12.5 -29zM79 728h372v-75h-275v-239h259v-75h-259v-265h287v-74h-384v728z
" />
    <glyph glyph-name="Igrave" unicode="&#xcc;" horiz-adv-x="272" 
d="M87 728h97v-728h-97v728zM185 783h-40l-78 156h85z" />
    <glyph glyph-name="Iacute" unicode="&#xcd;" horiz-adv-x="272" 
d="M87 728h97v-728h-97v728zM95 939h85l-78 -156h-40z" />
    <glyph glyph-name="Icircumflex" unicode="&#xce;" horiz-adv-x="272" 
d="M87 728h97v-728h-97v728zM268 783h-35l-96 95l-96 -95h-35l88 148h85l89 -148v0z" />
    <glyph glyph-name="Idieresis" unicode="&#xcf;" horiz-adv-x="272" 
d="M87 728h97v-728h-97v728zM101 824q0 -16 -12.5 -28t-30.5 -12t-30 12t-12 28q0 17 12 29t30 12t30.5 -12t12.5 -29zM256 824q0 -16 -12.5 -28t-29.5 -12q-18 0 -30.5 12t-12.5 28q0 17 12.5 29t30.5 12q17 0 29.5 -12t12.5 -29z" />
    <glyph glyph-name="Ntilde" unicode="&#xd1;" horiz-adv-x="576" 
d="M401 728h96v-728h-106l-225 545l10 -545h-97v728h108l224 -544zM458 873q0 -20 -8 -34t-21 -23t-30 -13t-34 -4q-21 0 -42.5 5t-41.5 13l-11 5.5l-15 7.5t-15.5 6.5t-11.5 2.5q-31 0 -33 -32h-30q0 19 8 34t21.5 25t30 15.5t34.5 5.5q10 0 23.5 -3t27 -7t27 -8.5
t23.5 -7.5q7 -2 20 -6.5t20 -4.5q25 0 26 23h32z" />
    <glyph glyph-name="Ograve" unicode="&#xd2;" horiz-adv-x="448" 
d="M262 583h-40l-78 156h85zM228 449q-24 0 -41.5 -17.5t-29.5 -45.5t-18 -61.5t-6 -65.5q0 -21 4 -53t14.5 -62t29 -51t46.5 -21q25 0 43 16t29.5 42.5t16.5 60t5 68.5q0 30 -6 63.5t-18 61.5t-29.5 46.5t-39.5 18.5zM43 261q0 63 13 113.5t37 86t58 54t76 18.5
q41 0 75 -18.5t58 -54t37.5 -86t13.5 -113.5t-13.5 -113t-37.5 -85.5t-58 -54t-75 -18.5q-42 0 -76 18.5t-58 54t-37 85.5t-13 113z" />
    <glyph glyph-name="Oacute" unicode="&#xd3;" horiz-adv-x="448" 
d="M228 449q-24 0 -41.5 -17.5t-29.5 -45.5t-18 -61.5t-6 -65.5q0 -21 4 -53t14.5 -62t29 -51t46.5 -21q25 0 43 16t29.5 42.5t16.5 60t5 68.5q0 30 -6 63.5t-18 61.5t-29.5 46.5t-39.5 18.5zM43 261q0 63 13 113.5t37 86t58 54t76 18.5q41 0 75 -18.5t58 -54t37.5 -86
t13.5 -113.5t-13.5 -113t-37.5 -85.5t-58 -54t-75 -18.5q-42 0 -76 18.5t-58 54t-37 85.5t-13 113zM183 739h85l-78 -156h-40z" />
    <glyph glyph-name="Ocircumflex" unicode="&#xd4;" horiz-adv-x="448" 
d="M228 449q-24 0 -41.5 -17.5t-29.5 -45.5t-18 -61.5t-6 -65.5q0 -21 4 -53t14.5 -62t29 -51t46.5 -21q25 0 43 16t29.5 42.5t16.5 60t5 68.5q0 30 -6 63.5t-18 61.5t-29.5 46.5t-39.5 18.5zM43 261q0 63 13 113.5t37 86t58 54t76 18.5q41 0 75 -18.5t58 -54t37.5 -86
t13.5 -113.5t-13.5 -113t-37.5 -85.5t-58 -54t-75 -18.5q-42 0 -76 18.5t-58 54t-37 85.5t-13 113zM333 583h-35l-96 95l-96 -95h-35l88 148h85l89 -148v0z" />
    <glyph glyph-name="Otilde" unicode="&#xd5;" horiz-adv-x="561" 
d="M280 -20q-61 0 -107.5 27.5t-78 78.5t-47.5 122.5t-16 159.5q0 87 16.5 157.5t48.5 120t78.5 76t105.5 26.5q60 0 106.5 -26.5t78.5 -76t48.5 -120t16.5 -157.5q0 -88 -16.5 -159.5t-48.5 -122.5t-78.5 -78.5t-106.5 -27.5zM280 663q-42 0 -70 -25t-45.5 -66.5
t-24.5 -94.5t-7 -109t7 -110.5t24 -97t45.5 -69t70.5 -26.5t70.5 26.5t45.5 69.5t24 97t7 110q0 55 -7 108.5t-24.5 94.5t-45.5 66.5t-70 25.5zM425 873q0 -20 -8 -34t-21 -23t-30 -13t-34 -4q-21 0 -42.5 5t-41.5 13l-11 5.5l-15 7.5t-15.5 6.5t-11.5 2.5q-31 0 -33 -32
h-30q0 19 8 34t21.5 25t30 15.5t34.5 5.5q10 0 23.5 -3t27 -7t27 -8.5t23.5 -7.5q7 -2 20 -6.5t20 -4.5q25 0 26 23h32z" />
    <glyph glyph-name="Odieresis" unicode="&#xd6;" horiz-adv-x="561" 
d="M280 -20q-61 0 -107.5 27.5t-78 78.5t-47.5 122.5t-16 159.5q0 87 16.5 157.5t48.5 120t78.5 76t105.5 26.5q60 0 106.5 -26.5t78.5 -76t48.5 -120t16.5 -157.5q0 -88 -16.5 -159.5t-48.5 -122.5t-78.5 -78.5t-106.5 -27.5zM280 663q-42 0 -70 -25t-45.5 -66.5
t-24.5 -94.5t-7 -109t7 -110.5t24 -97t45.5 -69t70.5 -26.5t70.5 26.5t45.5 69.5t24 97t7 110q0 55 -7 108.5t-24.5 94.5t-45.5 66.5t-70 25.5zM245 824q0 -16 -12.5 -28t-30.5 -12t-30 12t-12 28q0 17 12 29t30 12t30.5 -12t12.5 -29zM400 824q0 -16 -12.5 -28t-29.5 -12
q-18 0 -30.5 12t-12.5 28q0 17 12.5 29t30.5 12q17 0 29.5 -12t12.5 -29z" />
    <glyph glyph-name="multiply" unicode="&#xd7;" horiz-adv-x="514" 
d="M485 50l-49 -45l-180 165l-177 -165l-50 45l178 165l-178 163l50 46l177 -165l180 165l49 -46l-178 -163z" />
    <glyph glyph-name="Oslash" unicode="&#xd8;" horiz-adv-x="561" 
d="M84 -67l387 868l18 -8l-387 -868zM280 -20q-61 0 -107.5 27.5t-78 78.5t-47.5 122.5t-16 159.5q0 87 16.5 157.5t48.5 120t78.5 76t105.5 26.5q60 0 106.5 -26.5t78.5 -76t48.5 -120t16.5 -157.5q0 -88 -16.5 -159.5t-48.5 -122.5t-78.5 -78.5t-106.5 -27.5zM280 663
q-42 0 -70 -25t-45.5 -66.5t-24.5 -94.5t-7 -109t7 -110.5t24 -97t45.5 -69t70.5 -26.5t70.5 26.5t45.5 69.5t24 97t7 110q0 55 -7 108.5t-24.5 94.5t-45.5 66.5t-70 25.5z" />
    <glyph glyph-name="Ugrave" unicode="&#xd9;" horiz-adv-x="553" 
d="M274 -20q-41 0 -77.5 16t-64.5 47t-44 77t-16 106v502h97v-526q0 -33 8.5 -58.5t23 -43t33.5 -26.5t40 -9q20 0 40 8.5t36 26t26 43t10 59.5v526h97v-502q0 -62 -17.5 -108t-46.5 -76.5t-66.5 -46t-78.5 -15.5zM331 783h-40l-78 156h85z" />
    <glyph glyph-name="Uacute" unicode="&#xda;" horiz-adv-x="553" 
d="M274 -20q-41 0 -77.5 16t-64.5 47t-44 77t-16 106v502h97v-526q0 -33 8.5 -58.5t23 -43t33.5 -26.5t40 -9q20 0 40 8.5t36 26t26 43t10 59.5v526h97v-502q0 -62 -17.5 -108t-46.5 -76.5t-66.5 -46t-78.5 -15.5zM280 939h85l-78 -156h-40z" />
    <glyph glyph-name="Ucircumflex" unicode="&#xdb;" horiz-adv-x="553" 
d="M274 -20q-41 0 -77.5 16t-64.5 47t-44 77t-16 106v502h97v-526q0 -33 8.5 -58.5t23 -43t33.5 -26.5t40 -9q20 0 40 8.5t36 26t26 43t10 59.5v526h97v-502q0 -62 -17.5 -108t-46.5 -76.5t-66.5 -46t-78.5 -15.5zM416 783h-35l-96 95l-96 -95h-35l88 148h85l89 -148v0z" />
    <glyph glyph-name="Udieresis" unicode="&#xdc;" horiz-adv-x="553" 
d="M274 -20q-41 0 -77.5 16t-64.5 47t-44 77t-16 106v502h97v-526q0 -33 8.5 -58.5t23 -43t33.5 -26.5t40 -9q20 0 40 8.5t36 26t26 43t10 59.5v526h97v-502q0 -62 -17.5 -108t-46.5 -76.5t-66.5 -46t-78.5 -15.5zM248 824q0 -16 -12.5 -28t-30.5 -12t-30 12t-12 28
q0 17 12 29t30 12t30.5 -12t12.5 -29zM403 824q0 -16 -12.5 -28t-29.5 -12q-18 0 -30.5 12t-12.5 28q0 17 12.5 29t30.5 12q17 0 29.5 -12t12.5 -29z" />
    <glyph glyph-name="germandbls" unicode="&#xdf;" horiz-adv-x="584" 
d="M88 527q0 48 16 85.5t45 63.5t68 40t86 14q39 0 76.5 -11.5t67 -34t47 -55t17.5 -74.5q0 -25 -6 -51.5t-19 -50.5t-32 -42t-45 -26v-3q31 -5 56.5 -19t42.5 -35.5t26.5 -48.5t9.5 -56q0 -51 -16 -94t-45 -73.5t-70.5 -47.5t-93.5 -17q-10 0 -22.5 0.5t-24.5 1.5v70
q6 -1 13 -1h17q49 0 78 15.5t44.5 39.5t20 53.5t4.5 57.5q0 41 -17 62.5t-45 38.5q-23 14 -53 20t-61 6v53q29 1 55.5 9.5t43.5 22.5q20 17 32 44.5t12 60.5q0 114 -115 114q-20 0 -40.5 -6t-37.5 -22t-28 -44.5t-11 -72.5v-514h-96v527z" />
    <glyph glyph-name="agrave" unicode="&#xe0;" horiz-adv-x="425" 
d="M257 43q-20 -31 -41.5 -42t-53.5 -11q-29 0 -55 9t-45.5 28.5t-30.5 51.5t-11 77q0 49 16.5 83t42.5 55.5t57.5 30.5t60.5 9l60 -1q0 37 -6 61t-16.5 38t-25 19.5t-31.5 5.5q-31 0 -60 -20t-57 -49l-4 91q31 25 63.5 39.5t68.5 14.5q81 0 119.5 -51t38.5 -165v-317h-90
v43zM257 261h-31q-15 0 -35 -5.5t-38 -18.5t-30.5 -33.5t-12.5 -50.5q0 -19 5.5 -35t13.5 -27.5t18.5 -18t20.5 -6.5q22 0 38.5 11t27.5 28.5t17 38t6 38.5v79zM276 583h-40l-78 156h85z" />
    <glyph glyph-name="aacute" unicode="&#xe1;" horiz-adv-x="425" 
d="M163 739h85l-78 -156h-40zM257 43q-20 -31 -41.5 -42t-53.5 -11q-29 0 -55 9t-45.5 28.5t-30.5 51.5t-11 77q0 49 16.5 83t42.5 55.5t57.5 30.5t60.5 9l60 -1q0 37 -6 61t-16.5 38t-25 19.5t-31.5 5.5q-31 0 -60 -20t-57 -49l-4 91q31 25 63.5 39.5t68.5 14.5
q81 0 119.5 -51t38.5 -165v-317h-90v43zM257 261h-31q-15 0 -35 -5.5t-38 -18.5t-30.5 -33.5t-12.5 -50.5q0 -19 5.5 -35t13.5 -27.5t18.5 -18t20.5 -6.5q22 0 38.5 11t27.5 28.5t17 38t6 38.5v79z" />
    <glyph glyph-name="acircumflex" unicode="&#xe2;" horiz-adv-x="425" 
d="M257 43q-20 -31 -41.5 -42t-53.5 -11q-29 0 -55 9t-45.5 28.5t-30.5 51.5t-11 77q0 49 16.5 83t42.5 55.5t57.5 30.5t60.5 9l60 -1q0 37 -6 61t-16.5 38t-25 19.5t-31.5 5.5q-31 0 -60 -20t-57 -49l-4 91q31 25 63.5 39.5t68.5 14.5q81 0 119.5 -51t38.5 -165v-317h-90
v43zM257 261h-31q-15 0 -35 -5.5t-38 -18.5t-30.5 -33.5t-12.5 -50.5q0 -19 5.5 -35t13.5 -27.5t18.5 -18t20.5 -6.5q22 0 38.5 11t27.5 28.5t17 38t6 38.5v79zM338 583h-35l-96 95l-96 -95h-35l88 148h85l89 -148v0z" />
    <glyph glyph-name="atilde" unicode="&#xe3;" horiz-adv-x="425" 
d="M257 43q-20 -31 -41.5 -42t-53.5 -11q-29 0 -55 9t-45.5 28.5t-30.5 51.5t-11 77q0 49 16.5 83t42.5 55.5t57.5 30.5t60.5 9l60 -1q0 37 -6 61t-16.5 38t-25 19.5t-31.5 5.5q-31 0 -60 -20t-57 -49l-4 91q31 25 63.5 39.5t68.5 14.5q81 0 119.5 -51t38.5 -165v-317h-90
v43zM257 261h-31q-15 0 -35 -5.5t-38 -18.5t-30.5 -33.5t-12.5 -50.5q0 -19 5.5 -35t13.5 -27.5t18.5 -18t20.5 -6.5q22 0 38.5 11t27.5 28.5t17 38t6 38.5v79zM347 693q0 -20 -8 -34t-21 -23t-30 -13t-34 -4q-21 0 -42.5 5t-41.5 13l-11 5.5l-15 7.5t-15.5 6.5t-11.5 2.5
q-31 0 -33 -32h-30q0 19 8 34t21.5 25t30 15.5t34.5 5.5q10 0 23.5 -3t27 -7t27 -8.5t23.5 -7.5q7 -2 20 -6.5t20 -4.5q25 0 26 23h32z" />
    <glyph glyph-name="adieresis" unicode="&#xe4;" horiz-adv-x="425" 
d="M257 43q-20 -31 -41.5 -42t-53.5 -11q-29 0 -55 9t-45.5 28.5t-30.5 51.5t-11 77q0 49 16.5 83t42.5 55.5t57.5 30.5t60.5 9l60 -1q0 37 -6 61t-16.5 38t-25 19.5t-31.5 5.5q-31 0 -60 -20t-57 -49l-4 91q31 25 63.5 39.5t68.5 14.5q81 0 119.5 -51t38.5 -165v-317h-90
v43zM257 261h-31q-15 0 -35 -5.5t-38 -18.5t-30.5 -33.5t-12.5 -50.5q0 -19 5.5 -35t13.5 -27.5t18.5 -18t20.5 -6.5q22 0 38.5 11t27.5 28.5t17 38t6 38.5v79zM172 624q0 -16 -12.5 -28t-30.5 -12t-30 12t-12 28q0 17 12 29t30 12t30.5 -12t12.5 -29zM327 624
q0 -16 -12.5 -28t-29.5 -12q-18 0 -30.5 12t-12.5 28q0 17 12.5 29t30.5 12q17 0 29.5 -12t12.5 -29z" />
    <glyph glyph-name="aring" unicode="&#xe5;" horiz-adv-x="425" 
d="M257 43q-20 -31 -41.5 -42t-53.5 -11q-29 0 -55 9t-45.5 28.5t-30.5 51.5t-11 77q0 49 16.5 83t42.5 55.5t57.5 30.5t60.5 9l60 -1q0 37 -6 61t-16.5 38t-25 19.5t-31.5 5.5q-31 0 -60 -20t-57 -49l-4 91q31 25 63.5 39.5t68.5 14.5q81 0 119.5 -51t38.5 -165v-317h-90
v43zM257 261h-31q-15 0 -35 -5.5t-38 -18.5t-30.5 -33.5t-12.5 -50.5q0 -19 5.5 -35t13.5 -27.5t18.5 -18t20.5 -6.5q22 0 38.5 11t27.5 28.5t17 38t6 38.5v79zM101 663q0 21 8 39t22 32t32 22t39 8q41 0 70.5 -30t29.5 -71t-29.5 -71t-70.5 -30q-21 0 -39 8t-32 21.5
t-22 32t-8 39.5zM146 663q0 -23 16.5 -39t39.5 -16t39 16t16 39t-16 39t-39 16t-39.5 -16t-16.5 -39z" />
    <glyph glyph-name="ae" unicode="&#xe6;" horiz-adv-x="912" 
d="M613 239h-265q1 -37 8 -68t20 -53.5t33 -35t48 -12.5q18 0 37.5 7t39 19t38 28t33.5 33v-92q-15 -14 -33.5 -28t-38.5 -24.5t-40 -17t-39 -6.5q-109 0 -157 87l-30 -33q-24 -27 -48.5 -40t-56.5 -13q-29 0 -55 9t-45.5 28.5t-30.5 51.5t-11 77q0 49 16.5 83t42.5 55.5
t57.5 30.5t60.5 9l60 -1q0 37 -6 61t-16.5 38t-25 19.5t-31.5 5.5q-31 0 -60 -20t-57 -49l-4 91q31 25 63.5 39.5t68.5 14.5q89 0 127 -63q48 63 127 63q81 0 125.5 -62.5t44.5 -173.5v-58zM257 261h-31q-15 0 -35 -5.5t-38 -18.5t-30.5 -33.5t-12.5 -50.5q0 -19 5.5 -35
t13.5 -27.5t18.5 -18t20.5 -6.5q22 0 38.5 11t27.5 28.5t17 38t6 38.5v79zM532 325q-2 27 -7.5 51.5t-16 42.5t-26 28.5t-36.5 10.5t-37 -11t-27.5 -30t-19 -43t-10.5 -49h180z" />
    <glyph glyph-name="ccedilla" unicode="&#xe7;" horiz-adv-x="388" 
d="M331 48q-30 -28 -58.5 -43.5t-65.5 -15.5q-41 0 -74.5 18t-58 53t-38 86.5t-13.5 119.5q0 127 49.5 196t134.5 71q35 1 66 -15.5t58 -43.5v-91q-29 31 -61.5 48.5t-64.5 17.5q-21 0 -38 -15.5t-29 -41t-18.5 -58.5t-6.5 -68t5 -69.5t16 -62.5t28.5 -45t42.5 -17
q34 0 64 17.5t62 49.5v-91zM274 -80q0 -53 -72 -53q-30 0 -73 12l-1 27q46 -10 73 -10q31 0 31 22q0 27 -52 23v54h22v-28q72 0 72 -47z" />
    <glyph glyph-name="egrave" unicode="&#xe8;" horiz-adv-x="442" 
d="M275 583h-40l-78 156h85zM377 239h-265q1 -37 8 -68t20 -53.5t33 -35t48 -12.5q18 0 37.5 7t39 19t38 28t33.5 33v-92q-15 -14 -33.5 -28t-38.5 -24.5t-40 -17t-39 -6.5q-95 0 -145 67.5t-50 201.5q0 131 49.5 203t134.5 72q81 0 125.5 -62.5t44.5 -173.5v-58zM296 325
q-2 27 -7.5 51.5t-16 42.5t-26 28.5t-36.5 10.5t-37 -11t-27.5 -30t-19 -43t-10.5 -49h180z" />
    <glyph glyph-name="eacute" unicode="&#xe9;" horiz-adv-x="442" 
d="M377 239h-265q1 -37 8 -68t20 -53.5t33 -35t48 -12.5q18 0 37.5 7t39 19t38 28t33.5 33v-92q-15 -14 -33.5 -28t-38.5 -24.5t-40 -17t-39 -6.5q-95 0 -145 67.5t-50 201.5q0 131 49.5 203t134.5 72q81 0 125.5 -62.5t44.5 -173.5v-58zM296 325q-2 27 -7.5 51.5t-16 42.5
t-26 28.5t-36.5 10.5t-37 -11t-27.5 -30t-19 -43t-10.5 -49h180zM171 739h85l-78 -156h-40z" />
    <glyph glyph-name="ecircumflex" unicode="&#xea;" horiz-adv-x="442" 
d="M338 583h-35l-96 95l-96 -95h-35l88 148h85l89 -148v0zM377 239h-265q1 -37 8 -68t20 -53.5t33 -35t48 -12.5q18 0 37.5 7t39 19t38 28t33.5 33v-92q-15 -14 -33.5 -28t-38.5 -24.5t-40 -17t-39 -6.5q-95 0 -145 67.5t-50 201.5q0 131 49.5 203t134.5 72
q81 0 125.5 -62.5t44.5 -173.5v-58zM296 325q-2 27 -7.5 51.5t-16 42.5t-26 28.5t-36.5 10.5t-37 -11t-27.5 -30t-19 -43t-10.5 -49h180z" />
    <glyph glyph-name="edieresis" unicode="&#xeb;" horiz-adv-x="442" 
d="M377 239h-265q1 -37 8 -68t20 -53.5t33 -35t48 -12.5q18 0 37.5 7t39 19t38 28t33.5 33v-92q-15 -14 -33.5 -28t-38.5 -24.5t-40 -17t-39 -6.5q-95 0 -145 67.5t-50 201.5q0 131 49.5 203t134.5 72q81 0 125.5 -62.5t44.5 -173.5v-58zM296 325q-2 27 -7.5 51.5t-16 42.5
t-26 28.5t-36.5 10.5t-37 -11t-27.5 -30t-19 -43t-10.5 -49h180zM170 624q0 -16 -12.5 -28t-30.5 -12t-30 12t-12 28q0 17 12 29t30 12t30.5 -12t12.5 -29zM325 624q0 -16 -12.5 -28t-29.5 -12q-18 0 -30.5 12t-12.5 28q0 17 12.5 29t30.5 12q17 0 29.5 -12t12.5 -29z" />
    <glyph glyph-name="igrave" unicode="&#xec;" horiz-adv-x="218" 
d="M168 583h-40l-78 156h85zM164 523v-523h-88v523h88z" />
    <glyph glyph-name="iacute" unicode="&#xed;" horiz-adv-x="218" 
d="M97 739h85l-78 -156h-40zM164 523v-523h-88v523h88z" />
    <glyph glyph-name="icircumflex" unicode="&#xee;" horiz-adv-x="218" 
d="M252 583h-35l-96 95l-96 -95h-35l88 148h85l89 -148v0zM164 523v-523h-88v523h88z" />
    <glyph glyph-name="idieresis" unicode="&#xef;" horiz-adv-x="218" 
d="M164 523v-523h-88v523h88zM86 624q0 -16 -12.5 -28t-30.5 -12t-30 12t-12 28q0 17 12 29t30 12t30.5 -12t12.5 -29zM241 624q0 -16 -12.5 -28t-29.5 -12q-18 0 -30.5 12t-12.5 28q0 17 12.5 29t30.5 12q17 0 29.5 -12t12.5 -29z" />
    <glyph glyph-name="ntilde" unicode="&#xf1;" horiz-adv-x="451" 
d="M153 489q21 24 46.5 34t53.5 10q24 0 49 -8.5t45.5 -26.5t33 -46.5t12.5 -67.5v-384h-90v376q0 33 -16.5 54t-36.5 21q-26 0 -52 -22t-40 -59q-2 -4 -3.5 -10t-1.5 -8v-352h-90v525h90v-36zM367 703q0 -20 -8 -34t-21 -23t-30 -13t-34 -4q-21 0 -42.5 5t-41.5 13l-11 5.5
l-15 7.5t-15.5 6.5t-11.5 2.5q-31 0 -33 -32h-30q0 19 8 34t21.5 25t30 15.5t34.5 5.5q10 0 23.5 -3t27 -7t27 -8.5t23.5 -7.5q7 -2 20 -6.5t20 -4.5q25 0 26 23h32z" />
    <glyph glyph-name="ograve" unicode="&#xf2;" horiz-adv-x="448" 
d="M283 583h-40l-78 156h85zM228 449q-24 0 -41.5 -17.5t-29.5 -45.5t-18 -61.5t-6 -65.5q0 -21 4 -53t14.5 -62t29 -51t46.5 -21q25 0 43 16t29.5 42.5t16.5 60t5 68.5q0 30 -6 63.5t-18 61.5t-29.5 46.5t-39.5 18.5zM43 261q0 63 13 113.5t37 86t58 54t76 18.5
q41 0 75 -18.5t58 -54t37.5 -86t13.5 -113.5t-13.5 -113t-37.5 -85.5t-58 -54t-75 -18.5q-42 0 -76 18.5t-58 54t-37 85.5t-13 113z" />
    <glyph glyph-name="oacute" unicode="&#xf3;" horiz-adv-x="448" 
d="M191 739h85l-78 -156h-40zM228 449q-24 0 -41.5 -17.5t-29.5 -45.5t-18 -61.5t-6 -65.5q0 -21 4 -53t14.5 -62t29 -51t46.5 -21q25 0 43 16t29.5 42.5t16.5 60t5 68.5q0 30 -6 63.5t-18 61.5t-29.5 46.5t-39.5 18.5zM43 261q0 63 13 113.5t37 86t58 54t76 18.5
q41 0 75 -18.5t58 -54t37.5 -86t13.5 -113.5t-13.5 -113t-37.5 -85.5t-58 -54t-75 -18.5q-42 0 -76 18.5t-58 54t-37 85.5t-13 113z" />
    <glyph glyph-name="ocircumflex" unicode="&#xf4;" horiz-adv-x="448" 
d="M338 583h-35l-96 95l-96 -95h-35l88 148h85l89 -148v0zM228 449q-24 0 -41.5 -17.5t-29.5 -45.5t-18 -61.5t-6 -65.5q0 -21 4 -53t14.5 -62t29 -51t46.5 -21q25 0 43 16t29.5 42.5t16.5 60t5 68.5q0 30 -6 63.5t-18 61.5t-29.5 46.5t-39.5 18.5zM43 261q0 63 13 113.5
t37 86t58 54t76 18.5q41 0 75 -18.5t58 -54t37.5 -86t13.5 -113.5t-13.5 -113t-37.5 -85.5t-58 -54t-75 -18.5q-42 0 -76 18.5t-58 54t-37 85.5t-13 113z" />
    <glyph glyph-name="otilde" unicode="&#xf5;" horiz-adv-x="448" 
d="M228 449q-24 0 -41.5 -17.5t-29.5 -45.5t-18 -61.5t-6 -65.5q0 -21 4 -53t14.5 -62t29 -51t46.5 -21q25 0 43 16t29.5 42.5t16.5 60t5 68.5q0 30 -6 63.5t-18 61.5t-29.5 46.5t-39.5 18.5zM43 261q0 63 13 113.5t37 86t58 54t76 18.5q41 0 75 -18.5t58 -54t37.5 -86
t13.5 -113.5t-13.5 -113t-37.5 -85.5t-58 -54t-75 -18.5q-42 0 -76 18.5t-58 54t-37 85.5t-13 113zM352 693q0 -20 -8 -34t-21 -23t-30 -13t-34 -4q-21 0 -42.5 5t-41.5 13l-11 5.5l-15 7.5t-15.5 6.5t-11.5 2.5q-31 0 -33 -32h-30q0 19 8 34t21.5 25t30 15.5t34.5 5.5
q10 0 23.5 -3t27 -7t27 -8.5t23.5 -7.5q7 -2 20 -6.5t20 -4.5q25 0 26 23h32z" />
    <glyph glyph-name="odieresis" unicode="&#xf6;" horiz-adv-x="448" 
d="M228 449q-24 0 -41.5 -17.5t-29.5 -45.5t-18 -61.5t-6 -65.5q0 -21 4 -53t14.5 -62t29 -51t46.5 -21q25 0 43 16t29.5 42.5t16.5 60t5 68.5q0 30 -6 63.5t-18 61.5t-29.5 46.5t-39.5 18.5zM43 261q0 63 13 113.5t37 86t58 54t76 18.5q41 0 75 -18.5t58 -54t37.5 -86
t13.5 -113.5t-13.5 -113t-37.5 -85.5t-58 -54t-75 -18.5q-42 0 -76 18.5t-58 54t-37 85.5t-13 113zM169 624q0 -16 -12.5 -28t-30.5 -12t-30 12t-12 28q0 17 12 29t30 12t30.5 -12t12.5 -29zM324 624q0 -16 -12.5 -28t-29.5 -12q-18 0 -30.5 12t-12.5 28q0 17 12.5 29
t30.5 12q17 0 29.5 -12t12.5 -29z" />
    <glyph glyph-name="divide" unicode="&#xf7;" horiz-adv-x="468" 
d="M312 471q0 -28 -21 -47.5t-52 -19.5t-52.5 19.5t-21.5 47.5q0 29 21.5 48.5t52.5 19.5t52 -19.5t21 -48.5zM411 276h-346v71h346v-71zM312 142q0 -28 -21.5 -48t-51.5 -20t-52 20t-22 48q0 29 21.5 48.5t52.5 19.5t52 -19.5t21 -48.5z" />
    <glyph glyph-name="oslash" unicode="&#xf8;" horiz-adv-x="448" 
d="M60 -49l296 640l18 -8l-296 -640zM228 449q-24 0 -41.5 -17.5t-29.5 -45.5t-18 -61.5t-6 -65.5q0 -21 4 -53t14.5 -62t29 -51t46.5 -21q25 0 43 16t29.5 42.5t16.5 60t5 68.5q0 30 -6 63.5t-18 61.5t-29.5 46.5t-39.5 18.5zM43 261q0 63 13 113.5t37 86t58 54t76 18.5
q41 0 75 -18.5t58 -54t37.5 -86t13.5 -113.5t-13.5 -113t-37.5 -85.5t-58 -54t-75 -18.5q-42 0 -76 18.5t-58 54t-37 85.5t-13 113z" />
    <glyph glyph-name="ugrave" unicode="&#xf9;" horiz-adv-x="451" 
d="M276 583h-40l-78 156h85zM303 34q-21 -24 -46.5 -34t-53.5 -10q-24 0 -49 8.5t-45 26.5t-33 46t-13 68v386h90v-378q0 -31 15.5 -53.5t35.5 -22.5q26 0 52.5 22t40.5 57q1 3 3.5 11t2.5 10v354h90v-525h-90v34z" />
    <glyph glyph-name="uacute" unicode="&#xfa;" horiz-adv-x="451" 
d="M231 739h85l-78 -156h-40zM303 34q-21 -24 -46.5 -34t-53.5 -10q-24 0 -49 8.5t-45 26.5t-33 46t-13 68v386h90v-378q0 -31 15.5 -53.5t35.5 -22.5q26 0 52.5 22t40.5 57q1 3 3.5 11t2.5 10v354h90v-525h-90v34z" />
    <glyph glyph-name="ucircumflex" unicode="&#xfb;" horiz-adv-x="451" 
d="M367 583h-35l-96 95l-96 -95h-35l88 148h85l89 -148v0zM303 34q-21 -24 -46.5 -34t-53.5 -10q-24 0 -49 8.5t-45 26.5t-33 46t-13 68v386h90v-378q0 -31 15.5 -53.5t35.5 -22.5q26 0 52.5 22t40.5 57q1 3 3.5 11t2.5 10v354h90v-525h-90v34z" />
    <glyph glyph-name="udieresis" unicode="&#xfc;" horiz-adv-x="451" 
d="M303 34q-21 -24 -46.5 -34t-53.5 -10q-24 0 -49 8.5t-45 26.5t-33 46t-13 68v386h90v-378q0 -31 15.5 -53.5t35.5 -22.5q26 0 52.5 22t40.5 57q1 3 3.5 11t2.5 10v354h90v-525h-90v34zM191 624q0 -16 -12.5 -28t-30.5 -12t-30 12t-12 28q0 17 12 29t30 12t30.5 -12
t12.5 -29zM346 624q0 -16 -12.5 -28t-29.5 -12q-18 0 -30.5 12t-12.5 28q0 17 12.5 29t30.5 12q17 0 29.5 -12t12.5 -29z" />
    <glyph glyph-name="ydieresis" unicode="&#xff;" horiz-adv-x="376" 
d="M180 154l84 371h99l-166 -628q-6 -22 -15 -43.5t-21 -38.5t-27.5 -27.5t-34.5 -10.5q-31 0 -56 17v106q12 -12 22.5 -15.5t26.5 -3.5q6 0 10.5 6.5t8.5 16.5t6 20.5t4 18.5l13 62q-33 129 -68.5 260t-68.5 260h99zM143 624q0 -16 -12.5 -28t-30.5 -12t-30 12t-12 28
q0 17 12 29t30 12t30.5 -12t12.5 -29zM298 624q0 -16 -12.5 -28t-29.5 -12q-18 0 -30.5 12t-12.5 28q0 17 12.5 29t30.5 12q17 0 29.5 -12t12.5 -29z" />
    <glyph glyph-name="dotlessi" unicode="&#x131;" horiz-adv-x="218" 
d="M164 523v-523h-88v523h88z" />
    <glyph glyph-name="Lslash" unicode="&#x141;" horiz-adv-x="429" 
d="M16 193l202 204l-13 13l-202 -204zM79 728h97v-654h246v-74h-343v728z" />
    <glyph glyph-name="lslash" unicode="&#x142;" horiz-adv-x="272" 
d="M16 193l202 204l-13 13l-202 -204zM87 728h97v-728h-97v728z" />
    <glyph glyph-name="OE" unicode="&#x152;" horiz-adv-x="1198" 
d="M280 -20q-61 0 -107.5 27.5t-78 78.5t-47.5 122.5t-16 159.5q0 87 16.5 157.5t48.5 120t78.5 76t105.5 26.5q60 0 106.5 -26.5t78.5 -76t48.5 -120t16.5 -157.5q0 -88 -16.5 -159.5t-48.5 -122.5t-78.5 -78.5t-106.5 -27.5zM280 663q-42 0 -70 -25t-45.5 -66.5
t-24.5 -94.5t-7 -109t7 -110.5t24 -97t45.5 -69t70.5 -26.5t70.5 26.5t45.5 69.5t24 97t7 110q0 55 -7 108.5t-24.5 94.5t-45.5 66.5t-70 25.5zM445 728h372v-75h-275v-239h259v-75h-259v-265h287v-74h-384v728z" />
    <glyph glyph-name="oe" unicode="&#x153;" horiz-adv-x="703" 
d="M228 449q-24 0 -41.5 -17.5t-29.5 -45.5t-18 -61.5t-6 -65.5q0 -21 4 -53t14.5 -62t29 -51t46.5 -21q25 0 43 16t29.5 42.5t16.5 60t5 68.5q0 30 -6 63.5t-18 61.5t-29.5 46.5t-39.5 18.5zM43 261q0 63 13 113.5t37 86t58 54t76 18.5q41 0 75 -18.5t58 -54t37.5 -86
t13.5 -113.5t-13.5 -113t-37.5 -85.5t-58 -54t-75 -18.5q-42 0 -76 18.5t-58 54t-37 85.5t-13 113zM655 239h-265q1 -37 8 -68t20 -53.5t33 -35t48 -12.5q18 0 37.5 7t39 19t38 28t33.5 33v-92q-15 -14 -33.5 -28t-38.5 -24.5t-40 -17t-39 -6.5q-95 0 -145 67.5t-50 201.5
q0 131 49.5 203t134.5 72q81 0 125.5 -62.5t44.5 -173.5v-58zM574 325q-2 27 -7.5 51.5t-16 42.5t-26 28.5t-36.5 10.5t-37 -11t-27.5 -30t-19 -43t-10.5 -49h180z" />
    <glyph glyph-name="Scaron" unicode="&#x160;" horiz-adv-x="449" 
d="M217 -19q-56 0 -102.5 15t-96.5 48v122q45 -48 96 -74t104 -26q16 0 36.5 8t38 24.5t29.5 41.5t12 58q0 30 -12 49.5t-30.5 33t-41.5 22t-45 16.5q-43 15 -77 32t-58 41t-36.5 57.5t-12.5 80.5q0 55 17.5 96t46 68t64.5 40t73 13q52 0 97 -14t93 -41v-113
q-45 46 -91.5 67t-98.5 21q-15 0 -33 -9.5t-33.5 -26.5t-26 -40.5t-10.5 -52.5q0 -31 10 -51t26.5 -32.5t37.5 -21t42 -15.5q44 -16 80 -31t62 -37t40 -54.5t14 -83.5q0 -47 -14.5 -89.5t-40.5 -72.5q-34 -38 -74.5 -53.5t-84.5 -15.5zM187 783l-88 148h35l96 -94l96 94h35
l-89 -148h-85v0z" />
    <glyph glyph-name="scaron" unicode="&#x161;" horiz-adv-x="374" 
d="M171 -10q-38 0 -72.5 12.5t-70.5 33.5v117q16 -15 34 -29.5t37.5 -26.5t39 -19t37.5 -7q10 0 22 2.5t22.5 10t18 20t7.5 32.5q0 42 -23 60.5t-61 32.5q-21 8 -44.5 19t-43 27.5t-32 39t-12.5 53.5q0 45 14.5 76t37.5 50.5t51.5 29t55.5 9.5q34 0 68.5 -12t64.5 -32v-98
q-32 28 -62 45.5t-76 17.5q-9 0 -20 -5t-21 -15t-16.5 -23.5t-6.5 -31.5q0 -19 9.5 -33.5t23.5 -25t30 -18t29 -11.5q36 -12 59.5 -25t38 -29.5t20.5 -38.5t6 -50q0 -46 -15.5 -76.5t-39.5 -48.5t-53 -25.5t-57 -7.5zM138 583l-88 148h35l96 -94l96 94h35l-89 -148h-85v0z
" />
    <glyph glyph-name="Zcaron" unicode="&#x17d;" horiz-adv-x="447" 
d="M422 74v-74h-413v84l316 569h-295v75h392v-94l-310 -560h310zM171 783l-88 148h35l96 -94l96 94h35l-89 -148h-85v0z" />
    <glyph glyph-name="zcaron" unicode="&#x17e;" 
d="M350 76v-76h-330v91l231 360h-218v72h310v-91l-234 -356h241zM147 583l-88 148h35l96 -94l96 94h35l-89 -148h-85v0z" />
    <glyph glyph-name="circumflex" unicode="&#x2c6;" horiz-adv-x="262" 
d="M262 783h-35l-96 95l-96 -95h-35l88 148h85l89 -148v0z" />
    <glyph glyph-name="caron" unicode="&#x2c7;" horiz-adv-x="297" 
d="M107 783l-88 148h35l96 -94l96 94h35l-89 -148h-85v0z" />
    <glyph glyph-name="ring" unicode="&#x2da;" horiz-adv-x="180" 
d="M-10 833q0 21 8 39t22 32t32 22t39 8q41 0 70.5 -30t29.5 -71t-29.5 -71t-70.5 -30q-21 0 -39 8t-32 21.5t-22 32t-8 39.5zM35 833q0 -23 16.5 -39t39.5 -16t39 16t16 39t-16 39t-39 16t-39.5 -16t-16.5 -39z" />
    <glyph glyph-name="ogonek" unicode="&#x2db;" horiz-adv-x="369" 
d="M229 -133h-26q-26 0 -46.5 10t-20.5 41q0 12 5.5 24t14 22.5t18 19.5t18.5 16h25q-13 -12 -27.5 -29.5t-14.5 -36.5q0 -11 5.5 -16t14 -6.5t17.5 -1t17 0.5v-44z" />
    <glyph glyph-name="tilde" unicode="&#x2dc;" horiz-adv-x="375" 
d="M325 873q0 -20 -8 -34t-21 -23t-30 -13t-34 -4q-21 0 -42.5 5t-41.5 13l-11 5.5l-15 7.5t-15.5 6.5t-11.5 2.5q-31 0 -33 -32h-30q0 19 8 34t21.5 25t30 15.5t34.5 5.5q10 0 23.5 -3t27 -7t27 -8.5t23.5 -7.5q7 -2 20 -6.5t20 -4.5q25 0 26 23h32z" />
    <glyph glyph-name="hungarumlaut" unicode="&#x2dd;" horiz-adv-x="308" 
d="M60 939h85l-78 -156h-40zM190 939h85l-78 -156h-40z" />
    <glyph glyph-name="sheva" unicode="&#x5b0;" horiz-adv-x="397" 
d="M380 263q0 -74 -53 -129q-53 -53 -127 -53t-129 53q-53 53 -53 129q0 74 53 127q55 52 129 52t127 -53t53 -126z" />
    <glyph glyph-name="hataf_segol" unicode="&#x5b1;" horiz-adv-x="397" 
d="M380 263q0 -74 -53 -129q-53 -53 -127 -53t-129 53q-53 53 -53 129q0 74 53 127q55 52 129 52t127 -53t53 -126z" />
    <glyph glyph-name="hataf_patah" unicode="&#x5b2;" horiz-adv-x="397" 
d="M380 263q0 -74 -53 -129q-53 -53 -127 -53t-129 53q-53 53 -53 129q0 74 53 127q55 52 129 52t127 -53t53 -126z" />
    <glyph glyph-name="hataf_qamats" unicode="&#x5b3;" horiz-adv-x="0" 
d="M342 263q0 -74 -53 -129q-53 -53 -127 -53t-129 53q-53 53 -53 129q0 74 53 127q55 52 129 52t127 -53t53 -126z" />
    <glyph glyph-name="hiriq" unicode="&#x5b4;" horiz-adv-x="417" 
d="M381 263q0 -74 -53 -129q-53 -53 -127 -53t-129 53q-53 53 -53 129q0 74 53 127q53 52 129 52q74 0 127 -53t53 -126z" />
    <glyph glyph-name="tsere" unicode="&#x5b5;" horiz-adv-x="397" 
d="M380 263q0 -74 -53 -129q-53 -53 -127 -53t-129 53q-53 53 -53 129q0 74 53 127q55 52 129 52t127 -53t53 -126z" />
    <glyph glyph-name="segol" unicode="&#x5b6;" horiz-adv-x="397" 
d="M380 263q0 -74 -53 -129q-53 -53 -127 -53t-129 53q-53 53 -53 129q0 74 53 127q55 52 129 52t127 -53t53 -126z" />
    <glyph glyph-name="patah" unicode="&#x5b7;" horiz-adv-x="397" 
d="M380 263q0 -74 -53 -129q-53 -53 -127 -53t-129 53q-53 53 -53 129q0 74 53 127q55 52 129 52t127 -53t53 -126z" />
    <glyph glyph-name="qamats" unicode="&#x5b8;" horiz-adv-x="397" 
d="M380 263q0 -74 -53 -129q-53 -53 -127 -53t-129 53q-53 53 -53 129q0 74 53 127q55 52 129 52t127 -53t53 -126z" />
    <glyph glyph-name="holam" unicode="&#x5b9;" horiz-adv-x="0" 
d="M42 630q0 -18 -12 -30t-30 -12t-30 12t-12 30t12 30.5t30 12.5t30 -12.5t12 -30.5z" />
    <glyph glyph-name="qubuts" unicode="&#x5bb;" horiz-adv-x="417" 
d="M381 263q0 -74 -53 -129q-53 -53 -127 -53t-129 53q-53 53 -53 129q0 74 53 127q53 52 129 52q74 0 127 -53t53 -126z" />
    <glyph glyph-name="dagesh" unicode="&#x5bc;" horiz-adv-x="0" 
d="M-38 224v79h76v-79h-76z" />
    <glyph glyph-name="meteg" unicode="&#x5bd;" horiz-adv-x="1" 
d="M15 -229h-30v141h30v-141z" />
    <glyph glyph-name="maqaf" unicode="&#x5be;" horiz-adv-x="449" 
d="M47 454v71h357v-71h-357z" />
    <glyph glyph-name="rafe" unicode="&#x5bf;" horiz-adv-x="1" 
d="M112 623h-224v48h224v-48z" />
    <glyph glyph-name="pasek" unicode="&#x5c0;" horiz-adv-x="149" 
d="M96 -4h-43v506h43v-506z" />
    <glyph glyph-name="shindot" unicode="&#x5c1;" horiz-adv-x="0" 
d="M42 630q0 -18 -12 -30t-30 -12t-30 12t-12 30t12 30.5t30 12.5t30 -12.5t12 -30.5z" />
    <glyph glyph-name="sindot" unicode="&#x5c2;" horiz-adv-x="0" 
d="M42 630q0 -18 -12 -30t-30 -12t-30 12t-12 30t12 30.5t30 12.5t30 -12.5t12 -30.5z" />
    <glyph glyph-name="sof_pasuk" unicode="&#x5c3;" horiz-adv-x="256" 
d="M187 363q0 -26 -19 -45.5t-45 -19.5q-27 0 -46.5 19t-19.5 46t19.5 46t46.5 19q26 0 45 -19t19 -46zM187 50q0 -27 -19 -46.5t-45 -19.5q-27 0 -46.5 19t-19.5 47q0 26 19.5 45t46.5 19q26 0 45 -19t19 -45z" />
    <glyph glyph-name="upper_dot" unicode="&#x5c4;" horiz-adv-x="1" 
d="M40 545h-79v78h79v-78z" />
    <glyph glyph-name="lower_dot" unicode="&#x5c5;" horiz-adv-x="1" 
d="M39 -372h-79v78h79v-78z" />
    <glyph glyph-name="alef" unicode="&#x5d0;" horiz-adv-x="446" 
d="M316 0q-19 44 -38 87t-39 87q-11 24 -22.5 49t-25.5 48q-12 1 -19.5 -13t-11.5 -32.5t-5.5 -36.5t-1.5 -25q-3 -41 -5.5 -81.5t-4.5 -82.5h-89q2 45 4.5 90t5.5 91q1 18 5 38t11.5 38t18.5 33.5t28 26.5q8 5 16 8t17 3q-32 48 -63 97.5t-62 99.5h105q32 -49 61.5 -99
t55.5 -102q12 0 19 14t11.5 32t6.5 36t3 25l13 94h85q-4 -32 -7.5 -64t-7.5 -64q-2 -18 -8.5 -40.5t-17.5 -43t-27.5 -34.5t-39.5 -14q15 -26 27.5 -52.5t25.5 -53.5q18 -39 36 -79t35 -80h-95z" />
    <glyph glyph-name="bet" unicode="&#x5d1;" horiz-adv-x="356" 
d="M32 0v75h158v375h-158v75h248v-450h44v-75h-292z" />
    <glyph glyph-name="gimel" unicode="&#x5d2;" horiz-adv-x="301" 
d="M167 0l-7 144h-6q-6 -24 -14.5 -51.5t-23 -51.5t-35.5 -40t-51 -16v94q22 0 43.5 22.5t37.5 53t26 62t10 50.5q0 46 -2 91.5t-4 91.5h-94v75h178q5 -132 9.5 -262.5t15.5 -262.5h-83z" />
    <glyph glyph-name="dalet" unicode="&#x5d3;" horiz-adv-x="355" 
d="M278 450v-450h-89v450h-164v75h298v-75h-45z" />
    <glyph glyph-name="he" unicode="&#x5d4;" horiz-adv-x="432" 
d="M281 0v450h-228v75h319v-525h-91zM58 0v330h90v-330h-90z" />
    <glyph glyph-name="vav" unicode="&#x5d5;" horiz-adv-x="241" 
d="M91 0v450h-63v75h154v-525h-91z" />
    <glyph glyph-name="zayin" unicode="&#x5d6;" horiz-adv-x="269" 
d="M215 450q-18 0 -27 -15.5t-13.5 -36.5t-5 -42.5t-0.5 -32.5v-323h-90v315q0 18 4 38t12 38.5t20 34t29 24.5h-106v75h199v-75h-22z" />
    <glyph glyph-name="het" unicode="&#x5d7;" horiz-adv-x="436" 
d="M291 0v363q0 17 -3.5 33t-11.5 28t-21 19t-33 7h-72v-450h-90v525h160q84 0 123 -40.5t39 -123.5v-361h-91z" />
    <glyph glyph-name="tet" unicode="&#x5d8;" horiz-adv-x="432" 
d="M392 322q0 -42 -8 -97.5t-28 -105.5t-56 -84.5t-91 -34.5h-131l-28 525h89l23 -450h41q22 0 38 14t27 36.5t18 50.5t11 55.5t5.5 51.5t1.5 39q0 14 -0.5 37t-5 44.5t-15 37.5t-31.5 16q-10 0 -22.5 -5t-18.5 -13v80q10 8 28 11t29 3q43 0 68 -20.5t37.5 -52t15.5 -68.5
t3 -70z" />
    <glyph glyph-name="yod" unicode="&#x5d9;" horiz-adv-x="240" 
d="M92 242v208h-64v75h154v-283h-90z" />
    <glyph glyph-name="final_kaf" unicode="&#x5da;" horiz-adv-x="344" 
d="M193 -160v610h-168v75h259v-685h-91z" />
    <glyph glyph-name="kaf" unicode="&#x5db;" horiz-adv-x="344" 
d="M294 168q0 -37 -9 -67.5t-27.5 -53t-46.5 -35t-67 -12.5h-112v75h113q19 0 31 9t18 22.5t8 30t2 31.5v195q0 15 -2.5 30.5t-9 28t-18 20.5t-29.5 8h-113v75h112q78 0 114 -44.5t36 -119.5v-193v0z" />
    <glyph glyph-name="lamed" unicode="&#x5dc;" horiz-adv-x="347" 
d="M188 0h-88l118 450h-190v222h89v-147h211z" />
    <glyph glyph-name="final_mem" unicode="&#x5dd;" horiz-adv-x="447" 
d="M60 0v525h181q78 0 114.5 -44.5t36.5 -118.5v-362h-332zM303 357q0 15 -2.5 31t-9 30t-18.5 23t-30 9h-93v-375h153v282z" />
    <glyph glyph-name="mem" unicode="&#x5de;" horiz-adv-x="451" 
d="M210 0v75h96v295q0 15 -1.5 29.5t-6.5 26t-16 18t-29 6.5h-64l-48 -450h-89l48 450h-64v75h221q45 0 72.5 -13.5t42 -37t19.5 -56t5 -71.5v-347h-186z" />
    <glyph glyph-name="final_nun" unicode="&#x5df;" horiz-adv-x="242" 
d="M92 -160v610h-64v75h154v-685h-90z" />
    <glyph glyph-name="nun" unicode="&#x5e0;" horiz-adv-x="258" 
d="M32 0v75h75v375h-69v75h160v-525h-166z" />
    <glyph glyph-name="samech" unicode="&#x5e1;" horiz-adv-x="435" 
d="M390 449q0 -43 -1 -85t-4 -84q-4 -46 -12 -95.5t-28.5 -90.5t-55.5 -67.5t-93 -26.5h-118l-28 525h340v-76zM300 450h-156l18 -375h42q26 0 43.5 20t28.5 51t16 69t7 74.5t1.5 67.5t-0.5 48v45z" />
    <glyph glyph-name="ayin" unicode="&#x5e2;" horiz-adv-x="426" 
d="M362 194q-1 -24 -4 -51.5t-11 -53.5t-23 -47t-41 -31q-20 -8 -42 -9.5t-42 -1.5h-152v75h76l-84 450h91l80 -450h25q12 0 19.5 14.5t12 33t6.5 37t2 27.5l12 338h89z" />
    <glyph glyph-name="final_pe" unicode="&#x5e3;" horiz-adv-x="422" 
d="M276 -160v529q0 12 -1.5 26.5t-6 26.5t-14 20t-25.5 8h-90v-208h-89v283h178q40 0 67 -12t43 -33t22.5 -50.5t6.5 -65.5v-524h-91z" />
    <glyph glyph-name="pe" unicode="&#x5e4;" horiz-adv-x="430" 
d="M55 0v75h230v295q0 12 -1.5 26t-6.5 26t-14 20t-25 8h-93v-209h-90v284h182q78 0 108 -42t30 -116v-367h-320z" />
    <glyph glyph-name="final_tsadi" unicode="&#x5e5;" horiz-adv-x="401" 
d="M361 525q-5 -46 -10.5 -91.5t-11.5 -92.5q-3 -25 -13.5 -47.5t-27 -39t-38.5 -26.5t-49 -10v-378h-90v299q0 24 -0.5 41t-2.5 32.5t-6 31.5t-11 39l-76 242h96l76 -246q15 0 25 7t16 18.5t8.5 25.5t4.5 26q5 42 9.5 84.5t9.5 84.5h91v0z" />
    <glyph glyph-name="tsadi" unicode="&#x5e6;" horiz-adv-x="404" 
d="M347 365q-2 -20 -9 -40.5t-19.5 -37t-30 -26.5t-40.5 -10l112 -251h-317v75h190l-208 450h91l107 -222q5 0 10.5 1t9.5 5q6 5 9.5 17t6 25.5t3.5 26t2 19.5l12 128h90z" />
    <glyph glyph-name="qof" unicode="&#x5e7;" horiz-adv-x="452" 
d="M322 0h-88l89 450h-268v75h372zM64 -160v492h90v-492h-90z" />
    <glyph glyph-name="resh" unicode="&#x5e8;" horiz-adv-x="343" 
d="M198 0v370q0 12 -1.5 26t-6.5 26t-14 20t-25 8h-126v75h125q39 0 65.5 -11.5t42.5 -32t23 -49.5t7 -65v-367h-90z" />
    <glyph glyph-name="shin" unicode="&#x5e9;" horiz-adv-x="532" 
d="M472 291q-3 -48 -15 -99t-36.5 -94t-63.5 -70.5t-97 -27.5h-169l-41 525h87l19 -253h13q12 0 20 9.5t13 22t7.5 26t3.5 21.5q4 44 7 87t6 87h88q-4 -45 -7.5 -90.5t-7.5 -90.5q-2 -25 -10.5 -48.5t-22.5 -42t-35 -30t-49 -11.5h-18l9 -137h76q36 0 61 23t41 56t23.5 70
t9.5 65q4 60 7.5 118t7.5 118h88z" />
    <glyph glyph-name="tav" unicode="&#x5ea;" horiz-adv-x="484" 
d="M334 0v450h-134v-327q0 -27 -4 -49.5t-14.5 -39t-30 -25.5t-49.5 -9h-67v75h28.5t24 4.5t16.5 14t6 29.5v327h-73v75h387v-525h-90z" />
    <glyph glyph-name="vav_vav" unicode="&#x5f0;" horiz-adv-x="452" 
d="M91 0v450h-63v75h154v-525h-91zM302 0v450h-63v75h154v-525h-91z" />
    <glyph glyph-name="vav_yod" unicode="&#x5f1;" horiz-adv-x="452" 
d="M92 242v208h-64v75h154v-283h-90zM302 0v450h-63v75h154v-525h-91z" />
    <glyph glyph-name="yod_yod" unicode="&#x5f2;" horiz-adv-x="464" 
d="M92 242v208h-64v75h154v-283h-90zM316 242v208h-64v75h154v-283h-90z" />
    <glyph glyph-name="uni05F3" unicode="&#x5f3;" horiz-adv-x="204" 
d="M96 380h-47l42 245h79z" />
    <glyph glyph-name="uni05F4" unicode="&#x5f4;" horiz-adv-x="347" 
d="M239 380h-47l42 245h79zM96 380h-47l42 245h79z" />
    <glyph glyph-name="afii61664" unicode="&#x200c;" horiz-adv-x="19" 
d="M19 0h-19v703h19v-703z" />
    <glyph glyph-name="afii301" unicode="&#x200d;" horiz-adv-x="19" 
d="M69 646l-13 -13l-37 36v-669h-19v669l-35 -36l-15 13l48 46l-48 46l15 14l45 -47l46 47l13 -14l-46 -46z" />
    <glyph glyph-name="afii299" unicode="&#x200e;" horiz-adv-x="19" 
d="M131 692l-59 -59l-14 13l38 38h-77v-684h-19v703h94l-36 35l14 14z" />
    <glyph glyph-name="afii300" unicode="&#x200f;" horiz-adv-x="19" 
d="M20 0h-19v684h-75l37 -38l-14 -13l-60 59l60 60l14 -14l-36 -35h93v-703z" />
    <glyph glyph-name="endash" unicode="&#x2013;" 
d="M47 214v61h298v-61h-298z" />
    <glyph glyph-name="emdash" unicode="&#x2014;" horiz-adv-x="542" 
d="M478 223q-27 2 -64 3.5t-78.5 2.5t-84 1t-81 -0.5t-69 -2.5t-47.5 -4l-7 9l21 73h429z" />
    <glyph glyph-name="quoteleft" unicode="&#x2018;" horiz-adv-x="204" 
d="M123.006 380h46.9971l-41.9971 245h-78.9951z" />
    <glyph glyph-name="quoteright" unicode="&#x2019;" horiz-adv-x="204" 
d="M96 380h-47l42 245h79z" />
    <glyph glyph-name="quotesinglbase" unicode="&#x201a;" horiz-adv-x="204" 
d="M96 -71h-47l42 245h79z" />
    <glyph glyph-name="quotedblleft" unicode="&#x201c;" horiz-adv-x="378" 
d="M123.006 380h46.9971l-41.9971 245h-78.9951zM297.006 380h46.9971l-41.9971 245h-78.9951z" />
    <glyph glyph-name="quotedblright" unicode="&#x201d;" horiz-adv-x="378" 
d="M96 380h-47l42 245h79zM270 380h-47l42 245h79z" />
    <glyph glyph-name="quotedblbase" unicode="&#x201e;" horiz-adv-x="337" 
d="M229 -71h-47l42 245h79zM96 -71h-47l42 245h79z" />
    <glyph glyph-name="dagger" unicode="&#x2020;" horiz-adv-x="430" 
d="M403 397q0 -19 -15 -31t-34 -12q-20 0 -65 17q-44 18 -67 18q0 -72 46 -106q-46 -169 -46 -470h-18q0 301 -46 470q46 34 46 106q-24 0 -67 -18q-45 -17 -64 -17q-20 0 -35 12t-15 31q0 20 15 31t35 11t64 -18q45 -17 67 -17q0 26 -21 76q-21 49 -21 76q0 23 14 41t37 18
t37 -18t14 -41q0 -27 -21 -76q-21 -50 -21 -76q22 0 67 17q43 18 65 18q19 0 34 -11t15 -31z" />
    <glyph glyph-name="daggerdbl" unicode="&#x2021;" horiz-adv-x="382" 
d="M364 1q0 -39 -44 -39q-22 0 -58 16q-38 15 -61 15q-1 -22 18 -68q20 -48 20 -63q0 -20 -14 -34.5t-34 -14.5t-34 14.5t-14 34.5q0 18 19 63q20 48 19 68q-24 0 -61 -15q-36 -16 -58 -16q-44 0 -44 39q0 40 44 40q22 0 58 -16t61 -16q-5 51 -44 76q44 52 44 133
q0 73 -44 125q39 25 44 76q-25 0 -61 -16t-58 -16q-44 0 -44 40q0 39 44 39q22 0 58 -16q37 -15 61 -15q-1 11 -5.5 27.5t-14.5 39.5q-18 46 -18 64q0 20 14 34.5t34 14.5t34 -14.5t14 -34.5q0 -15 -20 -63q-19 -46 -18 -68q23 0 61 15q36 16 58 16q44 0 44 -39
q0 -40 -44 -40q-22 0 -58 16t-61 16q5 -51 44 -76q-44 -52 -44 -125q0 -81 44 -133q-39 -25 -44 -76q25 0 61 16t58 16q44 0 44 -40z" />
    <glyph glyph-name="bullet" unicode="&#x2022;" horiz-adv-x="397" 
d="M380 263q0 -74 -53 -129q-53 -53 -127 -53t-129 53q-53 53 -53 129q0 74 53 127q55 52 129 52t127 -53t53 -126z" />
    <glyph glyph-name="ellipsis" unicode="&#x2026;" horiz-adv-x="528" 
d="M206 0v96h92v-96h-92zM29 0v96h92v-96h-92zM383 0v96h92v-96h-92z" />
    <glyph glyph-name="perthousand" unicode="&#x2030;" horiz-adv-x="1183" 
d="M641 615l-431 -629h-50l431 629h50zM301 422q0 -22 -1 -47t-5 -49.5t-12 -48t-21.5 -41t-34.5 -28t-50 -10.5t-49.5 11t-34 28.5t-22 40.5t-12 48t-5 50t-1.5 46q0 22 1.5 47t5 50.5t12 48.5t22.5 40.5t34.5 28t49.5 10.5t49.5 -10.5t34 -28.5t21.5 -41t12 -48t5 -50
t1 -47zM236 422v26t-1.5 35t-4.5 38t-9.5 34.5t-17 25t-25.5 9.5q-16 0 -26.5 -9.5t-17 -25t-9.5 -34.5t-4.5 -38t-2 -35t-0.5 -26q0 -9 0.5 -25.5t2 -35t4.5 -38t10 -34.5t17.5 -25t26.5 -10q15 0 25 10t16.5 25.5t9.5 34.5t4.5 38t1.5 35v25zM1061 202q0 -22 -1 -47
t-5 -49.5t-12 -48t-21.5 -41t-34.5 -28t-50 -10.5t-49.5 11t-34 28.5t-22 40.5t-12 48t-5 50t-1.5 46q0 22 1.5 47t5 50.5t12 48.5t22.5 40.5t34.5 28t49.5 10.5t49.5 -10.5t34 -28.5t21.5 -41t12 -48t5 -50t1 -47zM996 202v26t-1.5 35t-4.5 38t-9.5 34.5t-17 25t-25.5 9.5
q-16 0 -26.5 -9.5t-17 -25t-9.5 -34.5t-4.5 -38t-2 -35t-0.5 -26q0 -9 0.5 -25.5t2 -35t4.5 -38t10 -34.5t17.5 -25t26.5 -10q15 0 25 10t16.5 25.5t9.5 34.5t4.5 38t1.5 35v25zM761 202q0 -22 -1 -47t-5 -49.5t-12 -48t-21.5 -41t-34.5 -28t-50 -10.5t-49.5 11t-34 28.5
t-22 40.5t-12 48t-5 50t-1.5 46q0 22 1.5 47t5 50.5t12 48.5t22.5 40.5t34.5 28t49.5 10.5t49.5 -10.5t34 -28.5t21.5 -41t12 -48t5 -50t1 -47zM696 202v26t-1.5 35t-4.5 38t-9.5 34.5t-17 25t-25.5 9.5q-16 0 -26.5 -9.5t-17 -25t-9.5 -34.5t-4.5 -38t-2 -35t-0.5 -26
q0 -9 0.5 -25.5t2 -35t4.5 -38t10 -34.5t17.5 -25t26.5 -10q15 0 25 10t16.5 25.5t9.5 34.5t4.5 38t1.5 35v25z" />
    <glyph glyph-name="guilsinglleft" unicode="&#x2039;" horiz-adv-x="292" 
d="M248 0h-28l-176 203l176 203h28l-114 -203z" />
    <glyph glyph-name="guilsinglright" unicode="&#x203a;" horiz-adv-x="292" 
d="M248 203l-176 -203h-28l113 203l-113 203h28z" />
    <glyph glyph-name="peseta" unicode="&#x20a7;" horiz-adv-x="1076" 
d="M602 598v-136h71v-60q19 39 61 54t90 15q37 0 69 -8t55 -24.5t36 -42t13 -59.5l-78 1q0 39 -27.5 51.5t-67.5 12.5q-42 0 -63.5 -15t-21.5 -39q0 -18 10 -29.5t27 -19.5t38 -14.5t44 -13.5q29 -9 56.5 -18.5t49 -24t34.5 -36.5t13 -55q0 -39 -15 -67t-41 -45.5t-60 -25.5
t-71 -8q-43 0 -79.5 13.5t-60.5 40.5v-46q-12 -3 -28 -5.5t-34 -2.5q-39 0 -68 21t-29 72v311h-54q-9 -26 -25.5 -49t-39.5 -40t-52 -27t-62 -10h-140v-269h-87v644h227q42 0 77 -16t60 -42t39 -58.5t15 -65.5h42v136h77zM152 347h131q19 0 38 8.5t34 23.5t24.5 35t9.5 44
q0 23 -8.5 42.5t-23 34t-34 23t-40.5 8.5h-131v-219zM724 149q0 -47 28.5 -69t71.5 -22q18 0 37.5 3t35 11t26 22t10.5 35q0 32 -35 52t-83 31q-32 8 -60 18.5t-49 26t-33 37.5t-12 54q0 25 8 47h-67v-278q0 -30 15 -43.5t41 -13.5h5.5t7.5 1q-25 36 -25 88h78z" />
    <glyph glyph-name="sheqel" unicode="&#x20aa;" horiz-adv-x="662" 
d="M574 137q0 -60 -28.5 -98.5t-93.5 -38.5h-242v382h68v-329h139q28 0 45.5 5t27.5 16.5t13 30t3 44.5v376h68v-388zM358 142v238q0 49 -18.5 71t-71.5 22h-138v-473h-68v525h225q27 0 52.5 -6.5t44.5 -20.5t30.5 -36t11.5 -52v-268h-68z" />
    <glyph glyph-name="Euro" unicode="&#x20ac;" horiz-adv-x="556" 
d="M396 633q-76 0 -128 -36q-33 -23 -57 -65q-27 -41 -32 -78h307l-16 -61h-297q-1 -11 -1 -21q0 -55 1 -63h281l-15 -61h-257q18 -106 92 -150q54 -32 115 -32q87 0 136 45v-94q-58 -28 -129 -28q-208 0 -280 174q-16 35 -25 85h-71l14 61h48q-2 21 -2 63q0 10 1 21h-61
l14 61h51q30 151 149 216q76 40 164 40q85 0 144 -38l-21 -80q-53 41 -125 41z" />
    <glyph glyph-name="trademark" unicode="&#x2122;" horiz-adv-x="853" 
d="M512 727l98 -328h1l104 328h74v-387h-52v318h-1l-103 -318h-45l-103 318h-1v-318h-52v387h80zM364 727v-47h-123v-340h-53v340h-123v47h299z" />
    <glyph glyph-name="minus" unicode="&#x2212;" 
d="M47 344v61h298v-61h-298z" />
    <glyph glyph-name="final_kaf_sheva" unicode="&#xe802;" horiz-adv-x="344" 
d="M193 -160v610h-168v75h259v-685h-91zM78 211v79h76v-79h-76zM79 83v79h76v-79h-76z" />
    <glyph glyph-name="final_kaf_qamats" unicode="&#xe803;" horiz-adv-x="344" 
d="M193 -160v610h-168v75h259v-685h-91z" />
    <glyph glyph-name="lamed_holam" unicode="&#xe804;" horiz-adv-x="347" 
d="M188 0h-88l118 450h-190v222h89v-147h211zM0 630q0 -18 -12 -30t-30 -12t-30 12t-12 30t12 30.5t30 12.5t30 -12.5t12 -30.5z" />
    <glyph glyph-name="lamed_holam_dagesh" unicode="&#xe805;" horiz-adv-x="347" 
d="M188 0h-88l118 450h-190v222h89v-147h211zM0 630q0 -18 -12 -30t-30 -12t-30 12t-12 30t12 30.5t30 12.5t30 -12.5t12 -30.5zM119 274v79h76v-79h-76z" />
    <glyph glyph-name="prop_0" unicode="&#xe890;" horiz-adv-x="526" 
d="M469 354q0 -37 -1.5 -78.5t-8 -83t-20 -80t-36.5 -68t-57.5 -47t-83.5 -17.5q-48 0 -82 18t-57 47.5t-36.5 68t-20 80t-8.5 83t-2 77.5t2 78t8.5 84t20 80.5t37 68t57.5 47t83 17.5q48 0 82 -18t57 -47.5t36 -68t19.5 -80t8.5 -83.5t2 -78zM361 354v43t-2.5 58t-8 63
t-16 57.5t-28 42t-42.5 16.5q-26 0 -43.5 -16.5t-28.5 -42t-16.5 -57.5t-8 -63t-3 -58t-0.5 -43t0.5 -43.5t3 -58.5t8 -63t17 -57.5t29 -42t43.5 -16.5q25 0 42 16.5t27.5 42.5t16 58t8 63.5t2.5 58v42.5z" />
    <glyph glyph-name="prop_1" unicode="&#xe891;" horiz-adv-x="395" 
d="M166 0v595l-120 -112v119l127 107h102v-709h-109z" />
    <glyph glyph-name="prop_2" unicode="&#xe892;" horiz-adv-x="526" 
d="M69 0v123q49 57 98 113.5t97 114.5q26 32 46.5 71.5t20.5 81.5q0 30 -6 54t-19.5 41.5t-35.5 27t-55 9.5q-35 0 -73.5 -18t-62.5 -44v116q27 19 65.5 29t70.5 10q118 0 175.5 -52t57.5 -173q0 -27 -9.5 -56t-24.5 -56.5t-33 -52t-36 -43.5l-184 -200h295v-96h-387z" />
    <glyph glyph-name="prop_3" unicode="&#xe893;" horiz-adv-x="526" 
d="M461 201q0 -59 -18.5 -101t-51.5 -68.5t-79 -39t-100 -12.5q-17 0 -37 2.5t-39.5 7.5t-38 12t-33.5 17v115q26 -29 68 -45.5t80 -16.5q60 0 97.5 35t37.5 95q0 30 -10.5 55t-29 43t-44 27.5t-55.5 9.5q-11 0 -22 -0.5t-22 -1.5v86l32 3q22 2 45.5 11t42.5 24t31.5 35
t12.5 45q0 26 -9 44.5t-25 30.5t-37 17.5t-46 5.5q-35 0 -71.5 -16.5t-59.5 -44.5v114q13 10 31.5 17.5t38 12t39 7t35.5 2.5q47 0 87.5 -10t70 -32.5t46 -58.5t16.5 -87q0 -29 -11.5 -54t-30.5 -45t-44 -34.5t-51 -21.5q33 -6 61.5 -23t49 -41.5t32 -55.5t11.5 -65z" />
    <glyph glyph-name="prop_4" unicode="&#xe894;" horiz-adv-x="526" 
d="M415 169v-169h-106v169h-264v98l232 442h138v-450h66v-90h-66zM313 612q-16 -45 -39 -87.5t-44 -81.5l-100 -185h178v270q0 21 2 42.5t3 41.5z" />
    <glyph glyph-name="prop_5" unicode="&#xe895;" horiz-adv-x="526" 
d="M455 212q0 -50 -17 -92t-47 -73.5t-72 -49t-92 -17.5q-18 0 -39 2.5t-42 7t-41 12t-35 18.5v112q10 -16 27.5 -27.5t38 -19t42 -11.5t39.5 -4q30 0 54 12t41 32t26 46t9 55q0 26 -10 50.5t-27.5 43t-40.5 30t-50 11.5q-31 0 -70.5 -10t-64.5 -30v399h351v-96h-246v-185
q15 3 31.5 6t31.5 3q49 0 87 -17.5t63.5 -48.5t39 -72t13.5 -87z" />
    <glyph glyph-name="prop_6" unicode="&#xe896;" horiz-adv-x="526" 
d="M469 228q0 -45 -12 -89.5t-36.5 -80t-62.5 -57t-89 -21.5q-49 0 -84 16t-59 42.5t-37.5 62.5t-20.5 75.5t-9 81t-2 79.5q0 59 7.5 127.5t32 127.5t70.5 98t123 39q12 0 32 -1.5t40.5 -6t38 -12.5t25.5 -21v-103q-8 15 -22.5 25t-32 17t-35.5 10t-33 3q-48 0 -74.5 -24.5
t-40 -60.5t-17.5 -77.5t-7 -76.5q9 13 21 25.5t27 22.5t31 16t32 6q54 0 91 -20t60 -54t33 -77.5t10 -91.5zM361 230q0 25 -3.5 51t-13.5 47.5t-29.5 35.5t-50.5 14q-28 0 -46 -14.5t-28.5 -36.5t-14.5 -47.5t-4 -47.5q0 -21 4.5 -48.5t15 -52t28.5 -41.5t46 -17
q31 0 50 15.5t29 38.5t13.5 51t3.5 52z" />
    <glyph glyph-name="prop_7" unicode="&#xe897;" horiz-adv-x="526" 
d="M458 589q-21 -54 -45 -106.5t-47 -107.5q-35 -91 -61.5 -184t-42.5 -191h-113q14 79 38 157t54 153.5t64 150t68 146.5h-305v102h390v-120v0z" />
    <glyph glyph-name="prop_8" unicode="&#xe898;" horiz-adv-x="526" 
d="M484 201q0 -109 -57 -165t-165 -56t-164.5 56t-56.5 165q0 60 33 106.5t90 66.5q-55 20 -81 61t-26 97q0 99 54.5 148t150.5 49t150.5 -49t54.5 -147q0 -57 -25.5 -98t-80.5 -61q56 -20 89.5 -66.5t33.5 -106.5zM358 528q0 23 -5.5 44t-17 37t-29.5 25.5t-44 9.5
t-44 -9.5t-29.5 -25.5t-17 -37t-5.5 -44t5.5 -43.5t17.5 -36.5t30 -25t43 -9t43 9t30 25t17.5 36.5t5.5 43.5zM376 198q0 58 -26 96.5t-88 38.5q-31 0 -52.5 -10t-35 -28t-19.5 -42.5t-6 -52.5q0 -26 7 -50.5t20.5 -43.5t34.5 -30t50 -11t50.5 11t36 30t21.5 42.5t7 49.5z
" />
    <glyph glyph-name="prop_9" unicode="&#xe899;" horiz-adv-x="526" 
d="M468 371q0 -39 -3 -83t-11.5 -87.5t-24 -83.5t-41.5 -70.5t-63 -48.5t-89 -18q-15 0 -36 2t-42.5 6.5t-40.5 12t-31 19.5v110q23 -30 62 -45.5t75 -15.5q48 0 75 26t40.5 64t17 81.5t6.5 78.5q-8 -14 -20.5 -26.5t-27 -22.5t-31 -16t-32.5 -6q-54 0 -91 19.5t-60 52
t-33 75.5t-10 91q0 47 11.5 91t36 77.5t62 54t89.5 20.5q75 0 117.5 -34.5t63.5 -87t26 -115.5t5 -121zM355 482q0 22 -4.5 48.5t-15 50t-29 39.5t-46.5 16q-31 0 -49.5 -14.5t-28.5 -36.5t-13.5 -48.5t-3.5 -51.5q0 -26 3.5 -51.5t14 -45.5t29.5 -33t50 -13q28 0 46 13.5
t28.5 34.5t14.5 45.5t4 46.5z" />
    <glyph glyph-name="fi" unicode="&#xfb01;" horiz-adv-x="474" 
d="M108 523v110q0 46 30 75.5t84 29.5q17 0 37 -7.5t32 -13.5v-72q-7 6 -21 10.5t-23 4.5q-23 0 -36 -15.5t-13 -35.5v-86h211v-523h-90v447h-121v-447h-90v447h-88v76h88zM319 728h90v-105h-90v105z" />
    <glyph glyph-name="fl" unicode="&#xfb02;" horiz-adv-x="475" 
d="M410 728v-728h-88v655h-2q-64 5 -73 5q-23 0 -36 -15.5t-13 -35.5v-86h88v-76h-88v-447h-90v447h-88v76h88v110q0 46 30 75.5t84 29.5q17 0 87 -8q13 -1 23 -2h78z" />
    <glyph glyph-name="yod_yod_patah" unicode="&#xfb1f;" horiz-adv-x="464" 
d="M73 50h327v-48h-327v48zM92 242v208h-64v75h154v-283h-90zM316 242v208h-64v75h154v-283h-90z" />
    <glyph glyph-name="alt_ayin" unicode="&#xfb20;" horiz-adv-x="426" 
d="M362 194q-1 -24 -4 -51.5t-11 -53.5t-23 -47t-41 -31q-20 -8 -42 -9.5t-42 -1.5h-152v75h76l-84 450h91l80 -450h25q12 0 19.5 14.5t12 33t6.5 37t2 27.5l12 338h89z" />
    <glyph glyph-name="wide_alef" unicode="&#xfb21;" horiz-adv-x="446" 
d="M316 0q-19 44 -38 87t-39 87q-11 24 -22.5 49t-25.5 48q-12 1 -19.5 -13t-11.5 -32.5t-5.5 -36.5t-1.5 -25q-3 -41 -5.5 -81.5t-4.5 -82.5h-89q2 45 4.5 90t5.5 91q1 18 5 38t11.5 38t18.5 33.5t28 26.5q8 5 16 8t17 3q-32 48 -63 97.5t-62 99.5h105q32 -49 61.5 -99
t55.5 -102q12 0 19 14t11.5 32t6.5 36t3 25l13 94h85q-4 -32 -7.5 -64t-7.5 -64q-2 -18 -8.5 -40.5t-17.5 -43t-27.5 -34.5t-39.5 -14q15 -26 27.5 -52.5t25.5 -53.5q18 -39 36 -79t35 -80h-95z" />
    <glyph glyph-name="wide_dalet" unicode="&#xfb22;" horiz-adv-x="355" 
d="M278 450v-450h-89v450h-164v75h298v-75h-45z" />
    <glyph glyph-name="wide_he" unicode="&#xfb23;" horiz-adv-x="432" 
d="M281 0v450h-228v75h319v-525h-91zM58 0v330h90v-330h-90z" />
    <glyph glyph-name="wide_kaf" unicode="&#xfb24;" horiz-adv-x="344" 
d="M294 168q0 -37 -9 -67.5t-27.5 -53t-46.5 -35t-67 -12.5h-112v75h113q19 0 31 9t18 22.5t8 30t2 31.5v195q0 15 -2.5 30.5t-9 28t-18 20.5t-29.5 8h-113v75h112q78 0 114 -44.5t36 -119.5v-193v0z" />
    <glyph glyph-name="wide_lamed" unicode="&#xfb25;" horiz-adv-x="347" 
d="M188 0h-88l118 450h-190v222h89v-147h211z" />
    <glyph glyph-name="wide_mem" unicode="&#xfb26;" horiz-adv-x="447" 
d="M60 0v525h181q78 0 114.5 -44.5t36.5 -118.5v-362h-332zM303 357q0 15 -2.5 31t-9 30t-18.5 23t-30 9h-93v-375h153v282z" />
    <glyph glyph-name="wide_resh" unicode="&#xfb27;" horiz-adv-x="343" 
d="M198 0v370q0 12 -1.5 26t-6.5 26t-14 20t-25 8h-126v75h125q39 0 65.5 -11.5t42.5 -32t23 -49.5t7 -65v-367h-90z" />
    <glyph glyph-name="wide_tav" unicode="&#xfb28;" horiz-adv-x="484" 
d="M334 0v450h-134v-327q0 -27 -4 -49.5t-14.5 -39t-30 -25.5t-49.5 -9h-67v75h28.5t24 4.5t16.5 14t6 29.5v327h-73v75h387v-525h-90z" />
    <glyph glyph-name="uniFB29" unicode="&#xfb29;" horiz-adv-x="545" 
d="M56 214v61h170v170h61v-170h170v-61h-401z" />
    <glyph glyph-name="shin_shindot" unicode="&#xfb2a;" horiz-adv-x="532" 
d="M472 291q-3 -48 -15 -99t-36.5 -94t-63.5 -70.5t-97 -27.5h-169l-41 525h87l19 -253h13q12 0 20 9.5t13 22t7.5 26t3.5 21.5q4 44 7 87t6 87h88q-4 -45 -7.5 -90.5t-7.5 -90.5q-2 -25 -10.5 -48.5t-22.5 -42t-35 -30t-49 -11.5h-18l9 -137h76q36 0 61 23t41 56t23.5 70
t9.5 65q4 60 7.5 118t7.5 118h88zM472 630q0 -18 -12 -30t-30 -12t-30 12t-12 30t12 30.5t30 12.5t30 -12.5t12 -30.5z" />
    <glyph glyph-name="shin_sindot" unicode="&#xfb2b;" horiz-adv-x="532" 
d="M472 291q-3 -48 -15 -99t-36.5 -94t-63.5 -70.5t-97 -27.5h-169l-41 525h87l19 -253h13q12 0 20 9.5t13 22t7.5 26t3.5 21.5q4 44 7 87t6 87h88q-4 -45 -7.5 -90.5t-7.5 -90.5q-2 -25 -10.5 -48.5t-22.5 -42t-35 -30t-49 -11.5h-18l9 -137h76q36 0 61 23t41 56t23.5 70
t9.5 65q4 60 7.5 118t7.5 118h88zM172 630q0 -18 -12 -30t-30 -12t-30 12t-12 30t12 30.5t30 12.5t30 -12.5t12 -30.5z" />
    <glyph glyph-name="shin_shindot_dagesh" unicode="&#xfb2c;" horiz-adv-x="532" 
d="M406 569v79h76v-79h-76zM472 291q-3 -48 -15 -99t-36.5 -94t-63.5 -70.5t-97 -27.5h-169l-41 525h87l19 -253h13q12 0 20 9.5t13 22t7.5 26t3.5 21.5q4 44 7 87t6 87h88q-4 -45 -7.5 -90.5t-7.5 -90.5q-2 -25 -10.5 -48.5t-22.5 -42t-35 -30t-49 -11.5h-18l9 -137h76
q36 0 61 23t41 56t23.5 70t9.5 65q4 60 7.5 118t7.5 118h88zM256.662 145.553v70.7305h68.6758v-70.7305h-68.6758z" />
    <glyph glyph-name="shin_sindot_dagesh" unicode="&#xfb2d;" horiz-adv-x="532" 
d="M50 570v79h76v-79h-76zM473 291q-3 -48 -15 -99t-36.5 -94t-63.5 -70.5t-97 -27.5h-169l-41 525h87l19 -253h13q12 0 20 9.5t13 22t7.5 26t3.5 21.5q4 44 7 87t6 87h88q-4 -45 -7.5 -90.5t-7.5 -90.5q-2 -25 -10.5 -48.5t-22.5 -42t-35 -30t-49 -11.5h-18l9 -137h76
q36 0 61 23t41 56t23.5 70t9.5 65q4 60 7.5 118t7.5 118h88zM257.662 145.553v70.7305h68.6758v-70.7305h-68.6758z" />
    <glyph glyph-name="alef_patah" unicode="&#xfb2e;" horiz-adv-x="446" 
d="M316 0q-19 44 -38 87t-39 87q-11 24 -22.5 49t-25.5 48q-12 1 -19.5 -13t-11.5 -32.5t-5.5 -36.5t-1.5 -25q-3 -41 -5.5 -81.5t-4.5 -82.5h-89q2 45 4.5 90t5.5 91q1 18 5 38t11.5 38t18.5 33.5t28 26.5q8 5 16 8t17 3q-32 48 -63 97.5t-62 99.5h105q32 -49 61.5 -99
t55.5 -102q12 0 19 14t11.5 32t6.5 36t3 25l13 94h85q-4 -32 -7.5 -64t-7.5 -64q-2 -18 -8.5 -40.5t-17.5 -43t-27.5 -34.5t-39.5 -14q15 -26 27.5 -52.5t25.5 -53.5q18 -39 36 -79t35 -80h-95z" />
    <glyph glyph-name="alef_qamats" unicode="&#xfb2f;" horiz-adv-x="446" 
d="M316 0q-19 44 -38 87t-39 87q-11 24 -22.5 49t-25.5 48q-12 1 -19.5 -13t-11.5 -32.5t-5.5 -36.5t-1.5 -25q-3 -41 -5.5 -81.5t-4.5 -82.5h-89q2 45 4.5 90t5.5 91q1 18 5 38t11.5 38t18.5 33.5t28 26.5q8 5 16 8t17 3q-32 48 -63 97.5t-62 99.5h105q32 -49 61.5 -99
t55.5 -102q12 0 19 14t11.5 32t6.5 36t3 25l13 94h85q-4 -32 -7.5 -64t-7.5 -64q-2 -18 -8.5 -40.5t-17.5 -43t-27.5 -34.5t-39.5 -14q15 -26 27.5 -52.5t25.5 -53.5q18 -39 36 -79t35 -80h-95z" />
    <glyph glyph-name="alef_mapiq" unicode="&#xfb30;" horiz-adv-x="446" 
d="M316 0q-19 44 -38 87t-39 87q-11 24 -22.5 49t-25.5 48q-12 1 -19.5 -13t-11.5 -32.5t-5.5 -36.5t-1.5 -25q-3 -41 -5.5 -81.5t-4.5 -82.5h-89q2 45 4.5 90t5.5 91q1 18 5 38t11.5 38t18.5 33.5t28 26.5q8 5 16 8t17 3q-32 48 -63 97.5t-62 99.5h105q32 -49 61.5 -99
t55.5 -102q12 0 19 14t11.5 32t6.5 36t3 25l13 94h85q-4 -32 -7.5 -64t-7.5 -64q-2 -18 -8.5 -40.5t-17.5 -43t-27.5 -34.5t-39.5 -14q15 -26 27.5 -52.5t25.5 -53.5q18 -39 36 -79t35 -80h-95zM184 -175v79h76v-79h-76z" />
    <glyph glyph-name="bet_dagesh" unicode="&#xfb31;" horiz-adv-x="356" 
d="M32 0v75h158v375h-158v75h248v-450h44v-75h-292zM68 223v79h76v-79h-76z" />
    <glyph glyph-name="gimel_dagesh" unicode="&#xfb32;" horiz-adv-x="301" 
d="M167 0l-7 144h-6q-6 -24 -14.5 -51.5t-23 -51.5t-35.5 -40t-51 -16v94q22 0 43.5 22.5t37.5 53t26 62t10 50.5q0 46 -2 91.5t-4 91.5h-94v75h178q5 -132 9.5 -262.5t15.5 -262.5h-83zM36 254v79h76v-79h-76z" />
    <glyph glyph-name="dalet_dagesh" unicode="&#xfb33;" horiz-adv-x="355" 
d="M278 450v-450h-89v450h-164v75h298v-75h-45zM63 256v79h76v-79h-76z" />
    <glyph glyph-name="he_dagesh" unicode="&#xfb34;" horiz-adv-x="432" 
d="M281 0v450h-228v75h319v-525h-91zM58 0v330h90v-330h-90zM175 244v79h76v-79h-76z" />
    <glyph glyph-name="vav_dagesh" unicode="&#xfb35;" horiz-adv-x="241" 
d="M91 0v450h-63v75h154v-525h-91zM-8 234v79h76v-79h-76z" />
    <glyph glyph-name="zayin_dagesh" unicode="&#xfb36;" horiz-adv-x="319" 
d="M265 450q-18 0 -27 -15.5t-13.5 -36.5t-5 -42.5t-0.5 -32.5v-323h-90v315q0 18 4 38t12 38.5t20 34t29 24.5h-106v75h199v-75h-22zM28 246v79h76v-79h-76z" />
    <glyph glyph-name="tet_dagesh" unicode="&#xfb38;" horiz-adv-x="432" 
d="M392 322q0 -42 -8 -97.5t-28 -105.5t-56 -84.5t-91 -34.5h-131l-28 525h89l23 -450h41q22 0 38 14t27 36.5t18 50.5t11 55.5t5.5 51.5t1.5 39q0 14 -0.5 37t-5 44.5t-15 37.5t-31.5 16q-10 0 -22.5 -5t-18.5 -13v80q10 8 28 11t29 3q43 0 68 -20.5t37.5 -52t15.5 -68.5
t3 -70zM183 239v79h76v-79h-76z" />
    <glyph glyph-name="yod_dagesh" unicode="&#xfb39;" horiz-adv-x="290" 
d="M142 242v208h-64v75h154v-283h-90zM28 302v79h76v-79h-76z" />
    <glyph glyph-name="final_kaf_dagesh" unicode="&#xfb3a;" horiz-adv-x="344" 
d="M193 -160v610h-168v75h259v-685h-91zM71 160v79h76v-79h-76z" />
    <glyph glyph-name="kaf_dagesh" unicode="&#xfb3b;" horiz-adv-x="344" 
d="M294 168q0 -37 -9 -67.5t-27.5 -53t-46.5 -35t-67 -12.5h-112v75h113q19 0 31 9t18 22.5t8 30t2 31.5v195q0 15 -2.5 30.5t-9 28t-18 20.5t-29.5 8h-113v75h112q78 0 114 -44.5t36 -119.5v-193v0zM76 217v79h76v-79h-76z" />
    <glyph glyph-name="lamed_dagesh" unicode="&#xfb3c;" horiz-adv-x="347" 
d="M188 0h-88l118 450h-190v222h89v-147h211zM48 271v79h76v-79h-76z" />
    <glyph glyph-name="mem_dagesh" unicode="&#xfb3e;" horiz-adv-x="451" 
d="M210 0v75h96v295q0 15 -1.5 29.5t-6.5 26t-16 18t-29 6.5h-64l-48 -450h-89l48 450h-64v75h221q45 0 72.5 -13.5t42 -37t19.5 -56t5 -71.5v-347h-186zM198 204v79h76v-79h-76z" />
    <glyph glyph-name="nun_dagesh" unicode="&#xfb40;" horiz-adv-x="258" 
d="M32 0v75h75v375h-69v75h160v-525h-166zM2 217v79h76v-79h-76z" />
    <glyph glyph-name="samech_dagesh" unicode="&#xfb41;" horiz-adv-x="435" 
d="M390 449q0 -43 -1 -85t-4 -84q-4 -46 -12 -95.5t-28.5 -90.5t-55.5 -67.5t-93 -26.5h-118l-28 525h340v-76zM300 450h-156l18 -375h42q26 0 43.5 20t28.5 51t16 69t7 74.5t1.5 67.5t-0.5 48v45zM183 223v79h76v-79h-76z" />
    <glyph glyph-name="final_pe_dagesh" unicode="&#xfb43;" horiz-adv-x="422" 
d="M276 -160v529q0 12 -1.5 26.5t-6 26.5t-14 20t-25.5 8h-90v-208h-89v283h178q40 0 67 -12t43 -33t22.5 -50.5t6.5 -65.5v-524h-91zM167 290v79h76v-79h-76z" />
    <glyph glyph-name="pe_dagesh" unicode="&#xfb44;" horiz-adv-x="430" 
d="M55 0v75h230v295q0 12 -1.5 26t-6.5 26t-14 20t-25 8h-93v-209h-90v284h182q78 0 108 -42t30 -116v-367h-320zM175 289v79h76v-79h-76z" />
    <glyph glyph-name="tsadi_dagesh" unicode="&#xfb46;" horiz-adv-x="404" 
d="M347 365q-2 -20 -9 -40.5t-19.5 -37t-30 -26.5t-40.5 -10l112 -251h-317v75h190l-208 450h91l107 -222q5 0 10.5 1t9.5 5q6 5 9.5 17t6 25.5t3.5 26t2 19.5l12 128h90zM70 113v79h76v-79h-76z" />
    <glyph glyph-name="qof_dagesh" unicode="&#xfb47;" horiz-adv-x="452" 
d="M322 0h-88l89 450h-268v75h372zM64 -160v492h90v-492h-90zM177 246v79h76v-79h-76z" />
    <glyph glyph-name="resh_dagesh" unicode="&#xfb48;" horiz-adv-x="343" 
d="M198 0v370q0 12 -1.5 26t-6.5 26t-14 20t-25 8h-126v75h125q39 0 65.5 -11.5t42.5 -32t23 -49.5t7 -65v-367h-90zM70 199v79h76v-79h-76z" />
    <glyph glyph-name="shin_dagesh" unicode="&#xfb49;" horiz-adv-x="532" 
d="M472 291q-3 -48 -15 -99t-36.5 -94t-63.5 -70.5t-97 -27.5h-169l-41 525h87l19 -253h13q12 0 20 9.5t13 22t7.5 26t3.5 21.5q4 44 7 87t6 87h88q-4 -45 -7.5 -90.5t-7.5 -90.5q-2 -25 -10.5 -48.5t-22.5 -42t-35 -30t-49 -11.5h-18l9 -137h76q36 0 61 23t41 56t23.5 70
t9.5 65q4 60 7.5 118t7.5 118h88zM256.662 145.553v70.7305h68.6758v-70.7305h-68.6758z" />
    <glyph glyph-name="tav_dagesh" unicode="&#xfb4a;" horiz-adv-x="484" 
d="M334 0v450h-134v-327q0 -27 -4 -49.5t-14.5 -39t-30 -25.5t-49.5 -9h-67v75h28.5t24 4.5t16.5 14t6 29.5v327h-73v75h387v-525h-90zM227 208v79h76v-79h-76z" />
    <glyph glyph-name="vav_holam" unicode="&#xfb4b;" horiz-adv-x="241" 
d="M91 0v450h-63v75h154v-525h-91zM72 571v79h76v-79h-76z" />
    <glyph glyph-name="bet_rafe" unicode="&#xfb4c;" horiz-adv-x="356" 
d="M32 0v75h158v375h-158v75h248v-450h44v-75h-292zM269 607h-224v48h224v-48z" />
    <glyph glyph-name="kaf_rafe" unicode="&#xfb4d;" horiz-adv-x="344" 
d="M294 168q0 -37 -9 -67.5t-27.5 -53t-46.5 -35t-67 -12.5h-112v75h113q19 0 31 9t18 22.5t8 30t2 31.5v195q0 15 -2.5 30.5t-9 28t-18 20.5t-29.5 8h-113v75h112q78 0 114 -44.5t36 -119.5v-193v0zM264 602h-224v48h224v-48z" />
    <glyph glyph-name="pe_rafe" unicode="&#xfb4e;" horiz-adv-x="430" 
d="M55 0v75h230v295q0 12 -1.5 26t-6.5 26t-14 20t-25 8h-93v-209h-90v284h182q78 0 108 -42t30 -116v-367h-320zM321 606h-224v48h224v-48z" />
    <glyph glyph-name="alef_lamed" unicode="&#xfb4f;" horiz-adv-x="533" 
 />
    <glyph glyph-name="uniFFFC" unicode="&#xfffc;" horiz-adv-x="884" 
d="M884 497h-43l-96 95v44h139v-139zM636 592h-139v44h139v-44zM884 248h-43v139h43v-139zM769 264q0 -104 -91 -104q-36 0 -59 20l31 33q10 -10 28 -10q41 0 41 59v208h50v-206zM387 592h-139v44h139v-44zM884 0h-139v43l96 97h43v-140zM615 256q0 -91 -119 -91h-103v305
h101q107 0 107 -80q0 -39 -38 -62q52 -19 52 -72zM140 592l-97 -95h-43v139h140v-44zM636 0h-139v43h139v-43zM369 317q0 -75 -35.5 -116t-101.5 -41q-67 0 -101.5 41t-34.5 116q0 76 34.5 117.5t101.5 41.5q66 0 101.5 -41.5t35.5 -117.5zM43 248h-43v139h43v-139zM387 0
h-139v43h139v-43zM140 0h-140v140h43l97 -97v-43zM552 386q0 42 -71 42h-39v-83h44q66 0 66 41zM564 256q0 46 -73 46h-49v-95h54q68 0 68 49zM318 317q0 116 -86 116q-85 0 -85 -116q0 -114 85 -114q86 0 86 114z" />
    <glyph glyph-name="qamats_qatan" unicode="&#x5c7;" horiz-adv-x="1" 
 />
    <glyph glyph-name="Private" horiz-adv-x="558" 
d="M460 263q0 -74 -53 -129q-53 -53 -127 -53t-129 53q-53 53 -53 129q0 74 53 127q55 52 129 52t127 -53t53 -126z" />
    <glyph glyph-name="alt_lamed" horiz-adv-x="347" 
d="M188 0h-88l118 450h-190v222h89v-147h211z" />
    <glyph glyph-name="alef_lamed_tsere" horiz-adv-x="533" 
 />
    <glyph glyph-name="alef_lamed_segol" horiz-adv-x="533" 
 />
    <glyph glyph-name="alef_lamed_hatafseg" horiz-adv-x="533" 
 />
    <glyph glyph-name="hatafsegol_meteg" horiz-adv-x="397" 
d="M380 263q0 -74 -53 -129q-53 -53 -127 -53t-129 53q-53 53 -53 129q0 74 53 127q55 52 129 52t127 -53t53 -126z" />
    <glyph glyph-name="hatafpatah_meteg" horiz-adv-x="417" 
d="M381 263q0 -74 -53 -129q-53 -53 -127 -53t-129 53q-53 53 -53 129q0 74 53 127q53 52 129 52q74 0 127 -53t53 -126z" />
    <glyph glyph-name="hatafqamats_meteg" horiz-adv-x="397" 
d="M380 263q0 -74 -53 -129q-53 -53 -127 -53t-129 53q-53 53 -53 129q0 74 53 127q55 52 129 52t127 -53t53 -126z" />
    <glyph glyph-name="sheva_na" horiz-adv-x="397" 
d="M380 263q0 -74 -53 -129q-53 -53 -127 -53t-129 53q-53 53 -53 129q0 74 53 127q55 52 129 52t127 -53t53 -126z" />
    <glyph glyph-name="nonbreakingspace" unicode="&#xa0;" horiz-adv-x="250" 
 />
    <glyph glyph-name="alef_dag_hazak" horiz-adv-x="446" 
d="M398 263q0 -75 -54 -129q-53 -53 -127 -53t-129 53q-53 53 -53 129q0 74 53 127q55 52 129 52t127 -53q54 -53 54 -126z" />
    <glyph glyph-name="bet_dag_hazak" horiz-adv-x="356" 
d="M32 0v75h158v375h-158v75h248v-450h44v-75h-292z" />
    <glyph glyph-name="gimel_dag_hazak" horiz-adv-x="301" 
d="M167 0l-7 144h-6q-6 -24 -14.5 -51.5t-23 -51.5t-35.5 -40t-51 -16v94q22 0 43.5 22.5t37.5 53t26 62t10 50.5q0 46 -2 91.5t-4 91.5h-94v75h178q5 -132 9.5 -262.5t15.5 -262.5h-83z" />
    <glyph glyph-name="dalet_dag_hazak" horiz-adv-x="355" 
d="M278 450v-450h-89v450h-164v75h298v-75h-45z" />
    <glyph glyph-name="vav_dag_hazak" horiz-adv-x="242" 
d="M92 0v450h-63v75h154v-525h-91z" />
    <glyph glyph-name="zayin_dag_hazak" horiz-adv-x="271" 
d="M217 450q-18 0 -27 -15.5t-13.5 -36.5t-5 -42.5t-0.5 -32.5v-323h-90v315q0 18 4 38t12 38.5t20 34t29 24.5h-106v75h199v-75h-22z" />
    <glyph glyph-name="tet_dag_hazak" horiz-adv-x="432" 
d="M392 322q0 -42 -8 -97.5t-28 -105.5t-56 -84.5t-91 -34.5h-131l-28 525h89l23 -450h41q22 0 38 14t27 36.5t18 50.5t11 55.5t5.5 51.5t1.5 39q0 14 -0.5 37t-5 44.5t-15 37.5t-31.5 16q-10 0 -22.5 -5t-18.5 -13v80q10 8 28 11t29 3q43 0 68 -20.5t37.5 -52t15.5 -68.5
t3 -70z" />
    <glyph glyph-name="yod_dag_hazak" horiz-adv-x="240" 
d="M92 242v208h-64v75h154v-283h-90z" />
    <glyph glyph-name="fina_kaf_dag_hazak" horiz-adv-x="344" 
d="M193 -160v610h-168v75h259v-685h-91z" />
    <glyph glyph-name="kaf_dag_hazak" horiz-adv-x="344" 
d="M294 168q0 -37 -9 -67.5t-27.5 -53t-46.5 -35t-67 -12.5h-112v75h113q19 0 31 9t18 22.5t8 30t2 31.5v195q0 15 -2.5 30.5t-9 28t-18 20.5t-29.5 8h-113v75h112q78 0 114 -44.5t36 -119.5v-193v0z" />
    <glyph glyph-name="lamed_dag_hazak" horiz-adv-x="347" 
d="M188 0h-88l118 450h-190v222h89v-147h211z" />
    <glyph glyph-name="mem_dag_hazak" horiz-adv-x="451" 
d="M210 0v75h96v295q0 15 -1.5 29.5t-6.5 26t-16 18t-29 6.5h-64l-48 -450h-89l48 450h-64v75h221q45 0 72.5 -13.5t42 -37t19.5 -56t5 -71.5v-347h-186z" />
    <glyph glyph-name="nun_dag_hazak" horiz-adv-x="258" 
d="M32 0v75h75v375h-69v75h160v-525h-166z" />
    <glyph glyph-name="samech_dag_hazak" horiz-adv-x="435" 
d="M390 449q0 -43 -1 -85t-4 -84q-4 -46 -12 -95.5t-28.5 -90.5t-55.5 -67.5t-93 -26.5h-118l-28 525h340v-76zM300 450h-156l18 -375h42q26 0 43.5 20t28.5 51t16 69t7 74.5t1.5 67.5t-0.5 48v45z" />
    <glyph glyph-name="final_pe_dag_hazak" horiz-adv-x="422" 
d="M276 -160v529q0 12 -1.5 26.5t-6 26.5t-14 20t-25.5 8h-90v-208h-89v283h178q40 0 67 -12t43 -33t22.5 -50.5t6.5 -65.5v-524h-91z" />
    <glyph glyph-name="pe_dag_hazak" horiz-adv-x="430" 
d="M55 0v75h230v295q0 12 -1.5 26t-6.5 26t-14 20t-25 8h-93v-209h-90v284h182q78 0 108 -42t30 -116v-367h-320z" />
    <glyph glyph-name="tsadi_dag_hazak" horiz-adv-x="404" 
d="M347 365q-2 -20 -9 -40.5t-19.5 -37t-30 -26.5t-40.5 -10l112 -251h-317v75h190l-208 450h91l107 -222q5 0 10.5 1t9.5 5q6 5 9.5 17t6 25.5t3.5 26t2 19.5l12 128h90z" />
    <glyph glyph-name="qof_dag_hazak" horiz-adv-x="452" 
d="M322 0h-88l89 450h-268v75h372zM64 -160v492h90v-492h-90z" />
    <glyph glyph-name="resh_dag_hazak" horiz-adv-x="343" 
d="M198 0v370q0 12 -1.5 26t-6.5 26t-14 20t-25 8h-126v75h125q39 0 65.5 -11.5t42.5 -32t23 -49.5t7 -65v-367h-90z" />
    <glyph glyph-name="shin_dag_hazak" horiz-adv-x="532" 
d="M472 291q-3 -48 -15 -99t-36.5 -94t-63.5 -70.5t-97 -27.5h-169l-41 525h87l19 -253h13q12 0 20 9.5t13 22t7.5 26t3.5 21.5q4 44 7 87t6 87h88q-4 -45 -7.5 -90.5t-7.5 -90.5q-2 -25 -10.5 -48.5t-22.5 -42t-35 -30t-49 -11.5h-18l9 -137h76q36 0 61 23t41 56t23.5 70
t9.5 65q4 60 7.5 118t7.5 118h88z" />
    <glyph glyph-name="tav_dag_hazak" horiz-adv-x="484" 
d="M334 0v450h-134v-327q0 -27 -4 -49.5t-14.5 -39t-30 -25.5t-49.5 -9h-67v75h28.5t24 4.5t16.5 14t6 29.5v327h-73v75h387v-525h-90z" />
    <glyph glyph-name="lamed_hol_dag_hazak" horiz-adv-x="347" 
d="M188 0h-88l118 450h-190v222h89v-147h211zM-21 630q0 -18 -12 -30t-30 -12t-30 12t-12 30t12 30.5t30 12.5t30 -12.5t12 -30.5z" />
    <glyph glyph-name="shin_shd_dag_hazak" horiz-adv-x="532" 
d="M472 291q-3 -48 -15 -99t-36.5 -94t-63.5 -70.5t-97 -27.5h-169l-41 525h87l19 -253h13q12 0 20 9.5t13 22t7.5 26t3.5 21.5q4 44 7 87t6 87h88q-4 -45 -7.5 -90.5t-7.5 -90.5q-2 -25 -10.5 -48.5t-22.5 -42t-35 -30t-49 -11.5h-18l9 -137h76q36 0 61 23t41 56t23.5 70
t9.5 65q4 60 7.5 118t7.5 118h88z" />
    <glyph glyph-name="shin_sd_dag_hazak" horiz-adv-x="532" 
d="M472 291q-3 -48 -15 -99t-36.5 -94t-63.5 -70.5t-97 -27.5h-169l-41 525h87l19 -253h13q12 0 20 9.5t13 22t7.5 26t3.5 21.5q4 44 7 87t6 87h88q-4 -45 -7.5 -90.5t-7.5 -90.5q-2 -25 -10.5 -48.5t-22.5 -42t-35 -30t-49 -11.5h-18l9 -137h76q36 0 61 23t41 56t23.5 70
t9.5 65q4 60 7.5 118t7.5 118h88z" />
    <glyph glyph-name="dagesh_hazak" horiz-adv-x="0" 
 />
    <glyph glyph-name="rightleftspace" horiz-adv-x="250" 
 />
    <glyph glyph-name="enmaqaf" horiz-adv-x="126" 
 />
    <glyph glyph-name="enminus" horiz-adv-x="426" 
d="M47 214v61h298v-61h-298z" />
    <glyph glyph-name="hZero.prop" 
d="M348 262q0 -41 -3.5 -89t-18.5 -90t-45.5 -70t-85.5 -28q-54 0 -84.5 28.5t-45.5 70.5t-19 90t-4 88q0 27 1.5 58t6.5 62t15 59.5t27 50.5t42.5 35t61.5 13q54 0 84.5 -28.5t45.5 -70.5t18.5 -90.5t3.5 -88.5zM268 262v32t-1.5 43t-6 47t-12.5 43t-20.5 31t-31.5 12
t-32 -12t-21 -31t-12.5 -43t-6.5 -47t-2 -43v-32v-32t2 -43t6.5 -47t13 -43t21.5 -31t32 -12q18 0 30.5 12t20.5 31.5t12 43.5t6 47t2 42.5v31.5z" />
    <glyph glyph-name="hOne.prop" horiz-adv-x="316" 
d="M139 0v441l-89 -83v88l94 79h76v-525h-81z" />
    <glyph glyph-name="hTwo.prop" 
d="M52 0v91q36 42 72.5 84t71.5 85q19 23 34.5 52.5t15.5 60.5q0 45 -19 71.5t-67 26.5q-26 0 -54.5 -13t-46.5 -33v86q20 14 48.5 21.5t52.5 7.5q88 0 130 -38.5t42 -128.5q0 -20 -7 -41.5t-18 -41.5t-24.5 -38.5t-26.5 -32.5l-136 -148h218v-71h-286z" />
    <glyph glyph-name="hThree.prop" 
d="M342 149q0 -44 -13.5 -75t-38 -51t-58.5 -29t-74 -9q-26 0 -57 7.5t-53 21.5v85q20 -21 50.5 -33.5t59.5 -12.5q45 0 72.5 26t27.5 71t-29 72.5t-74 27.5q-8 0 -16.5 -0.5t-16.5 -1.5v64l24 2q16 1 33.5 8t32 18t23.5 26t9 33q0 39 -25 56t-62 17q-26 0 -53 -12.5
t-44 -32.5v84q20 15 51.5 22t55.5 7q35 0 65 -7.5t51.5 -24t34 -43t12.5 -64.5q0 -21 -8.5 -39.5t-23 -33.5t-33 -25.5t-37.5 -16.5q50 -10 82 -48t32 -89z" />
    <glyph glyph-name="hFour.prop" 
d="M307 125v-125h-78v125h-196v73l172 327h102v-333h49v-67h-49zM232 453q-12 -32 -29 -64t-33 -61l-74 -137h132v200q0 16 1.5 31.5t2.5 30.5z" />
    <glyph glyph-name="hFive.prop" 
d="M337 157q0 -37 -12.5 -68.5t-35 -54.5t-53.5 -36t-68 -13q-13 0 -28.5 1.5t-31.5 5.5t-30.5 9.5t-25.5 13.5v83q7 -12 20 -20.5t28.5 -14t31 -8.5t29.5 -3q22 0 40 9t30.5 23.5t19 34t6.5 40.5q0 19 -7.5 37.5t-20 32t-30 22t-37.5 8.5q-23 0 -52 -7t-48 -22v295h260v-71
h-182v-137q11 2 23.5 4.5t23.5 2.5q36 0 64 -13t47 -36t29 -53.5t10 -64.5z" />
    <glyph glyph-name="hSix.prop" 
d="M347 169q0 -34 -9 -67t-27 -59t-46 -42t-66 -16q-55 0 -86.5 25.5t-47 64.5t-19.5 85.5t-4 89.5t5.5 94t23.5 94.5t52 72.5t91 29q9 0 24 -1t30 -4.5t28 -9.5t19 -15v-77q-6 11 -17 18.5t-23.5 12.5t-26 7.5t-24.5 2.5q-36 0 -55.5 -18t-29.5 -44.5t-13 -57.5t-5 -57
q13 20 35.5 36t46.5 16q40 0 67.5 -15t44.5 -40t24.5 -57.5t7.5 -67.5zM267 170q0 18 -2.5 37.5t-10 35.5t-22 26.5t-37.5 10.5q-21 0 -34 -11t-21 -27t-11 -35t-3 -35t3 -36.5t11 -38.5t21.5 -30.5t34.5 -12.5q23 0 37 11.5t21.5 28.5t10 37.5t2.5 38.5z" />
    <glyph glyph-name="hSeven.prop" 
d="M339 436q-16 -40 -33.5 -78.5t-34.5 -79.5q-26 -67 -46 -136.5t-31 -141.5h-84q10 59 28 116.5t40 113.5t47.5 111t50.5 109h-226v75h289v-89v0z" />
    <glyph glyph-name="hEight.prop" 
d="M359 149q0 -81 -42 -122.5t-122 -41.5t-122 41.5t-42 122.5q0 45 24.5 79.5t66.5 48.5q-41 14 -60 44.5t-19 72.5q0 73 40.5 109.5t111.5 36.5t111.5 -36.5t40.5 -108.5q0 -42 -19 -73t-60 -45q42 -14 66.5 -48.5t24.5 -79.5zM266 391q0 35 -16.5 60.5t-54.5 25.5
t-54.5 -25.5t-16.5 -60.5q0 -34 17 -59t54 -25t54 25t17 59zM279 147q0 43 -19 71.5t-65 28.5t-65 -28.5t-19 -70.5q0 -39 20.5 -69.5t62.5 -30.5q21 0 37 8.5t26.5 22t16 31.5t5.5 37z" />
    <glyph glyph-name="hNine.prop" 
d="M347 275q0 -44 -5.5 -94.5t-23.5 -94t-52 -72.5t-91 -29q-11 0 -26.5 1.5t-31.5 5t-30 9t-23 14.5v81q17 -22 46 -33.5t55 -11.5q36 0 56 19t29.5 47.5t12.5 60.5t5 58q-12 -20 -35 -36t-47 -16q-40 0 -67.5 14.5t-44.5 38.5t-24.5 56t-7.5 67t8.5 67.5t26.5 57.5t46 40
t67 15q55 0 86.5 -25.5t47 -64.5t19.5 -85.5t4 -89.5zM263 357q0 16 -3 36t-11 37t-21.5 29t-34.5 12q-23 0 -37 -10.5t-21.5 -27t-10 -36.5t-2.5 -38q0 -19 2.5 -38t10.5 -34t22 -24.5t37 -9.5q21 0 34 10t21 25.5t11 33.5t3 35z" />
    <glyph glyph-name="mercha_kefula" horiz-adv-x="397" 
d="M380 263q0 -74 -53 -129q-53 -53 -127 -53t-129 53q-53 53 -53 129q0 74 53 127q55 52 129 52t127 -53t53 -126z" />
    <glyph glyph-name="darga" horiz-adv-x="417" 
d="M381 263q0 -74 -53 -129q-53 -53 -127 -53t-129 53q-53 53 -53 129q0 74 53 127q53 52 129 52q74 0 127 -53t53 -126z" />
    <glyph glyph-name="qadma" horiz-adv-x="397" 
d="M380 263q0 -74 -53 -129q-53 -53 -127 -53t-129 53q-53 53 -53 129q0 74 53 127q55 52 129 52t127 -53t53 -126z" />
    <glyph glyph-name="telisha_qetana" horiz-adv-x="397" 
d="M380 263q0 -74 -53 -129q-53 -53 -127 -53t-129 53q-53 53 -53 129q0 74 53 127q55 52 129 52t127 -53t53 -126z" />
    <glyph glyph-name="yerach_ben_yomo" horiz-adv-x="397" 
d="M380 263q0 -74 -53 -129q-53 -53 -127 -53t-129 53q-53 53 -53 129q0 74 53 127q55 52 129 52t127 -53t53 -126z" />
    <glyph glyph-name="ole" horiz-adv-x="417" 
d="M381 263q0 -74 -53 -129q-53 -53 -127 -53t-129 53q-53 53 -53 129q0 74 53 127q53 52 129 52q74 0 127 -53t53 -126z" />
    <glyph glyph-name="iluy" horiz-adv-x="397" 
d="M380 263q0 -74 -53 -129q-53 -53 -127 -53t-129 53q-53 53 -53 129q0 74 53 127q55 52 129 52t127 -53t53 -126z" />
    <glyph glyph-name="dehi" horiz-adv-x="397" 
d="M380 263q0 -74 -53 -129q-53 -53 -127 -53t-129 53q-53 53 -53 129q0 74 53 127q55 52 129 52t127 -53t53 -126z" />
    <glyph glyph-name="onethird" unicode="&#x2153;" horiz-adv-x="710" 
d="M473 626l-290 -637h-50l290 637h50zM624 100q0 17 -6 32.5t-16 28t-24.5 21t-30.5 11.5q13 3 25.5 10.5t22 17.5t15 22.5t5.5 26.5q0 26 -8 44t-23 29t-35 16t-44 5q-8 0 -17.5 -1t-19.5 -3.5t-19 -6t-16 -8.5v-57q12 14 30 22t36 8q12 0 22.5 -2.5t18.5 -8.5t12.5 -15.5
t4.5 -22.5q0 -12 -6 -22t-15.5 -17.5t-21.5 -12t-23 -5.5l-16 -2v-43q6 1 11.5 1h10.5q15 0 28 -4.5t22 -13.5t14.5 -21.5t5.5 -27.5q0 -30 -19 -47.5t-49 -17.5q-19 0 -40 8t-34 23v-58q8 -5 17 -8.5t19 -6t20 -3.5t18 -1q27 0 50 6t39.5 19.5t26 34.5t9.5 50zM170 260v354
h-51l-64 -53v-60l60 56v-297h55z" />
    <glyph glyph-name="Uhungarumlaut" unicode="&#x170;" horiz-adv-x="553" 
d="M274 -20q-41 0 -77.5 16t-64.5 47t-44 77t-16 106v502h97v-526q0 -33 8.5 -58.5t23 -43t33.5 -26.5t40 -9q20 0 40 8.5t36 26t26 43t10 59.5v526h97v-502q0 -62 -17.5 -108t-46.5 -76.5t-66.5 -46t-78.5 -15.5zM199 939h85l-78 -156h-40zM329 939h85l-78 -156h-40z" />
    <glyph glyph-name="inverse_nun" horiz-adv-x="336" 
d="M281.002 0v75h-74.9951v375h68.9951v75h-159.99v-525h165.99z" />
    <glyph glyph-name="shiluv" horiz-adv-x="397" 
d="M380 263q0 -74 -53 -129q-53 -53 -127 -53t-129 53q-53 53 -53 129q0 74 53 127q55 52 129 52t127 -53t53 -126z" />
    <glyph glyph-name="ohungarumlaut" unicode="&#x151;" horiz-adv-x="448" 
d="M228 449q-24 0 -41.5 -17.5t-29.5 -45.5t-18 -61.5t-6 -65.5q0 -21 4 -53t14.5 -62t29 -51t46.5 -21q25 0 43 16t29.5 42.5t16.5 60t5 68.5q0 30 -6 63.5t-18 61.5t-29.5 46.5t-39.5 18.5zM43 261q0 63 13 113.5t37 86t58 54t76 18.5q41 0 75 -18.5t58 -54t37.5 -86
t13.5 -113.5t-13.5 -113t-37.5 -85.5t-58 -54t-75 -18.5q-42 0 -76 18.5t-58 54t-37 85.5t-13 113zM140 739h85l-78 -156h-40zM270 739h85l-78 -156h-40z" />
    <glyph glyph-name="Ohungarumlaut" unicode="&#x150;" horiz-adv-x="561" 
d="M280 -20q-61 0 -107.5 27.5t-78 78.5t-47.5 122.5t-16 159.5q0 87 16.5 157.5t48.5 120t78.5 76t105.5 26.5q60 0 106.5 -26.5t78.5 -76t48.5 -120t16.5 -157.5q0 -88 -16.5 -159.5t-48.5 -122.5t-78.5 -78.5t-106.5 -27.5zM280 663q-42 0 -70 -25t-45.5 -66.5
t-24.5 -94.5t-7 -109t7 -110.5t24 -97t45.5 -69t70.5 -26.5t70.5 26.5t45.5 69.5t24 97t7 110q0 55 -7 108.5t-24.5 94.5t-45.5 66.5t-70 25.5zM220 939h85l-78 -156h-40zM350 939h85l-78 -156h-40z" />
    <glyph glyph-name="uhungarumlaut" unicode="&#x171;" horiz-adv-x="451" 
d="M303 34q-21 -24 -46.5 -34t-53.5 -10q-24 0 -49 8.5t-45 26.5t-33 46t-13 68v386h90v-378q0 -31 15.5 -53.5t35.5 -22.5q26 0 52.5 22t40.5 57q1 3 3.5 11t2.5 10v354h90v-525h-90v34zM161 771h85l-78 -156h-40zM291 771h85l-78 -156h-40z" />
    <glyph glyph-name="alt_lamed_dagesh" horiz-adv-x="347" 
d="M188 0h-88l118 450h-190v222h89v-147h211zM63 274v79h76v-79h-76z" />
    <glyph glyph-name=".notdef.001" horiz-adv-x="0" 
d="M0 619h442v-619h-442v619zM371 575h-300l150 -226zM398 84v451l-150 -225zM371 44l-150 226l-150 -226h300zM44 84l151 226l-151 225v-451z" />
    <glyph glyph-name="softhyphen" unicode="&#xad;" horiz-adv-x="393" 
d="M48 214v61h298v-61h-298z" />
    <glyph glyph-name="uni2010" unicode="&#x2010;" 
d="M47 214v61h298v-61h-298z" />
    <glyph glyph-name="figuredash" unicode="&#x2012;" horiz-adv-x="542" 
d="M478 223q-27 2 -64 3.5t-78.5 2.5t-84 1t-81 -0.5t-69 -2.5t-47.5 -4l-7 9l21 73h429z" />
    <glyph glyph-name="horizontalbar" unicode="&#x2015;" horiz-adv-x="542" 
d="M478 223q-27 2 -64 3.5t-78.5 2.5t-84 1t-81 -0.5t-69 -2.5t-47.5 -4l-7 9l21 73h429z" />
    <glyph glyph-name="hZero.tab" unicode="&#xe000;" 
d="M348 262q0 -41 -3.5 -89t-18.5 -90t-45.5 -70t-85.5 -28q-54 0 -84.5 28.5t-45.5 70.5t-19 90t-4 88q0 27 1.5 58t6.5 62t15 59.5t27 50.5t42.5 35t61.5 13q54 0 84.5 -28.5t45.5 -70.5t18.5 -90.5t3.5 -88.5zM268 262v32t-1.5 43t-6 47t-12.5 43t-20.5 31t-31.5 12
t-32 -12t-21 -31t-12.5 -43t-6.5 -47t-2 -43v-32v-32t2 -43t6.5 -47t13 -43t21.5 -31t32 -12q18 0 30.5 12t20.5 31.5t12 43.5t6 47t2 42.5v31.5z" />
    <glyph glyph-name="hOne.tab" unicode="&#xe001;" 
d="M180 0v441l-89 -83v88l94 79h76v-525h-81z" />
    <glyph glyph-name="hTwo.tab" unicode="&#xe002;" 
d="M50 0v91q36 42 72.5 84t71.5 85q19 23 34.5 52.5t15.5 60.5q0 45 -19 71.5t-67 26.5q-26 0 -54.5 -13t-46.5 -33v86q20 14 48.5 21.5t52.5 7.5q88 0 130 -38.5t42 -128.5q0 -20 -7 -41.5t-18 -41.5t-24.5 -38.5t-26.5 -32.5l-136 -148h218v-71h-286z" />
    <glyph glyph-name="hThree.tab" unicode="&#xe003;" 
d="M336 149q0 -44 -13.5 -75t-38 -51t-58.5 -29t-74 -9q-26 0 -57 7.5t-53 21.5v85q20 -21 50.5 -33.5t59.5 -12.5q45 0 72.5 26t27.5 71t-29 72.5t-74 27.5q-8 0 -16.5 -0.5t-16.5 -1.5v64l24 2q16 1 33.5 8t32 18t23.5 26t9 33q0 39 -25 56t-62 17q-26 0 -53 -12.5
t-44 -32.5v84q20 15 51.5 22t55.5 7q35 0 65 -7.5t51.5 -24t34 -43t12.5 -64.5q0 -21 -8.5 -39.5t-23 -33.5t-33 -25.5t-37.5 -16.5q50 -10 82 -48t32 -89z" />
    <glyph glyph-name="hFour.tab" unicode="&#xe004;" 
d="M305 125v-125h-78v125h-196v73l172 327h102v-333h49v-67h-49zM230 453q-12 -32 -29 -64t-33 -61l-74 -137h132v200q0 16 1.5 31.5t2.5 30.5z" />
    <glyph glyph-name="hFive.tab" unicode="&#xe005;" 
d="M348 157q0 -37 -12.5 -68.5t-35 -54.5t-53.5 -36t-68 -13q-13 0 -28.5 1.5t-31.5 5.5t-30.5 9.5t-25.5 13.5v83q7 -12 20 -20.5t28.5 -14t31 -8.5t29.5 -3q22 0 40 9t30.5 23.5t19 34t6.5 40.5q0 19 -7.5 37.5t-20 32t-30 22t-37.5 8.5q-23 0 -52 -7t-48 -22v295h260v-71
h-182v-137q11 2 23.5 4.5t23.5 2.5q36 0 64 -13t47 -36t29 -53.5t10 -64.5z" />
    <glyph glyph-name="hSix.tab" unicode="&#xe006;" 
d="M352 169q0 -34 -9 -67t-27 -59t-46 -42t-66 -16q-55 0 -86.5 25.5t-47 64.5t-19.5 85.5t-4 89.5t5.5 94t23.5 94.5t52 72.5t91 29q9 0 24 -1t30 -4.5t28 -9.5t19 -15v-77q-6 11 -17 18.5t-23.5 12.5t-26 7.5t-24.5 2.5q-36 0 -55.5 -18t-29.5 -44.5t-13 -57.5t-5 -57
q13 20 35.5 36t46.5 16q40 0 67.5 -15t44.5 -40t24.5 -57.5t7.5 -67.5zM272 170q0 18 -2.5 37.5t-10 35.5t-22 26.5t-37.5 10.5q-21 0 -34 -11t-21 -27t-11 -35t-3 -35t3 -36.5t11 -38.5t21.5 -30.5t34.5 -12.5q23 0 37 11.5t21.5 28.5t10 37.5t2.5 38.5z" />
    <glyph glyph-name="hSeven.tab" unicode="&#xe007;" 
d="M335 436q-16 -40 -33.5 -78.5t-34.5 -79.5q-26 -67 -46 -136.5t-31 -141.5h-84q10 59 28 116.5t40 113.5t47.5 111t50.5 109h-226v75h289v-89v0z" />
    <glyph glyph-name="hEight.tab" unicode="&#xe008;" 
d="M359 149q0 -81 -42 -122.5t-122 -41.5t-122 41.5t-42 122.5q0 45 24.5 79.5t66.5 48.5q-41 14 -60 44.5t-19 72.5q0 73 40.5 109.5t111.5 36.5t111.5 -36.5t40.5 -108.5q0 -42 -19 -73t-60 -45q42 -14 66.5 -48.5t24.5 -79.5zM266 391q0 35 -16.5 60.5t-54.5 25.5
t-54.5 -25.5t-16.5 -60.5q0 -34 17 -59t54 -25t54 25t17 59zM279 147q0 43 -19 71.5t-65 28.5t-65 -28.5t-19 -70.5q0 -39 20.5 -69.5t62.5 -30.5q21 0 37 8.5t26.5 22t16 31.5t5.5 37z" />
    <glyph glyph-name="hNine.tab" unicode="&#xe009;" 
d="M344 275q0 -44 -5.5 -94.5t-23.5 -94t-52 -72.5t-91 -29q-11 0 -26.5 1.5t-31.5 5t-30 9t-23 14.5v81q17 -22 46 -33.5t55 -11.5q36 0 56 19t29.5 47.5t12.5 60.5t5 58q-12 -20 -35 -36t-47 -16q-40 0 -67.5 14.5t-44.5 38.5t-24.5 56t-7.5 67t8.5 67.5t26.5 57.5t46 40
t67 15q55 0 86.5 -25.5t47 -64.5t19.5 -85.5t4 -89.5zM260 357q0 16 -3 36t-11 37t-21.5 29t-34.5 12q-23 0 -37 -10.5t-21.5 -27t-10 -36.5t-2.5 -38q0 -19 2.5 -38t10.5 -34t22 -24.5t37 -9.5q21 0 34 10t21 25.5t11 33.5t3 35z" />
    <glyph glyph-name="tevir" horiz-adv-x="480" 
 />
    <glyph glyph-name="geresh_taam" horiz-adv-x="0" 
 />
    <glyph glyph-name="geresh_muqdam" horiz-adv-x="0" 
 />
    <glyph glyph-name="gershayim_taam" horiz-adv-x="0" 
 />
    <glyph glyph-name="karnei_para" horiz-adv-x="0" 
 />
    <glyph glyph-name="telisha_gdola" horiz-adv-x="0" 
 />
  </font>
</defs>
</svg>
