<?xml version="1.0" standalone="no"?>
<!DOCTYPE svg PUBLIC "-//W3C//DTD SVG 1.1//EN" "http://www.w3.org/Graphics/SVG/1.1/DTD/svg11.dtd" >
<svg xmlns="http://www.w3.org/2000/svg" xmlns:xlink="http://www.w3.org/1999/xlink" version="1.1">
<metadata>
Created by FontForge 20161003 at Sun Oct 22 14:45:06 2017
 By www-data
Copyright (c) 2015 by Masterfont LTD. Studio Rosenberg. All rights reserved.
</metadata>
<defs>
<font id="NarkisBlockMFOCond-Thin" horiz-adv-x="0" >
  <font-face 
    font-family="NarkisBlockMFOCond Thin"
    font-weight="250"
    font-stretch="normal"
    units-per-em="1000"
    panose-1="1 0 5 3 0 0 0 2 0 3"
    ascent="800"
    descent="-200"
    x-height="525"
    cap-height="728"
    bbox="-112 -372 1000 939"
    underline-thickness="50"
    underline-position="-100"
    unicode-range="U+0020-FFFC"
  />
<missing-glyph horiz-adv-x="221" 
 />
    <glyph glyph-name=".notdef" horiz-adv-x="221" 
 />
    <glyph glyph-name="NULL" 
 />
    <glyph glyph-name="nonmarkingreturn" horiz-adv-x="221" 
 />
    <glyph glyph-name="space" unicode=" " horiz-adv-x="250" 
 />
    <glyph glyph-name="exclam" unicode="!" horiz-adv-x="300" 
d="M151 204h-58l-24 597h107zM87 0v75h76v-75h-76z" />
    <glyph glyph-name="quotedbl" unicode="&#x22;" horiz-adv-x="347" 
d="M94 381h-32l38 245h60zM218 381h-32l38 245h60z" />
    <glyph glyph-name="numbersign" unicode="#" horiz-adv-x="474" 
d="M397 327h-83l-25 -122h86l-6 -33h-87l-34 -172h-34l34 172h-104l-35 -172h-34l35 172h-85l7 33h84l24 122h-86l8 33h86l33 165h33l-32 -165h105l32 165h34l-32 -165h85zM174 327l-23 -122h105l23 122h-105z" />
    <glyph glyph-name="dollar" unicode="$" horiz-adv-x="439" 
d="M117 2q-38 13 -86 44v93q40 -41 80.5 -61.5t93.5 -21.5v285q-3 0 -5 2q-85 34 -125.5 78.5t-40.5 118.5q0 61 23.5 105.5t62.5 68.5t85 26v48h27v-49q40 -2 72 -13.5t75 -35.5v-86q-7 7 -29 29.5t-50.5 33.5t-67.5 12v-261l8 -3q79 -33 123.5 -83t44.5 -122
q0 -95 -48 -153.5t-128 -66.5v-70h-27v68q-50 1 -88 14zM131 478q27 -27 74 -49v248q-46 -7 -73.5 -41.5t-27.5 -87.5q0 -43 27 -70zM311 269q-27 34 -79 60v-271q42 9 74 41.5t32 86.5q0 49 -27 83z" />
    <glyph glyph-name="percent" unicode="%" horiz-adv-x="616" 
d="M39 523q4 36 24.5 64t63.5 28q62 0 79.5 -51.5t17.5 -130.5q0 -73 -18 -126t-79 -53q-59 0 -75.5 50.5t-16.5 128.5q0 54 4 90zM148 -11h40l277 610h-40zM84.5 330.5q9.5 -40.5 42.5 -40.5q36 0 46 42t10 97q0 70 -9.5 111.5t-46.5 41.5q-34 0 -43 -39.5t-9 -116.5
q0 -55 9.5 -95.5zM399 263q4 36 24.5 64t63.5 28q62 0 79.5 -51.5t17.5 -130.5q0 -73 -18 -126t-79 -53q-59 0 -75.5 50.5t-16.5 128.5q0 54 4 90zM444.5 70.5q9.5 -40.5 42.5 -40.5q36 0 46 42t10 97q0 70 -9.5 111.5t-46.5 41.5q-34 0 -43 -39.5t-9 -116.5
q0 -55 9.5 -95.5z" />
    <glyph glyph-name="ampersand" unicode="&#x26;" horiz-adv-x="592" 
d="M517.5 201.5q-12.5 -40.5 -39.5 -75.5l113 -126h-106l-51 66q-38 -40 -79 -62t-112 -22q-66 0 -112 26t-68.5 67t-22.5 85q0 62 45.5 113.5t118.5 85.5l-40 50q-20 26 -31 51.5t-14 54.5q0 41 20.5 74.5t55 52.5t75.5 19q80 0 117 -39.5t37 -106.5q0 -48 -25.5 -84
t-95.5 -86l131 -156q11 25 18.5 58.5t7.5 65.5h76q-6 -71 -18.5 -111.5zM336.5 464q14.5 31 14.5 62q0 36 -17 55t-65 19q-30 0 -53 -21.5t-23 -52.5q0 -48 42 -94l35 -38q52 39 66.5 70zM126 168q0 -32 16.5 -58.5t43 -41.5t54.5 -15q38 0 62.5 7.5t42.5 22.5t44 45
l-148 185q-115 -76 -115 -145z" />
    <glyph glyph-name="quotesingle" unicode="'" horiz-adv-x="223" 
d="M94 381h-32l38 245h60z" />
    <glyph glyph-name="parenleft" unicode="(" horiz-adv-x="290" 
d="M88 76q-37 132 -37 240q0 107 37 240q41 143 93 213h43q-55 -93 -82 -216q-28 -113 -28 -236q0 -121 27 -238q29 -125 83 -217h-43q-54 70 -93 214z" />
    <glyph glyph-name="parenright" unicode=")" horiz-adv-x="290" 
d="M202 76q-39 -144 -93 -214h-43q53 89 82 217q28 116 28 238q0 265 -110 452h43q54 -71 93 -213q37 -132 37 -240t-37 -240z" />
    <glyph glyph-name="asterisk" unicode="*" horiz-adv-x="387" 
d="M317 349l-109 69l6 -129h-46l5 129l-108 -69l-23 39l114 60l-114 60l23 39l108 -68l-5 128h46l-5 -128l108 68l23 -39l-113 -60l113 -60z" />
    <glyph glyph-name="plus" unicode="+" horiz-adv-x="400" 
d="M224 226v-171h-48v171h-130v43h130v166h48v-166h131v-43h-131z" />
    <glyph glyph-name="comma" unicode="," horiz-adv-x="204" 
d="M45 -141h-36l40 234h88z" />
    <glyph glyph-name="hyphen" unicode="-" horiz-adv-x="400" 
d="M46 226v43h309v-43h-309z" />
    <glyph glyph-name="period" unicode="." horiz-adv-x="185" 
d="M36 0v87h85v-87h-85z" />
    <glyph glyph-name="slash" unicode="/" horiz-adv-x="350" 
d="M79 -87h-50l242 694h50z" />
    <glyph glyph-name="zero" unicode="0" horiz-adv-x="507" 
d="M66.5 529q9.5 72 50 126.5t125.5 54.5q86 0 128.5 -57t53.5 -132.5t11 -174.5q0 -90 -11 -165t-53.5 -134t-128.5 -59q-84 0 -125 58t-50.5 133t-9.5 176q0 102 9.5 174zM157 140.5q19 -80.5 85 -80.5q52 0 76.5 50t29.5 108t5 128q0 88 -6 148.5t-30.5 104.5t-74.5 44
q-47 0 -70 -41.5t-28.5 -104.5t-5.5 -166q0 -110 19 -190.5z" />
    <glyph glyph-name="one" unicode="1" horiz-adv-x="507" 
d="M258 0v621l-105 -100v84l104 93h81v-698h-80z" />
    <glyph glyph-name="two" unicode="2" horiz-adv-x="507" 
d="M68 0v80l207 287q60 83 60 148q0 66 -25.5 94t-88.5 28q-71 0 -109 -45l-28 -33v95q37 58 150 58q96 0 138.5 -43.5t42.5 -139.5q0 -85 -73 -185l-197 -271h278v-73h-355z" />
    <glyph glyph-name="three" unicode="3" horiz-adv-x="507" 
d="M370 43q-54 -56 -156 -56q-99 0 -147 48v94q51 -68 147 -68q130 0 130 142q0 40 -18 71.5t-48.5 48.5t-67.5 16l-55 -3v68l48 3q56 3 92 37t36 87q0 106 -117 106q-90 0 -133 -64v89q23 22 59 36t74 14q98 0 143 -36q52 -42 52 -136q0 -59 -26.5 -99t-88.5 -65
q64 -19 97 -57t33 -117q0 -103 -54 -159z" />
    <glyph glyph-name="four" unicode="4" horiz-adv-x="507" 
d="M450 166h-64v-166h-77v166h-268v91l230 441h115v-457h64v-75zM279 579l-174 -338h202l3 401z" />
    <glyph glyph-name="five" unicode="5" horiz-adv-x="507" 
d="M368.5 49q-55.5 -61 -161.5 -61q-100 0 -139 48v92q41 -68 139 -68q139 0 139 159q0 77 -32 109t-108 32q-41 0 -80 -21l-44 -26v385h324v-73h-250v-214q52 20 82 20q186 0 186 -210q0 -111 -55.5 -172z" />
    <glyph glyph-name="six" unicode="6" horiz-adv-x="507" 
d="M392 61q-50 -74 -143 -74q-96 0 -137 53q-36 42 -47 144q-8 75 -8 164q0 364 201 364q96 0 142 -40v-83q-37 31 -62 43q-29 12 -76 12q-125 0 -125 -265q26 42 52 57.5t70 15.5q100 0 141 -68q34 -52 34 -159q0 -99 -42 -164zM247 388q-107 0 -107 -162q0 -81 16 -114
q26 -57 91 -57q108 0 108 170q0 163 -108 163z" />
    <glyph glyph-name="seven" unicode="7" horiz-adv-x="507" 
d="M240 0h-83q48 282 204 622h-295v76h359v-89q-132 -291 -185 -609z" />
    <glyph glyph-name="eight" unicode="8" horiz-adv-x="507" 
d="M246 -12q-189 0 -189 202q0 137 108 174q-96 39 -96 157q0 189 177 189t177 -190q0 -120 -94 -156q106 -37 106 -174q0 -202 -189 -202zM246 646q-100 0 -100 -127q0 -128 100 -128t100 128q0 127 -100 127zM246 336q-110 0 -110 -143q0 -141 110 -141t110 141
q0 143 -110 143z" />
    <glyph glyph-name="nine" unicode="9" horiz-adv-x="507" 
d="M216 -16q-51 0 -70 5q-27 9 -60 35v82q14 -12 26.5 -22l17.5 -14q31 -18 86 -18q140 0 140 282q-45 -73 -124 -73q-102 0 -142 61q-33 50 -33 157q0 98 42 161q51 72 144 72q91 0 134 -51q35 -41 50 -138q8 -64 8 -165q0 -374 -219 -374zM244 644q-107 0 -107 -165
q0 -73 18 -108q24 -46 89 -46q105 0 105 152q0 167 -105 167z" />
    <glyph glyph-name="colon" unicode=":" horiz-adv-x="208" 
d="M39 398h80v-90h-80v90zM39 90h80v-90h-80v90z" />
    <glyph glyph-name="semicolon" unicode=";" horiz-adv-x="208" 
d="M50 398h80v-90h-80v90zM10 -147l42 240h86l-88 -240h-40z" />
    <glyph glyph-name="less" unicode="&#x3c;" horiz-adv-x="400" 
d="M45 212v53l310 186v-54l-265 -158l265 -157v-55z" />
    <glyph glyph-name="equal" unicode="=" horiz-adv-x="400" 
d="M46 299v48h309v-48h-309zM46 192v48h309v-48h-309z" />
    <glyph glyph-name="greater" unicode="&#x3e;" horiz-adv-x="400" 
d="M46 27v54l265 158l-265 157v55l310 -185v-53z" />
    <glyph glyph-name="question" unicode="?" horiz-adv-x="314" 
d="M234.5 420q-32.5 -56 -85.5 -91v-141h-67v165q31 8 58 37.5t43 69t16 73.5q0 153 -97 153q-52 0 -84 -32v60q26 26 84 26q165 0 165 -206q0 -58 -32.5 -114zM85 0v75h64v-75h-64z" />
    <glyph glyph-name="at" unicode="@" horiz-adv-x="896" 
d="M569 233q-5 -14 -5 -29q0 -24 20 -24q23 0 52.5 15.5t52.5 59t23 121.5q0 67 -32 119.5t-86 81t-119 28.5q-83 0 -149.5 -37.5t-104 -105t-37.5 -154.5q0 -80 41 -141.5t106 -94.5t136 -33q150 0 219 102h59q-32 -81 -113.5 -120t-184.5 -39q-82 0 -156.5 41.5
t-120.5 115.5t-46 166q0 112 46.5 192.5t126.5 122t179 41.5q79 0 147 -34t108.5 -97t40.5 -144q0 -83 -30 -142.5t-79.5 -90t-107.5 -30.5q-25 0 -37.5 11.5t-20.5 43.5q-29 -31 -50.5 -43t-55.5 -12q-40 0 -71 20.5t-47.5 53.5t-16.5 68q0 59 26.5 117t74 95t106.5 37
q41 0 63.5 -22t39.5 -49l19 57h61zM545 370q0 37 -22.5 60t-56.5 23q-35 0 -67.5 -28t-52 -71t-19.5 -83q0 -38 19 -63t57 -25q86 0 117 94l20 58q5 20 5 35z" />
    <glyph glyph-name="A" unicode="A" horiz-adv-x="479" 
d="M469 0l-9 33q-124 473 -181 695h-79l-190 -728h69l59 235h203l59 -235h69zM222.5 583q11.5 53 15.5 74h3q4 -21 15.5 -74t21.5 -95l49 -195h-174l48 195q10 42 21.5 95z" />
    <glyph glyph-name="B" unicode="B" horiz-adv-x="501" 
d="M348 29.5q43 29.5 70 79t27 104.5q0 59 -30 109.5t-72 66.5q37 29 55.5 70t18.5 90q0 51 -22.5 92t-56.5 64t-67 23h-201v-728h192q43 0 86 29.5zM322 628.5q26 -41.5 26 -92.5q0 -46 -25.5 -84t-70.5 -38h-114v256h105q53 0 79 -41.5zM345 314.5q30 -41.5 30 -98.5
q0 -36 -14 -72.5t-41 -61t-65 -24.5h-117v298h132q45 0 75 -41.5z" />
    <glyph glyph-name="C" unicode="C" horiz-adv-x="539" 
d="M393.5 7q42.5 19 84.5 58v74q-44 -46 -84.5 -69t-95.5 -23q-100 0 -140 90.5t-40 237.5q0 139 40 221.5t139 82.5q55 0 97.5 -25t83.5 -70v75q-46 43 -90.5 62t-97.5 19q-130 0 -186 -104t-56 -274q0 -374 253 -374q50 0 92.5 19z" />
    <glyph glyph-name="D" unicode="D" horiz-adv-x="544" 
d="M388.5 51q48.5 51 74 134.5t25.5 180.5q0 98 -26 181t-76 132t-118 49h-198v-728h203q67 0 115.5 51zM382.5 580.5q35.5 -89.5 35.5 -216.5q0 -125 -36.5 -215.5t-119.5 -90.5h-124v612h127q82 0 117.5 -89.5z" />
    <glyph glyph-name="E" unicode="E" horiz-adv-x="467" 
d="M427 0v58h-290v290h262v58h-262v264h278v58h-345v-728h357z" />
    <glyph glyph-name="F" unicode="F" horiz-adv-x="450" 
d="M415 670v58h-345v-728h67v368h243v58h-243v244h278z" />
    <glyph glyph-name="G" unicode="G" horiz-adv-x="538" 
d="M391.5 5q38.5 17 90.5 53v298h-199v-58h134v-212q-55 -38 -121 -38q-178 0 -178 323q0 129 39 219t132 90q37 0 68 -10.5t57 -27t68 -47.5v66q-87 79 -183 79q-127 0 -189 -96t-62 -277q0 -379 251 -379q54 0 92.5 17z" />
    <glyph glyph-name="H" unicode="H" horiz-adv-x="534" 
d="M464 0v728h-68v-314h-258v314h-68v-728h68v356h258v-356h68z" />
    <glyph glyph-name="I" unicode="I" horiz-adv-x="208" 
d="M138 0v728h-68v-728h68z" />
    <glyph glyph-name="J" unicode="J" horiz-adv-x="348" 
d="M30 1q34 -13 56 -13q57 0 102 28.5t70 79.5t25 116v516h-68v-537q0 -38 -18.5 -71t-49 -52.5t-64.5 -19.5q-23 0 -53 11v-58z" />
    <glyph glyph-name="K" unicode="K" horiz-adv-x="485" 
d="M138 728h-68v-728h68v273l87 117l177 -390h73l-206 452l199 276h-79l-251 -347v347z" />
    <glyph glyph-name="L" unicode="L" horiz-adv-x="405" 
d="M386 0v58h-249v670h-67v-728h316z" />
    <glyph glyph-name="M" unicode="M" horiz-adv-x="611" 
d="M301 138l-128 590h-103v-728h68l-10 636l8 1l22 -122l121 -515h54q13 60 41 176l19 80l60 260l23 122l8 -1l-10 -637h67v728h-94l-138 -590h-8z" />
    <glyph glyph-name="N" unicode="N" horiz-adv-x="533" 
d="M398 109l-21 72v-1l-226 548h-81v-728h68l-10 619l8 1l21 -72v1l227 -549h79v728h-67l10 -618z" />
    <glyph glyph-name="O" unicode="O" horiz-adv-x="563" 
d="M454 89q61 101 61 279q0 176 -61 274t-172 98t-172.5 -98t-61.5 -274q0 -180 60 -280t174 -100q111 0 172 101zM406.5 589.5q38.5 -90.5 38.5 -221.5q0 -133 -38.5 -226.5t-124.5 -93.5t-125 93.5t-39 226.5q0 132 39 222t125 90t124.5 -90.5z" />
    <glyph glyph-name="P" unicode="P" horiz-adv-x="478" 
d="M347.5 362q39.5 24 65 66t25.5 94q0 59 -26 106t-66 73.5t-79 26.5h-197v-728h67v338h130q41 0 80.5 24zM316 648q27 -22 40 -55t13 -65q0 -31 -14.5 -61.5t-41 -50.5t-62.5 -20h-114v274h113q39 0 66 -22z" />
    <glyph glyph-name="Q" unicode="Q" horiz-adv-x="563" 
d="M417 43q50 50 74 130.5t24 194.5q0 176 -61 274t-172 98t-172.5 -98t-61.5 -274q0 -180 60 -280t174 -100q42 0 87 20l39 -67l53 30q-25 38 -44 72zM406.5 589.5q38.5 -90.5 38.5 -221.5q0 -83 -15.5 -154.5t-49.5 -115.5l-53 89l-48 -33q5 -9 17 -27q24 -38 40 -67
q-23 -12 -54 -12q-86 0 -125 93.5t-39 226.5q0 132 39 222t125 90t124.5 -90.5z" />
    <glyph glyph-name="R" unicode="R" horiz-adv-x="490" 
d="M410 419.5q29 44.5 29 102.5q0 59 -26 106t-66 73.5t-79 26.5h-198v-728h68v343h140l95 -343h70l-109 350q47 25 76 69.5zM317 648q27 -22 40 -55t13 -65q0 -51 -26 -89t-78 -38h-128v269h113q39 0 66 -22z" />
    <glyph glyph-name="S" unicode="S" horiz-adv-x="449" 
d="M362.5 47.5q55.5 59.5 55.5 162.5q0 72 -43.5 118.5t-124.5 80.5q-62 26 -99 57t-37 82q0 59 34 95t88 36q42 0 70.5 -10t46.5 -24t46 -41v86q-46 27 -86.5 38.5t-90.5 11.5q-47 0 -88 -23.5t-65.5 -69t-24.5 -107.5q0 -73 39.5 -114.5t126.5 -76.5q138 -55 138 -163
q0 -43 -20.5 -72.5t-51 -43.5t-58.5 -14q-104 0 -187 83v-93q48 -31 91.5 -44.5t94.5 -13.5q90 0 145.5 59.5z" />
    <glyph glyph-name="T" unicode="T" horiz-adv-x="417" 
d="M396 670v58h-375v-58h154v-670h68v670h153z" />
    <glyph glyph-name="U" unicode="U" horiz-adv-x="516" 
d="M352.5 14q44.5 26 71.5 79t27 131v504h-68v-528q0 -45 -19 -80t-49 -53.5t-61 -18.5q-32 0 -59.5 19t-44.5 53.5t-17 79.5v528h-68v-504q0 -76 25.5 -129t68.5 -80t95 -27q54 0 98.5 26z" />
    <glyph glyph-name="V" unicode="V" horiz-adv-x="454" 
d="M229 106h-6l-42 208l-103 414h-68l180 -728h73l181 728h-68l-104 -413z" />
    <glyph glyph-name="W" unicode="W" horiz-adv-x="639" 
d="M568 364q44 242 65 364h-67l-71 -414l-28 -208h-3l-32 208l-77 414h-68l-77 -414l-31 -208h-2l-30 208l-71 414h-67l131 -728h72l87 470l20 152h4l19 -152l89 -470h71z" />
    <glyph glyph-name="X" unicode="X" horiz-adv-x="444" 
d="M350 0h73l-160 363l160 365h-72l-86 -203l-42 -111h-2l-40 111l-85 203h-73l161 -365l-161 -363h74l87 215l37 112h2l37 -109z" />
    <glyph glyph-name="Y" unicode="Y" horiz-adv-x="460" 
d="M228 368l-150 360h-72l191 -435v-293h68v293l192 435h-72l-153 -360h-4z" />
    <glyph glyph-name="Z" unicode="Z" horiz-adv-x="447" 
d="M98 58l319 577v93h-366v-58h311l-332 -599v-71h387v58h-319z" />
    <glyph glyph-name="bracketleft" unicode="[" horiz-adv-x="272" 
d="M70 -115v755h156v-42h-102v-672h102v-41h-156z" />
    <glyph glyph-name="backslash" unicode="\" horiz-adv-x="243" 
d="M112.5 477.5q-9.5 -8.5 -23.5 -8.5t-24 8.5t-10 18.5t10 19t24 9t23.5 -9t9.5 -19t-9.5 -18.5z" />
    <glyph glyph-name="bracketright" unicode="]" horiz-adv-x="272" 
d="M46 -115v41h102v672h-102v42h156v-755h-156z" />
    <glyph glyph-name="asciicircum" unicode="^" horiz-adv-x="369" 
d="M361 403h-44l-123 176h-18l-124 -176h-43l149 241h54z" />
    <glyph glyph-name="underscore" unicode="_" horiz-adv-x="311" 
d="M303 -187h-295v61h295v-61z" />
    <glyph glyph-name="grave" unicode="`" horiz-adv-x="124" 
d="M13 939l78 -156h19l-33 156h-64z" />
    <glyph glyph-name="a" unicode="a" horiz-adv-x="392" 
d="M336 0v317q0 113 -35.5 164.5t-111.5 51.5q-57 0 -121 -51l3 -55q48 50 107 50q54 0 72.5 -37t18.5 -123h-56q-71 0 -126.5 -36.5t-55.5 -124.5q0 -86 36 -126t95 -40q25 0 56 24t50 50v-64h68zM256.5 122q-12.5 -32 -35.5 -54.5t-53 -22.5q-38 0 -53.5 25t-15.5 83
q0 61 30 85t71 24h69v-82q0 -26 -12.5 -58z" />
    <glyph glyph-name="b" unicode="b" horiz-adv-x="445" 
d="M70 727v-727h64v52h1q26 -31 52 -46.5t56 -15.5q54 0 92.5 38.5t58.5 103t20 141.5q0 59 -14.5 118t-49.5 100.5t-92 41.5q-46 0 -72.5 -12t-47.5 -46h-1v252h-67zM145 349.5q10 50.5 34.5 90t66.5 39.5q33 0 56 -31.5t34.5 -80.5t11.5 -99q0 -52 -12.5 -104.5t-36 -86.5
t-55.5 -34q-52 0 -80.5 60t-28.5 159q0 37 10 87.5z" />
    <glyph glyph-name="c" unicode="c" horiz-adv-x="365" 
d="M202 45q-51 0 -77 68.5t-26 152.5q0 48 13.5 97.5t37 82.5t52.5 33q82 0 125 -46v44q-8 21 -40.5 38.5t-82.5 17.5q-80 0 -126.5 -70t-46.5 -197q0 -133 47 -203.5t126 -70.5q31 0 69 13.5t54 33.5v49q-43 -43 -125 -43z" />
    <glyph glyph-name="d" unicode="d" horiz-adv-x="443" 
d="M305 475q-21 34 -47.5 46t-72.5 12q-57 0 -92 -41.5t-49.5 -100.5t-14.5 -118q0 -77 20 -141.5t58.5 -103t92.5 -38.5q30 0 56 15.5t52 46.5h1v-52h64v727h-67v-252h-1zM279.5 103q-28.5 -60 -80.5 -60q-32 0 -55.5 34t-36 86.5t-12.5 104.5q0 50 11.5 99t34.5 80.5
t56 31.5q42 0 66.5 -39.5t34.5 -90t10 -87.5q0 -99 -28.5 -159z" />
    <glyph glyph-name="e" unicode="e" horiz-adv-x="398" 
d="M321.5 470.5q-41.5 62.5 -117.5 62.5q-79 0 -126 -73t-47 -202q0 -134 47 -201.5t137 -67.5q34 0 79 23.5t61 49.5v45q-24 -28 -62 -46.5t-75 -18.5q-64 0 -90.5 60.5t-29.5 150.5h265v44q0 111 -41.5 173.5zM135 425.5q25 53.5 67 53.5q55 0 76 -48.5t26 -122.5h-202
q8 64 33 117.5z" />
    <glyph glyph-name="f" unicode="f" horiz-adv-x="226" 
d="M198.5 670q7.5 -4 9.5 -5v48q-5 13 -21 19t-30 6q-37 0 -60 -30t-23 -85v-98h-61v-55h61v-470h67v470h64v55h-64v109q0 15 10 27.5t23 12.5q17 0 24.5 -4z" />
    <glyph glyph-name="g" unicode="g" horiz-adv-x="433" 
d="M307 483q-19 24 -51.5 37t-60.5 13q-75 0 -119.5 -69t-44.5 -209q0 -77 21.5 -137t57.5 -93t77 -33q85 0 120 53h2q-3 -91 -26 -148.5t-85 -57.5q-39 0 -68.5 10.5t-63.5 33.5l-8 -70q69 -37 132 -37q88 0 137.5 60.5t49.5 190.5v498h-68v-42h-2zM283.5 419.5
q27.5 -60.5 27.5 -162.5q0 -93 -28 -154.5t-77 -61.5q-34 0 -58 34t-36 84.5t-12 97.5q0 92 28.5 157.5t77.5 65.5q50 0 77.5 -60.5z" />
    <glyph glyph-name="h" unicode="h" horiz-adv-x="433" 
d="M70 728v-728h67v376q0 29 16 52.5t39 37t43 13.5q34 0 54.5 -14.5t20.5 -55.5v-409h67v386q0 78 -36 112.5t-90 34.5q-31 0 -64.5 -16t-49.5 -48v259h-67z" />
    <glyph glyph-name="i" unicode="i" horiz-adv-x="208" 
d="M138 643v85h-68v-85h68zM138 0v525h-68v-525h68z" />
    <glyph glyph-name="j" unicode="j" horiz-adv-x="196" 
d="M126 728h-67v-86h67v86zM80.5 -205q20.5 18 33 50.5t12.5 75.5v604h-67v-635q0 -21 -11.5 -40t-28.5 -19q-7 0 -11.5 1t-6.5 1v-46q7 -7 14 -8.5t21 -1.5q24 0 44.5 18z" />
    <glyph glyph-name="k" unicode="k" horiz-adv-x="397" 
d="M70 728v-728h67l-1 194l47 68l129 -262h73l-161 327h1l139 198h-78l-149 -210v413h-67z" />
    <glyph glyph-name="l" unicode="l" horiz-adv-x="207" 
d="M137 0v728h-67v-728h67z" />
    <glyph glyph-name="m" unicode="m" horiz-adv-x="642" 
d="M70 525v-525h67v381q0 24 15 46t36.5 36t38.5 14q28 0 47.5 -18.5t19.5 -52.5v-406h67v381q1 29 15.5 51t35 33.5t39.5 11.5q27 0 47 -20t21 -51v-406h67v387q0 44 -18 77.5t-47 51.5t-60 18q-33 0 -67.5 -16t-59.5 -52q-32 67 -92 67q-25 0 -57 -17t-48 -46v55h-67z" />
    <glyph glyph-name="n" unicode="n" horiz-adv-x="432" 
d="M70 525v-525h67v378q0 21 16 44.5t41.5 39t50.5 15.5q24 0 44 -21.5t20 -53.5v-402h67v384q0 50 -18.5 83.5t-48 49.5t-61.5 16q-29 0 -63.5 -17t-47.5 -47v56h-67z" />
    <glyph glyph-name="o" unicode="o" horiz-adv-x="408" 
d="M52.5 118q21.5 -61 60.5 -93.5t91 -32.5q51 0 90.5 32.5t61 93.5t21.5 143q0 137 -46 204.5t-127 67.5q-80 0 -126.5 -70t-46.5 -202q0 -82 21.5 -143zM260.5 446q23.5 -33 36 -83.5t12.5 -103.5q0 -82 -26.5 -147t-78.5 -65q-56 0 -80.5 67t-24.5 145q0 86 28.5 153
t77.5 67q32 0 55.5 -33z" />
    <glyph glyph-name="p" unicode="p" horiz-adv-x="445" 
d="M185.5 4q26.5 -12 72.5 -12q58 0 92.5 41t49 99.5t14.5 117.5q0 77 -20 141.5t-58.5 103t-92.5 38.5q-30 0 -56 -15.5t-52 -46.5h-1v54h-64v-729h67l1 254q21 -34 47.5 -46zM163.5 420q28.5 60 80.5 60q32 0 55.5 -34t36 -86.5t12.5 -104.5q0 -80 -27 -144.5t-75 -64.5
q-42 0 -66.5 39t-34.5 89t-10 87q0 99 28.5 159z" />
    <glyph glyph-name="q" unicode="q" horiz-adv-x="445" 
d="M375 -204v729h-64v-54h-1q-26 31 -52 46.5t-56 15.5q-54 0 -92.5 -38.5t-58.5 -103t-20 -141.5q0 -59 14.5 -117.5t49 -99.5t92.5 -41q46 0 72.5 12t47.5 46h1v-254h67zM300.5 173.5q-9.5 -49.5 -34.5 -88.5t-67 -39q-48 0 -75 64.5t-27 144.5q0 52 12.5 104.5t36 86.5
t55.5 34q52 0 80.5 -60t28.5 -159q0 -38 -9.5 -87.5z" />
    <glyph glyph-name="r" unicode="r" horiz-adv-x="274" 
d="M70 525v-525h67v377q1 46 24.5 71t59.5 25q23 0 31 -3v50q-3 6 -13 9.5t-19 3.5q-21 0 -43.5 -8t-39.5 -26v26h-67z" />
    <glyph glyph-name="s" unicode="s" horiz-adv-x="350" 
d="M235.5 8q35.5 16 58.5 51t23 89q0 77 -128 137q-38 18 -63 40t-25 54q0 40 19.5 69.5t55.5 29.5q47 0 71.5 -11t55.5 -36v61q-22 18 -56.5 29.5t-65.5 11.5q-37 0 -70.5 -17.5t-55.5 -54.5t-22 -93q0 -79 125 -136q51 -23 71 -41.5t20 -54.5q0 -38 -25.5 -63t-55.5 -25
q-69 0 -137 64v-77q36 -22 67 -32.5t65 -10.5q37 0 72.5 16z" />
    <glyph glyph-name="t" unicode="t" horiz-adv-x="298" 
d="M278 7v47q-10 -7 -49 -7q-33 0 -46 22t-13 54v347h95v55h-95v135h-67v-135h-72v-55h72v-320q0 -81 30.5 -119.5t84.5 -38.5q33 0 60 15z" />
    <glyph glyph-name="u" unicode="u" horiz-adv-x="432" 
d="M362 0v525h-67v-377q-3 -23 -17.5 -46t-38.5 -38.5t-54 -15.5q-24 0 -43 23t-19 53v401h-67v-386q0 -74 38 -110.5t90 -36.5q29 0 61.5 16t49.5 46v-54h67z" />
    <glyph glyph-name="v" unicode="v" horiz-adv-x="369" 
d="M364 525h-78q-39 -159 -58 -255l-42 -192h-1l-102 447h-78l148 -525h63z" />
    <glyph glyph-name="w" unicode="w" horiz-adv-x="517" 
d="M511 525h-71l-70 -422h-2l-75 422h-68l-76 -422h-2l-70 422h-71l112 -525h63q14 83 40 209q13 64 31 173l6 32h2l76 -414h64z" />
    <glyph glyph-name="x" unicode="x" horiz-adv-x="364" 
d="M352 0l-33 66q-22 50 -46 102q-36 77 -48 100l123 257h-79l-85 -214h-4l-82 214h-79l120 -256l-126 -269h80l41 103l20 54q7 18 26 62h4l87 -219h81z" />
    <glyph glyph-name="y" unicode="y" horiz-adv-x="360" 
d="M85 525h-77l137 -520l-12 -67q-1 -3 -5.5 -29t-14 -46.5t-21.5 -20.5q-24 0 -38 9v-60q20 -14 45 -14q31 0 53.5 39t33.5 81l166 628h-77l-93 -429h-2z" />
    <glyph glyph-name="z" unicode="z" horiz-adv-x="380" 
d="M104 55l232 423v47h-288v-55h206l-219 -404v-66h308v55h-239z" />
    <glyph glyph-name="braceleft" unicode="{" horiz-adv-x="249" 
d="M83 -3v172q0 60 -46 79v46q46 18 46 73v153q0 71 30 96q29 23 100 23v-44q-56 0 -71 -19q-14 -20 -14 -77v-144q0 -60 -46 -85q46 -40 46 -91v-168q0 -48 18.5 -65.5t66.5 -17.5v-44q-130 0 -130 113z" />
    <glyph glyph-name="bar" unicode="|" horiz-adv-x="130" 
d="M53 -125v785h34v-785h-34z" />
    <glyph glyph-name="braceright" unicode="}" horiz-adv-x="249" 
d="M165 169v-172q0 -113 -130 -113v44q49 0 67 17.5t18 65.5v168q0 51 46 91q-46 25 -46 85v144q0 59 -13 75q-16 21 -72 21v44q72 0 101 -24t29 -95v-153q0 -57 46 -73v-46q-46 -19 -46 -79z" />
    <glyph glyph-name="asciitilde" unicode="~" horiz-adv-x="636" 
d="M528.5 231.5q-40.5 -51.5 -109.5 -51.5q-31 0 -52.5 11t-35.5 26.5t-32 41.5q-25 36 -46 53.5t-56 17.5q-43 0 -62.5 -42.5t-19.5 -92.5h-62q0 54 17.5 100.5t52.5 75t85 28.5q38 0 64.5 -13t43 -31.5t36.5 -47.5q20 -30 35 -44t37 -14q19 0 38.5 17.5t32.5 47t13 65.5
h61q0 -96 -40.5 -147.5z" />
    <glyph glyph-name="exclamdown" unicode="&#xa1;" horiz-adv-x="246" 
d="M166 546h-86v98h86v-98zM80 267l17 216h52l17 -215v-268h-86v267z" />
    <glyph glyph-name="cent" unicode="&#xa2;" horiz-adv-x="463" 
d="M121 27q-44 34 -66.5 90.5t-22.5 120.5q0 65 25 118.5t70 84t104 30.5q42 0 81 -14l44 100h39l-51 -115q34 -20 55.5 -53.5t28.5 -74.5h-81q-7 43 -31 64l-136 -306q23 -14 51 -14q98 0 116 111l81 1q-7 -84 -58.5 -131.5t-138.5 -47.5q-42 0 -79 17l-57 -131h-41z
M152 96l133 299q-10 5 -22 6t-31 1q-59 0 -89 -46.5t-30 -117.5q0 -91 39 -142z" />
    <glyph glyph-name="sterling" unicode="&#xa3;" horiz-adv-x="510" 
d="M284 334h1v-37h-99q6 -12 11 -32t5 -37q0 -55 -16.5 -91.5t-46.5 -64.5l1 -2q18 9 28 12t32 3q17 0 31.5 -4.5t34.5 -12.5q30 -13 44 -13q17 0 35 9.5t27 21.5l34 -55q-28 -26 -50.5 -37.5t-50.5 -11.5q-16 0 -32 5t-38 14q-25 11 -44.5 16.5t-39.5 5.5q-22 0 -47 -11.5
t-47 -29.5l-38 70q55 44 76.5 91.5t21.5 84.5q0 16 -4 36t-9 33h-89v73h56q-17 41 -25.5 73t-8.5 77q0 54 24.5 96t67.5 64.5t97 22.5q88 0 132 -59.5t46 -151.5h-90q0 65 -21.5 109t-68.5 44q-49 0 -73 -43.5t-24 -100.5q0 -30 7.5 -59t27.5 -72h122v-36z" />
    <glyph glyph-name="currency" unicode="&#xa4;" horiz-adv-x="401" 
d="M299 147q-43 -31 -98 -31q-56 0 -99 31l-31 -31l-44 44l30 31q-30 43 -30 98q0 52 31 98l-31 31l45 44l31 -30q44 30 98 30q55 0 98 -30l31 30l44 -44l-31 -31q31 -43 31 -98t-31 -98l31 -31l-44 -44zM122 368q-33 -33 -33 -79q0 -45 33 -78t79 -33q45 0 78 33t33 78
q0 46 -33 79t-78 33q-46 0 -79 -33z" />
    <glyph glyph-name="yen" unicode="&#xa5;" horiz-adv-x="460" 
d="M267 148v-148h-74v148h-160v62h160v78h-160v62h134l-167 378h98l130 -356h4l130 356h98l-168 -378h127v-62h-152v-78h152v-62h-152z" />
    <glyph glyph-name="brokenbar" unicode="&#xa6;" horiz-adv-x="222" 
d="M142 346h-62v386h62v-386zM80 262h62v-387h-62v387z" />
    <glyph glyph-name="section" unicode="&#xa7;" horiz-adv-x="454" 
d="M142.5 77q27.5 -26 72.5 -26t77 15t32 53q0 29 -31.5 49.5t-87.5 39.5q-74 21 -114.5 52t-40.5 88q0 64 67 97q-60 29 -60 90q0 65 44.5 95.5t113.5 30.5q79 0 126.5 -33.5t47.5 -99.5h-79q0 37 -25 50.5t-70 13.5q-35 0 -55.5 -15t-20.5 -39q0 -32 30 -47.5t92 -31.5
q51 -13 82 -25t53 -35t22 -61q0 -42 -20 -67t-61 -42q30 -15 48 -42t18 -61q0 -75 -52.5 -109.5t-135.5 -34.5q-49 0 -90 20.5t-65.5 58.5t-24.5 88h80q0 -46 27.5 -72zM147.5 312q17.5 -15 38.5 -23t70 -23l28 7t38.5 21t14.5 37q0 30 -32 47.5t-90 32.5q-36 0 -60.5 -18.5
t-24.5 -43.5q0 -22 17.5 -37z" />
    <glyph glyph-name="dieresis" unicode="&#xa8;" horiz-adv-x="252" 
d="M82.5 853q-12.5 12 -30.5 12t-30 -12t-12 -29q0 -16 12 -28t30 -12t30.5 12t12.5 28q0 17 -12.5 29zM237.5 853q-12.5 12 -29.5 12q-18 0 -30.5 -12t-12.5 -29q0 -16 12.5 -28t30.5 -12q17 0 29.5 12t12.5 28q0 17 -12.5 29z" />
    <glyph glyph-name="copyright" unicode="&#xa9;" horiz-adv-x="746" 
d="M536.5 28q78.5 46 124.5 124.5t46 170.5t-46 169.5t-124 123t-171 45.5q-92 0 -170 -45.5t-123.5 -123t-45.5 -169.5q0 -93 45.5 -171t123.5 -124t170 -46t170.5 46zM216.5 63.5q-68.5 40.5 -109 109.5t-40.5 150t40.5 149.5t109 108.5t149.5 40t150 -40t109.5 -108.5
t40.5 -149.5t-40.5 -150t-109.5 -109.5t-150 -40.5t-149.5 40.5zM449 477q-33 24 -85 24q-41 0 -72.5 -24t-49 -64.5t-17.5 -87.5q0 -62 19.5 -105.5t51.5 -64.5t68 -21q54 0 89 36t41 86h62q-10 -78 -60.5 -127t-131.5 -49q-93 0 -147.5 65.5t-54.5 179.5q0 61 24.5 114
t70 85.5t107.5 32.5q80 0 131.5 -43t59.5 -109h-61q-12 48 -45 72z" />
    <glyph glyph-name="ordfeminine" unicode="&#xaa;" horiz-adv-x="348" 
d="M85.5 636.5q35.5 24.5 78.5 24.5q46 0 78 -19t32 -65v-148q0 -7 3.5 -12t9.5 -5t17 8v-52q-8 -4 -15.5 -6t-18.5 -2q-43 0 -59 36q-23 -36 -87 -36q-35 0 -57.5 23.5t-22.5 62.5q0 35 18 56t42 30t59 17q25 6 36.5 10.5t11.5 12.5q0 20 -12.5 28t-40.5 8q-22 0 -36.5 -11
t-14.5 -32h-57q0 47 35.5 71.5zM194 512.5q-8 -2.5 -13 -4.5q-35 -10 -54.5 -23t-19.5 -39q0 -18 8 -26t26 -8q25 0 40.5 9t29.5 34v64q-9 -4 -17 -6.5zM304 262h-260v55h260v-55z" />
    <glyph glyph-name="guillemotleft" unicode="&#xab;" horiz-adv-x="373" 
d="M53 233l147 124v-62l-95 -81l95 -80v-61l-147 124v36zM164 233l147 124v-62l-94 -81l94 -80v-61l-147 124v36z" />
    <glyph glyph-name="logicalnot" unicode="&#xac;" horiz-adv-x="492" 
d="M460 229h-63v85h-362v59h425v-144z" />
    <glyph glyph-name="registered" unicode="&#xae;" horiz-adv-x="746" 
d="M536.5 28q78.5 46 124.5 124.5t46 170.5t-46 169.5t-124 123t-171 45.5q-92 0 -170 -45.5t-123.5 -123t-45.5 -169.5q0 -93 45.5 -171t123.5 -124t170 -46t170.5 46zM216.5 63.5q-68.5 40.5 -109 109.5t-40.5 150t40.5 149.5t109 108.5t149.5 40t150 -40t109.5 -108.5
t40.5 -149.5t-40.5 -150t-109.5 -109.5t-150 -40.5t-149.5 40.5zM270 287v-192h-62v458h218q34 0 61.5 -18t42.5 -46.5t15 -58.5q0 -42 -24 -78t-62 -54l80 -203h-62l-76 192h-131zM404 342q32 0 53 23.5t21 57.5q0 32 -22 53.5t-52 21.5h-134v-156h134z" />
    <glyph glyph-name="overscore" unicode="&#xaf;" horiz-adv-x="293" 
d="M253 568h-213v58h213v-58z" />
    <glyph glyph-name="degree" unicode="&#xb0;" horiz-adv-x="325" 
d="M101.5 431q-28.5 17 -45.5 45.5t-17 61.5q0 51 36.5 87t87.5 36t87.5 -36t36.5 -87q0 -33 -17 -61.5t-45.5 -45.5t-61.5 -17t-61.5 17zM106.5 593.5q-23.5 -23.5 -23.5 -55.5q0 -33 23.5 -56.5t56.5 -23.5q32 0 55.5 23.5t23.5 56.5q0 32 -23.5 55.5t-55.5 23.5
q-33 0 -56.5 -23.5z" />
    <glyph glyph-name="plusminus" unicode="&#xb1;" horiz-adv-x="415" 
d="M224 256v-171h-48v171h-130v43h130v166h48v-166h131v-43h-131zM61 -4v43h309v-43h-309z" />
    <glyph glyph-name="uni00B2" unicode="&#xb2;" horiz-adv-x="310" 
d="M228 281.5q-32 -33.5 -94 -33.5q-59 0 -88 29v56q31 -40 88 -40q78 0 78 85q0 36 -23 59.5t-57 21.5l-33 -1v40l29 2q34 2 55.5 22.5t21.5 52.5q0 63 -71 63q-54 0 -79 -38v53q13 13 34.5 21.5t44.5 8.5q59 0 86 -21q31 -25 31 -82q0 -35 -15.5 -59t-53.5 -39
q39 -12 58.5 -34.5t19.5 -70.5q0 -62 -32 -95.5z" />
    <glyph glyph-name="uni00B3" unicode="&#xb3;" horiz-adv-x="310" 
d="M36 256v48l124 172q36 50 36 89q0 40 -15 56.5t-53 16.5q-44 0 -66 -27l-17 -20v57q22 35 90 35q58 0 83.5 -26t25.5 -84q0 -51 -44 -111l-118 -162h167v-44h-213z" />
    <glyph glyph-name="acute" unicode="&#xb4;" horiz-adv-x="178" 
d="M52 783l78 156h-64l-33 -156h19z" />
    <glyph glyph-name="uni00B5" unicode="&#xb5;" horiz-adv-x="464" 
d="M401 34q-17 0 -26 29q-8 26 -8 45v298h-73v-305q-52 -60 -109 -60q-69 0 -69 116v249h-74v-346q0 -71 -13 -124q-12 -56 -12 -72q0 -51 40 -51q37 0 37 50q0 18 -10 65q-9 46 -9 93h2q26 -35 70 -35q74 0 147 85q4 -85 73 -85q42 0 68 32q23 29 24 71h-20q-6 -55 -38 -55
z" />
    <glyph glyph-name="paragraph" unicode="&#xb6;" horiz-adv-x="477" 
d="M453 591v24h-230q-196 0 -196 -170q0 -89 55 -127.5t155 -38.5v-451h34v763h86v-763h34v763h62z" />
    <glyph glyph-name="middot" unicode="&#xb7;" horiz-adv-x="168" 
d="M110.5 236q-10.5 11 -26.5 11q-15 0 -26 -11t-11 -26t11 -26t26 -11q16 0 26.5 11t10.5 26t-10.5 26z" />
    <glyph glyph-name="cedilla" unicode="&#xb8;" horiz-adv-x="306" 
d="M160 -33v28h-22v-54l13 1q39 0 39 -24q0 -22 -31 -22q-29 0 -73 10l1 -27q44 -12 73 -12q72 0 72 53q0 47 -72 47z" />
    <glyph glyph-name="uni00B9" unicode="&#xb9;" horiz-adv-x="310" 
d="M144 256v373l-63 -60v50l62 56h49v-419h-48z" />
    <glyph glyph-name="ordmasculine" unicode="&#xba;" horiz-adv-x="291" 
d="M244 577q-38 38 -94 38q-62 0 -100 -39q-39 -39 -39 -99q0 -57 38 -92q37 -37 96 -37q55 0 96 41q40 40 40 95q0 56 -37 93zM153 371q-38 0 -61 53q-17 43 -17 84q0 85 58 85q41 0 65 -51q19 -38 19 -87q0 -84 -64 -84z" />
    <glyph glyph-name="guillemotright" unicode="&#xbb;" horiz-adv-x="467" 
d="M44 406l113 -203l-113 -203h28l176 203l-176 203h-28zM219 406l113 -203l-113 -203h28l176 203l-176 203h-28z" />
    <glyph glyph-name="onequarter" unicode="&#xbc;" horiz-adv-x="634" 
d="M131 260v311l-52 -50v42l52 46h40v-349h-40zM158 -11h40l277 610h-40zM588 83h-32v-83h-38v83h-134v46l115 220h57v-228h32v-38zM503 290l-87 -169h101l1 200z" />
    <glyph glyph-name="onehalf" unicode="&#xbd;" horiz-adv-x="634" 
d="M131 260v311l-52 -50v42l52 46h40v-349h-40zM138 -11h40l277 610h-40zM401 0v40l104 144q30 41 30 74t-13 47t-44 14q-35 0 -55 -23l-14 -16v47q19 29 75 29q48 0 69.5 -21.5t21.5 -69.5q0 -43 -37 -93l-98 -135h139v-37h-178z" />
    <glyph glyph-name="threequarters" unicode="&#xbe;" horiz-adv-x="634" 
d="M191 282q-27 -28 -78 -28q-49 0 -73 24v47q25 -34 73 -34q65 0 65 71q0 30 -19 49.5t-48 18.5l-27 -2v34l24 2q28 2 46 19t18 43q0 53 -59 53q-45 0 -66 -32v44q11 11 29 18t37 7q50 0 72 -18q26 -21 26 -68q0 -29 -13.5 -49t-44.5 -33q32 -9 48.5 -28t16.5 -59
q0 -51 -27 -79zM158 -11h40l277 610h-40zM578 83h-32v-83h-38v83h-134v46l115 220h57v-228h32v-38zM493 290l-87 -169h101l1 200z" />
    <glyph glyph-name="questiondown" unicode="&#xbf;" horiz-adv-x="376" 
d="M149 536h-64v75h64v-75zM102 -129q-58 0 -84 26v60q32 -32 84 -32q97 0 97 153q0 34 -16 73.5t-43 69t-58 37.5v165h67v-141q53 -35 85.5 -91t32.5 -114q0 -206 -165 -206z" />
    <glyph glyph-name="Agrave" unicode="&#xc0;" horiz-adv-x="476" 
d="M469 0l-9 33q-124 473 -181 695h-79l-190 -728h69l59 235h203l59 -235h69zM222.5 583q11.5 53 15.5 74h3q4 -21 15.5 -74t21.5 -95l49 -195h-174l48 195q10 42 21.5 95zM202 939l78 -156h19l-33 156h-64z" />
    <glyph glyph-name="Aacute" unicode="&#xc1;" horiz-adv-x="476" 
d="M469 0l-9 33q-124 473 -181 695h-79l-190 -728h69l59 235h203l59 -235h69zM222.5 583q11.5 53 15.5 74h3q4 -21 15.5 -74t21.5 -95l49 -195h-174l48 195q10 42 21.5 95zM191 783l78 156h-64l-33 -156h19z" />
    <glyph glyph-name="Acircumflex" unicode="&#xc2;" horiz-adv-x="476" 
d="M469 0l-9 33q-124 473 -181 695h-79l-190 -728h69l59 235h203l59 -235h69zM222.5 583q11.5 53 15.5 74h3q4 -21 15.5 -74t21.5 -95l49 -195h-174l48 195q10 42 21.5 95zM196 931l-88 -148h15l116 95l116 -95h15l-89 148h-85z" />
    <glyph glyph-name="Atilde" unicode="&#xc3;" horiz-adv-x="476" 
d="M469 0l-9 33q-124 473 -181 695h-79l-190 -728h69l59 235h203l59 -235h69zM222.5 583q11.5 53 15.5 74h3q4 -21 15.5 -74t21.5 -95l49 -195h-174l48 195q10 42 21.5 95zM328 882q-21 0 -66 19q-44 19 -78 19q-58 0 -82 -45q-7 -10 -7 -24h19q2 32 39 32q8 0 29 -8
q18 -10 27 -14q44 -18 83 -18q33 0 59 14q29 17 29 49h-20q-1 -24 -32 -24z" />
    <glyph glyph-name="Adieresis" unicode="&#xc4;" horiz-adv-x="476" 
d="M469 0l-9 33q-124 473 -181 695h-79l-190 -728h69l59 235h203l59 -235h69zM222.5 583q11.5 53 15.5 74h3q4 -21 15.5 -74t21.5 -95l49 -195h-174l48 195q10 42 21.5 95zM188.5 853q-12.5 12 -30.5 12t-30 -12t-12 -29q0 -16 12 -28t30 -12t30.5 12t12.5 28q0 17 -12.5 29
zM343.5 853q-12.5 12 -29.5 12q-18 0 -30.5 -12t-12.5 -29q0 -16 12.5 -28t30.5 -12q17 0 29.5 12t12.5 28q0 17 -12.5 29z" />
    <glyph glyph-name="Aring" unicode="&#xc5;" horiz-adv-x="476" 
d="M309 612l160 -612h-69l-59 235h-203l-59 -235h-69l190 727q-20 12 -31.5 32t-11.5 44q0 36 25.5 62t62.5 26q36 0 61.5 -26t25.5 -62q0 -26 -14.5 -47.5t-37.5 -32.5zM210.5 837q-14.5 -14 -14.5 -34t14.5 -34t34.5 -14t34 14t14 34t-14 34t-34 14t-34.5 -14zM327 293
l-49 195q-10 42 -21.5 95t-15.5 74h-3q-4 -21 -15.5 -74t-21.5 -95l-48 -195h174z" />
    <glyph glyph-name="AE" unicode="&#xc6;" horiz-adv-x="805" 
d="M192 235l-107 -235h-75l344 728h379v-58h-278v-264h262v-58h-262v-290h290v-58h-357v235h-196zM388 670h-4l-167 -377h171v377z" />
    <glyph glyph-name="Ccedilla" unicode="&#xc7;" horiz-adv-x="539" 
d="M393.5 7q42.5 19 84.5 58v74q-44 -46 -84.5 -69t-95.5 -23q-100 0 -140 90.5t-40 237.5q0 139 40 221.5t139 82.5q55 0 97.5 -25t83.5 -70v75q-46 43 -90.5 62t-97.5 19q-130 0 -186 -104t-56 -274q0 -374 253 -374q50 0 92.5 19zM303 -46v28h-22v-54l13 1q39 0 39 -24
q0 -22 -31 -22q-29 0 -73 10l1 -27q44 -12 73 -12q72 0 72 53q0 47 -72 47z" />
    <glyph glyph-name="Egrave" unicode="&#xc8;" horiz-adv-x="511" 
d="M451 0v58h-290v290h262v58h-262v264h278v58h-345v-728h357zM202 939l78 -156h19l-33 156h-64z" />
    <glyph glyph-name="Eacute" unicode="&#xc9;" horiz-adv-x="511" 
d="M255 783l78 156h-64l-33 -156h19zM451 0v58h-290v290h262v58h-262v264h278v58h-345v-728h357z" />
    <glyph glyph-name="Ecircumflex" unicode="&#xca;" horiz-adv-x="511" 
d="M451 0v58h-290v290h262v58h-262v264h278v58h-345v-728h357zM229 931l-88 -148h15l116 95l116 -95h15l-89 148h-85z" />
    <glyph glyph-name="Edieresis" unicode="&#xcb;" horiz-adv-x="511" 
d="M225.5 853q-12.5 12 -30.5 12t-30 -12t-12 -29q0 -16 12 -28t30 -12t30.5 12t12.5 28q0 17 -12.5 29zM380.5 853q-12.5 12 -29.5 12q-18 0 -30.5 -12t-12.5 -29q0 -16 12.5 -28t30.5 -12q17 0 29.5 12t12.5 28q0 17 -12.5 29zM451 0v58h-290v290h262v58h-262v264h278v58
h-345v-728h357z" />
    <glyph glyph-name="Igrave" unicode="&#xcc;" horiz-adv-x="272" 
d="M170 0v728h-68v-728h68zM87 939l78 -156h19l-33 156h-64z" />
    <glyph glyph-name="Iacute" unicode="&#xcd;" horiz-adv-x="272" 
d="M170 0v728h-68v-728h68zM87 783l78 156h-64l-33 -156h19z" />
    <glyph glyph-name="Icircumflex" unicode="&#xce;" horiz-adv-x="272" 
d="M170 0v728h-68v-728h68zM101 931l-88 -148h15l116 95l116 -95h15l-89 148h-85z" />
    <glyph glyph-name="Idieresis" unicode="&#xcf;" horiz-adv-x="272" 
d="M170 0v728h-68v-728h68zM98.5 853q-12.5 12 -30.5 12t-30 -12t-12 -29q0 -16 12 -28t30 -12t30.5 12t12.5 28q0 17 -12.5 29zM253.5 853q-12.5 12 -29.5 12q-18 0 -30.5 -12t-12.5 -29q0 -16 12.5 -28t30.5 -12q17 0 29.5 12t12.5 28q0 17 -12.5 29z" />
    <glyph glyph-name="Ntilde" unicode="&#xd1;" horiz-adv-x="576" 
d="M421 109l-21 72v-1l-226 548h-81v-728h68l-10 619l8 1l21 -72v1l227 -549h79v728h-67l10 -618zM376 820q-21 0 -66 19q-44 19 -78 19q-58 0 -82 -45q-7 -10 -7 -24h19q2 32 39 32q8 0 29 -8q18 -10 27 -14q44 -18 83 -18q33 0 59 14q29 17 29 49h-20q-1 -24 -32 -24z" />
    <glyph glyph-name="Ograve" unicode="&#xd2;" horiz-adv-x="408" 
d="M164 739l78 -156h19l-33 156h-64zM52.5 118q21.5 -61 60.5 -93.5t91 -32.5q51 0 90.5 32.5t61 93.5t21.5 143q0 137 -46 204.5t-127 67.5q-80 0 -126.5 -70t-46.5 -202q0 -82 21.5 -143zM260.5 446q23.5 -33 36 -83.5t12.5 -103.5q0 -82 -26.5 -147t-78.5 -65
q-56 0 -80.5 67t-24.5 145q0 86 28.5 153t77.5 67q32 0 55.5 -33z" />
    <glyph glyph-name="Oacute" unicode="&#xd3;" horiz-adv-x="408" 
d="M52.5 118q21.5 -61 60.5 -93.5t91 -32.5q51 0 90.5 32.5t61 93.5t21.5 143q0 137 -46 204.5t-127 67.5q-80 0 -126.5 -70t-46.5 -202q0 -82 21.5 -143zM260.5 446q23.5 -33 36 -83.5t12.5 -103.5q0 -82 -26.5 -147t-78.5 -65q-56 0 -80.5 67t-24.5 145q0 86 28.5 153
t77.5 67q32 0 55.5 -33zM173 583l78 156h-64l-33 -156h19z" />
    <glyph glyph-name="Ocircumflex" unicode="&#xd4;" horiz-adv-x="408" 
d="M52.5 118q21.5 -61 60.5 -93.5t91 -32.5q51 0 90.5 32.5t61 93.5t21.5 143q0 137 -46 204.5t-127 67.5q-80 0 -126.5 -70t-46.5 -202q0 -82 21.5 -143zM260.5 446q23.5 -33 36 -83.5t12.5 -103.5q0 -82 -26.5 -147t-78.5 -65q-56 0 -80.5 67t-24.5 145q0 86 28.5 153
t77.5 67q32 0 55.5 -33zM163 731l-88 -148h15l116 95l116 -95h15l-89 148h-85z" />
    <glyph glyph-name="Otilde" unicode="&#xd5;" horiz-adv-x="561" 
d="M454 89q61 101 61 279q0 176 -61 274t-172 98t-172.5 -98t-61.5 -274q0 -180 60 -280t174 -100q111 0 172 101zM406.5 589.5q38.5 -90.5 38.5 -221.5q0 -133 -38.5 -226.5t-124.5 -93.5t-125 93.5t-39 226.5q0 132 39 222t125 90t124.5 -90.5zM373 820q-21 0 -66 19
q-44 19 -78 19q-58 0 -82 -45q-7 -10 -7 -24h19q2 32 39 32q8 0 29 -8q18 -10 27 -14q44 -18 83 -18q33 0 59 14q29 17 29 49h-20q-1 -24 -32 -24z" />
    <glyph glyph-name="Odieresis" unicode="&#xd6;" horiz-adv-x="561" 
d="M454 89q61 101 61 279q0 176 -61 274t-172 98t-172.5 -98t-61.5 -274q0 -180 60 -280t174 -100q111 0 172 101zM406.5 589.5q38.5 -90.5 38.5 -221.5q0 -133 -38.5 -226.5t-124.5 -93.5t-125 93.5t-39 226.5q0 132 39 222t125 90t124.5 -90.5zM232.5 853
q-12.5 12 -30.5 12t-30 -12t-12 -29q0 -16 12 -28t30 -12t30.5 12t12.5 28q0 17 -12.5 29zM387.5 853q-12.5 12 -29.5 12q-18 0 -30.5 -12t-12.5 -29q0 -16 12.5 -28t30.5 -12q17 0 29.5 12t12.5 28q0 17 -12.5 29z" />
    <glyph glyph-name="multiply" unicode="&#xd7;" horiz-adv-x="514" 
d="M485 378l-49 46l-180 -165l-177 165l-50 -46l178 -163l-178 -165l50 -45l177 165l180 -165l49 45l-178 165z" />
    <glyph glyph-name="Oslash" unicode="&#xd8;" horiz-adv-x="561" 
d="M492.5 551.5q22.5 -78.5 22.5 -183.5q0 -178 -61 -279t-172 -101q-82 0 -138 54l-52 -117l-18 8l56 125q-40 48 -61 127t-21 183q0 176 61.5 274t172.5 98q76 0 130 -48l49 109l18 -8l-52 -116q43 -47 65.5 -125.5zM128.5 237.5q10.5 -61.5 33.5 -106.5l222 496
q-40 53 -102 53q-86 0 -125 -90t-39 -222q0 -69 10.5 -130.5zM406.5 141.5q38.5 93.5 38.5 226.5q0 71 -11.5 134t-36.5 106l-223 -498q42 -62 108 -62q86 0 124.5 93.5z" />
    <glyph glyph-name="Ugrave" unicode="&#xd9;" horiz-adv-x="553" 
d="M373.5 14q44.5 26 71.5 79t27 131v504h-68v-528q0 -45 -19 -80t-49 -53.5t-61 -18.5q-32 0 -59.5 19t-44.5 53.5t-17 79.5v528h-68v-504q0 -76 25.5 -129t68.5 -80t95 -27q54 0 98.5 26zM213 939l78 -156h19l-33 156h-64z" />
    <glyph glyph-name="Uacute" unicode="&#xda;" horiz-adv-x="553" 
d="M373.5 14q44.5 26 71.5 79t27 131v504h-68v-528q0 -45 -19 -80t-49 -53.5t-61 -18.5q-32 0 -59.5 19t-44.5 53.5t-17 79.5v528h-68v-504q0 -76 25.5 -129t68.5 -80t95 -27q54 0 98.5 26zM262 783l78 156h-64l-33 -156h19z" />
    <glyph glyph-name="Ucircumflex" unicode="&#xdb;" horiz-adv-x="553" 
d="M373.5 14q44.5 26 71.5 79t27 131v504h-68v-528q0 -45 -19 -80t-49 -53.5t-61 -18.5q-32 0 -59.5 19t-44.5 53.5t-17 79.5v528h-68v-504q0 -76 25.5 -129t68.5 -80t95 -27q54 0 98.5 26zM232 931l-88 -148h15l116 95l116 -95h15l-89 148h-85z" />
    <glyph glyph-name="Udieresis" unicode="&#xdc;" horiz-adv-x="553" 
d="M373.5 14q44.5 26 71.5 79t27 131v504h-68v-528q0 -45 -19 -80t-49 -53.5t-61 -18.5q-32 0 -59.5 19t-44.5 53.5t-17 79.5v528h-68v-504q0 -76 25.5 -129t68.5 -80t95 -27q54 0 98.5 26zM235.5 853q-12.5 12 -30.5 12t-30 -12t-12 -29q0 -16 12 -28t30 -12t30.5 12
t12.5 28q0 17 -12.5 29zM390.5 853q-12.5 12 -29.5 12q-18 0 -30.5 -12t-12.5 -29q0 -16 12.5 -28t30.5 -12q17 0 29.5 12t12.5 28q0 17 -12.5 29z" />
    <glyph glyph-name="germandbls" unicode="&#xdf;" horiz-adv-x="496" 
d="M137 0v524q0 89 34 126t85 37q61 0 82.5 -31.5t21.5 -99.5q0 -71 -39.5 -104.5t-114.5 -37.5v-55q75 4 131 -28t56 -105q0 -83 -40.5 -135t-117.5 -52q-10 0 -30 2v-49q17 -4 39 -4q68 0 117.5 30t75.5 82.5t26 120.5q0 61 -35.5 109.5t-97.5 60.5v3q49 15 74.5 66
t25.5 107q0 81 -47 127t-125 46q-92 0 -140 -53t-48 -150v-537h67z" />
    <glyph glyph-name="agrave" unicode="&#xe0;" horiz-adv-x="405" 
d="M336 0v317q0 113 -35.5 164.5t-111.5 51.5q-57 0 -121 -51l3 -55q48 50 107 50q54 0 72.5 -37t18.5 -123h-56q-71 0 -126.5 -36.5t-55.5 -124.5q0 -86 36 -126t95 -40q25 0 56 24t50 50v-64h68zM256.5 122q-12.5 -32 -35.5 -54.5t-53 -22.5q-38 0 -53.5 25t-15.5 83
q0 61 30 85t71 24h69v-82q0 -26 -12.5 -58zM168 739l78 -156h19l-33 156h-64z" />
    <glyph glyph-name="aacute" unicode="&#xe1;" horiz-adv-x="405" 
d="M165 583l78 156h-64l-33 -156h19zM336 0v317q0 113 -35.5 164.5t-111.5 51.5q-57 0 -121 -51l3 -55q48 50 107 50q54 0 72.5 -37t18.5 -123h-56q-71 0 -126.5 -36.5t-55.5 -124.5q0 -86 36 -126t95 -40q25 0 56 24t50 50v-64h68zM256.5 122q-12.5 -32 -35.5 -54.5
t-53 -22.5q-38 0 -53.5 25t-15.5 83q0 61 30 85t71 24h69v-82q0 -26 -12.5 -58z" />
    <glyph glyph-name="acircumflex" unicode="&#xe2;" horiz-adv-x="405" 
d="M336 0v317q0 113 -35.5 164.5t-111.5 51.5q-57 0 -121 -51l3 -55q48 50 107 50q54 0 72.5 -37t18.5 -123h-56q-71 0 -126.5 -36.5t-55.5 -124.5q0 -86 36 -126t95 -40q25 0 56 24t50 50v-64h68zM256.5 122q-12.5 -32 -35.5 -54.5t-53 -22.5q-38 0 -53.5 25t-15.5 83
q0 61 30 85t71 24h69v-82q0 -26 -12.5 -58zM154 731l-88 -148h15l116 95l116 -95h15l-89 148h-85z" />
    <glyph glyph-name="atilde" unicode="&#xe3;" horiz-adv-x="405" 
d="M336 0v317q0 113 -35.5 164.5t-111.5 51.5q-57 0 -121 -51l3 -55q48 50 107 50q54 0 72.5 -37t18.5 -123h-56q-71 0 -126.5 -36.5t-55.5 -124.5q0 -86 36 -126t95 -40q25 0 56 24t50 50v-64h68zM256.5 122q-12.5 -32 -35.5 -54.5t-53 -22.5q-38 0 -53.5 25t-15.5 83
q0 61 30 85t71 24h69v-82q0 -26 -12.5 -58zM295 640q-21 0 -66 19q-44 19 -78 19q-58 0 -82 -45q-7 -10 -7 -24h19q2 32 39 32q8 0 29 -8q18 -10 27 -14q44 -18 83 -18q33 0 59 14q29 17 29 49h-20q-1 -24 -32 -24z" />
    <glyph glyph-name="adieresis" unicode="&#xe4;" horiz-adv-x="405" 
d="M336 0v317q0 113 -35.5 164.5t-111.5 51.5q-57 0 -121 -51l3 -55q48 50 107 50q54 0 72.5 -37t18.5 -123h-56q-71 0 -126.5 -36.5t-55.5 -124.5q0 -86 36 -126t95 -40q25 0 56 24t50 50v-64h68zM256.5 122q-12.5 -32 -35.5 -54.5t-53 -22.5q-38 0 -53.5 25t-15.5 83
q0 61 30 85t71 24h69v-82q0 -26 -12.5 -58zM149.5 653q-12.5 12 -30.5 12t-30 -12t-12 -29q0 -16 12 -28t30 -12t30.5 12t12.5 28q0 17 -12.5 29zM304.5 653q-12.5 12 -29.5 12q-18 0 -30.5 -12t-12.5 -29q0 -16 12.5 -28t30.5 -12q17 0 29.5 12t12.5 28q0 17 -12.5 29z" />
    <glyph glyph-name="aring" unicode="&#xe5;" horiz-adv-x="405" 
d="M336 0v317q0 113 -35.5 164.5t-111.5 51.5q-57 0 -121 -51l3 -55q48 50 107 50q54 0 72.5 -37t18.5 -123h-56q-71 0 -126.5 -36.5t-55.5 -124.5q0 -86 36 -126t95 -40q25 0 56 24t50 50v-64h68zM256.5 122q-12.5 -32 -35.5 -54.5t-53 -22.5q-38 0 -53.5 25t-15.5 83
q0 61 30 85t71 24h69v-82q0 -26 -12.5 -58zM116.5 715q25.5 26 62.5 26q36 0 61.5 -26t25.5 -62t-25.5 -62t-61.5 -26q-37 0 -62.5 26t-25.5 62t25.5 62zM144.5 619q14.5 -14 34.5 -14t34 14t14 34t-14 34t-34 14t-34.5 -14t-14.5 -34t14.5 -34z" />
    <glyph glyph-name="ae" unicode="&#xe6;" horiz-adv-x="660" 
d="M559.5 470.5q-41.5 62.5 -117.5 62.5q-82 0 -129 -77q-33 77 -124 77q-57 0 -121 -51l3 -55q48 50 107 50q51 0 70.5 -40t19.5 -120h-61q-70 0 -123 -36t-53 -125q0 -86 36 -126t95 -40q27 0 61 20.5t51 43.5l28 40q24 -53 60 -79t91 -26q34 0 79 23.5t61 49.5v45
q-24 -28 -62 -46.5t-75 -18.5q-64 0 -90.5 60.5t-29.5 150.5h265v44q0 111 -41.5 173.5zM373 425.5q25 53.5 67 53.5q55 0 76 -48.5t26 -122.5h-202q8 64 33 117.5zM256 127.5q-12 -31.5 -35 -54t-53 -22.5q-27 0 -48 26.5t-21 75.5q0 37 18 61.5t44 36t50 11.5h57v-76
q0 -27 -12 -58.5z" />
    <glyph glyph-name="ccedilla" unicode="&#xe7;" horiz-adv-x="365" 
d="M152.5 446q-23.5 -33 -37 -82.5t-13.5 -97.5q0 -84 26 -152.5t77 -68.5q82 0 125 43v-49q-16 -20 -54 -33.5t-69 -13.5h-5v-25q72 0 72 -47q0 -53 -72 -53q-30 0 -73 12l-1 27q44 -10 73 -10q31 0 31 22q0 24 -39 24l-13 -1v53q-68 12 -107 81.5t-39 190.5
q0 127 46.5 197t126.5 70q50 0 82.5 -17.5t40.5 -38.5v-44q-43 46 -125 46q-29 0 -52.5 -33z" />
    <glyph glyph-name="egrave" unicode="&#xe8;" horiz-adv-x="402" 
d="M167 739l78 -156h19l-33 156h-64zM324.5 470.5q-41.5 62.5 -117.5 62.5q-79 0 -126 -73t-47 -202q0 -134 47 -201.5t137 -67.5q34 0 79 23.5t61 49.5v45q-24 -28 -62 -46.5t-75 -18.5q-64 0 -90.5 60.5t-29.5 150.5h265v44q0 111 -41.5 173.5zM138 425.5q25 53.5 67 53.5
q55 0 76 -48.5t26 -122.5h-202q8 64 33 117.5z" />
    <glyph glyph-name="eacute" unicode="&#xe9;" horiz-adv-x="402" 
d="M324.5 470.5q-41.5 62.5 -117.5 62.5q-79 0 -126 -73t-47 -202q0 -134 47 -201.5t137 -67.5q34 0 79 23.5t61 49.5v45q-24 -28 -62 -46.5t-75 -18.5q-64 0 -90.5 60.5t-29.5 150.5h265v44q0 111 -41.5 173.5zM138 425.5q25 53.5 67 53.5q55 0 76 -48.5t26 -122.5h-202
q8 64 33 117.5zM193 583l78 156h-64l-33 -156h19z" />
    <glyph glyph-name="ecircumflex" unicode="&#xea;" horiz-adv-x="402" 
d="M164 731l-88 -148h15l116 95l116 -95h15l-89 148h-85zM324.5 470.5q-41.5 62.5 -117.5 62.5q-79 0 -126 -73t-47 -202q0 -134 47 -201.5t137 -67.5q34 0 79 23.5t61 49.5v45q-24 -28 -62 -46.5t-75 -18.5q-64 0 -90.5 60.5t-29.5 150.5h265v44q0 111 -41.5 173.5z
M138 425.5q25 53.5 67 53.5q55 0 76 -48.5t26 -122.5h-202q8 64 33 117.5z" />
    <glyph glyph-name="edieresis" unicode="&#xeb;" horiz-adv-x="402" 
d="M324.5 470.5q-41.5 62.5 -117.5 62.5q-79 0 -126 -73t-47 -202q0 -134 47 -201.5t137 -67.5q34 0 79 23.5t61 49.5v45q-24 -28 -62 -46.5t-75 -18.5q-64 0 -90.5 60.5t-29.5 150.5h265v44q0 111 -41.5 173.5zM138 425.5q25 53.5 67 53.5q55 0 76 -48.5t26 -122.5h-202
q8 64 33 117.5zM167.5 653q-12.5 12 -30.5 12t-30 -12t-12 -29q0 -16 12 -28t30 -12t30.5 12t12.5 28q0 17 -12.5 29zM322.5 653q-12.5 12 -29.5 12q-18 0 -30.5 -12t-12.5 -29q0 -16 12.5 -28t30.5 -12q17 0 29.5 12t12.5 28q0 17 -12.5 29z" />
    <glyph glyph-name="igrave" unicode="&#xec;" horiz-adv-x="218" 
d="M60 739l78 -156h19l-33 156h-64zM142 0v525h-68v-525h68z" />
    <glyph glyph-name="iacute" unicode="&#xed;" horiz-adv-x="218" 
d="M89 583l78 156h-64l-33 -156h19zM142 0v525h-68v-525h68z" />
    <glyph glyph-name="icircumflex" unicode="&#xee;" horiz-adv-x="218" 
d="M78 731l-88 -148h15l116 95l116 -95h15l-89 148h-85zM142 0v525h-68v-525h68z" />
    <glyph glyph-name="idieresis" unicode="&#xef;" horiz-adv-x="218" 
d="M142 0v525h-68v-525h68zM73.5 653q-12.5 12 -30.5 12t-30 -12t-12 -29q0 -16 12 -28t30 -12t30.5 12t12.5 28q0 17 -12.5 29zM228.5 653q-12.5 12 -29.5 12q-18 0 -30.5 -12t-12.5 -29q0 -16 12.5 -28t30.5 -12q17 0 29.5 12t12.5 28q0 17 -12.5 29z" />
    <glyph glyph-name="ntilde" unicode="&#xf1;" horiz-adv-x="451" 
d="M75 525v-525h67v378q0 21 16 44.5t41.5 39t50.5 15.5q24 0 44 -21.5t20 -53.5v-402h67v384q0 50 -18.5 83.5t-48 49.5t-61.5 16q-29 0 -63.5 -17t-47.5 -47v56h-67zM315 650q-21 0 -66 19q-44 19 -78 19q-58 0 -82 -45q-7 -10 -7 -24h19q2 32 39 32q8 0 29 -8
q18 -10 27 -14q44 -18 83 -18q33 0 59 14q29 17 29 49h-20q-1 -24 -32 -24z" />
    <glyph glyph-name="ograve" unicode="&#xf2;" horiz-adv-x="408" 
d="M185 739l78 -156h19l-33 156h-64zM52.5 118q21.5 -61 60.5 -93.5t91 -32.5q51 0 90.5 32.5t61 93.5t21.5 143q0 137 -46 204.5t-127 67.5q-80 0 -126.5 -70t-46.5 -202q0 -82 21.5 -143zM260.5 446q23.5 -33 36 -83.5t12.5 -103.5q0 -82 -26.5 -147t-78.5 -65
q-56 0 -80.5 67t-24.5 145q0 86 28.5 153t77.5 67q32 0 55.5 -33z" />
    <glyph glyph-name="oacute" unicode="&#xf3;" horiz-adv-x="408" 
d="M183 583l78 156h-64l-33 -156h19zM52.5 118q21.5 -61 60.5 -93.5t91 -32.5q51 0 90.5 32.5t61 93.5t21.5 143q0 137 -46 204.5t-127 67.5q-80 0 -126.5 -70t-46.5 -202q0 -82 21.5 -143zM260.5 446q23.5 -33 36 -83.5t12.5 -103.5q0 -82 -26.5 -147t-78.5 -65
q-56 0 -80.5 67t-24.5 145q0 86 28.5 153t77.5 67q32 0 55.5 -33z" />
    <glyph glyph-name="ocircumflex" unicode="&#xf4;" horiz-adv-x="408" 
d="M162 731l-88 -148h15l116 95l116 -95h15l-89 148h-85zM52.5 118q21.5 -61 60.5 -93.5t91 -32.5q51 0 90.5 32.5t61 93.5t21.5 143q0 137 -46 204.5t-127 67.5q-80 0 -126.5 -70t-46.5 -202q0 -82 21.5 -143zM260.5 446q23.5 -33 36 -83.5t12.5 -103.5q0 -82 -26.5 -147
t-78.5 -65q-56 0 -80.5 67t-24.5 145q0 86 28.5 153t77.5 67q32 0 55.5 -33z" />
    <glyph glyph-name="otilde" unicode="&#xf5;" horiz-adv-x="408" 
d="M52.5 118q21.5 -61 60.5 -93.5t91 -32.5q51 0 90.5 32.5t61 93.5t21.5 143q0 137 -46 204.5t-127 67.5q-80 0 -126.5 -70t-46.5 -202q0 -82 21.5 -143zM260.5 446q23.5 -33 36 -83.5t12.5 -103.5q0 -82 -26.5 -147t-78.5 -65q-56 0 -80.5 67t-24.5 145q0 86 28.5 153
t77.5 67q32 0 55.5 -33zM315 640q-21 0 -66 19q-44 19 -78 19q-58 0 -82 -45q-7 -10 -7 -24h19q2 32 39 32q8 0 29 -8q18 -10 27 -14q44 -18 83 -18q33 0 59 14q29 17 29 49h-20q-1 -24 -32 -24z" />
    <glyph glyph-name="odieresis" unicode="&#xf6;" horiz-adv-x="408" 
d="M52.5 118q21.5 -61 60.5 -93.5t91 -32.5q51 0 90.5 32.5t61 93.5t21.5 143q0 137 -46 204.5t-127 67.5q-80 0 -126.5 -70t-46.5 -202q0 -82 21.5 -143zM260.5 446q23.5 -33 36 -83.5t12.5 -103.5q0 -82 -26.5 -147t-78.5 -65q-56 0 -80.5 67t-24.5 145q0 86 28.5 153
t77.5 67q32 0 55.5 -33zM158.5 653q-12.5 12 -30.5 12t-30 -12t-12 -29q0 -16 12 -28t30 -12t30.5 12t12.5 28q0 17 -12.5 29zM313.5 653q-12.5 12 -29.5 12q-18 0 -30.5 -12t-12.5 -29q0 -16 12.5 -28t30.5 -12q17 0 29.5 12t12.5 28q0 17 -12.5 29z" />
    <glyph glyph-name="divide" unicode="&#xf7;" horiz-adv-x="468" 
d="M291 519.5q-21 19.5 -52 19.5t-52.5 -19.5t-21.5 -48.5q0 -28 21.5 -47.5t52.5 -19.5t52 19.5t21 47.5q0 29 -21 48.5zM65 347v-71h346v71h-346zM291 190.5q-21 19.5 -52 19.5t-52.5 -19.5t-21.5 -48.5q0 -28 22 -48t52 -20t51.5 20t21.5 48q0 29 -21 48.5z" />
    <glyph glyph-name="oslash" unicode="&#xf8;" horiz-adv-x="408" 
d="M377 261q0 -82 -21.5 -143t-61 -93.5t-90.5 -32.5q-56 0 -96 37l-40 -86l-18 8l43 93q-30 36 -46 91t-16 126q0 132 46.5 202t126.5 70q60 0 99 -35l43 93l18 -8l-46 -100q59 -70 59 -222zM105 182.5q6 -39.5 20 -70.5l146 317q-28 50 -66 50q-49 0 -77.5 -67t-28.5 -153
q0 -37 6 -76.5zM282.5 112q26.5 65 26.5 147q0 39 -7 77.5t-20 69.5l-146 -316q26 -43 68 -43q52 0 78.5 65z" />
    <glyph glyph-name="ugrave" unicode="&#xf9;" horiz-adv-x="451" 
d="M198 739l78 -156h19l-33 156h-64zM381 0v525h-67v-377q-3 -23 -17.5 -46t-38.5 -38.5t-54 -15.5q-24 0 -43 23t-19 53v401h-67v-386q0 -74 38 -110.5t90 -36.5q29 0 61.5 16t49.5 46v-54h67z" />
    <glyph glyph-name="uacute" unicode="&#xfa;" horiz-adv-x="451" 
d="M203 583l78 156h-64l-33 -156h19zM381 0v525h-67v-377q-3 -23 -17.5 -46t-38.5 -38.5t-54 -15.5q-24 0 -43 23t-19 53v401h-67v-386q0 -74 38 -110.5t90 -36.5q29 0 61.5 16t49.5 46v-54h67z" />
    <glyph glyph-name="ucircumflex" unicode="&#xfb;" horiz-adv-x="451" 
d="M183 731l-88 -148h15l116 95l116 -95h15l-89 148h-85zM381 0v525h-67v-377q-3 -23 -17.5 -46t-38.5 -38.5t-54 -15.5q-24 0 -43 23t-19 53v401h-67v-386q0 -74 38 -110.5t90 -36.5q29 0 61.5 16t49.5 46v-54h67z" />
    <glyph glyph-name="udieresis" unicode="&#xfc;" horiz-adv-x="451" 
d="M381 0v525h-67v-377q-3 -23 -17.5 -46t-38.5 -38.5t-54 -15.5q-24 0 -43 23t-19 53v401h-67v-386q0 -74 38 -110.5t90 -36.5q29 0 61.5 16t49.5 46v-54h67zM184.5 653q-12.5 12 -30.5 12t-30 -12t-12 -29q0 -16 12 -28t30 -12t30.5 12t12.5 28q0 17 -12.5 29zM339.5 653
q-12.5 12 -29.5 12q-18 0 -30.5 -12t-12.5 -29q0 -16 12.5 -28t30.5 -12q17 0 29.5 12t12.5 28q0 17 -12.5 29z" />
    <glyph glyph-name="ydieresis" unicode="&#xff;" horiz-adv-x="360" 
d="M85 525h-77l137 -520l-12 -67q-1 -3 -5.5 -29t-14 -46.5t-21.5 -20.5q-24 0 -38 9v-60q20 -14 45 -14q31 0 53.5 39t33.5 81l166 628h-77l-93 -429h-2zM140.5 653q-12.5 12 -30.5 12t-30 -12t-12 -29q0 -16 12 -28t30 -12t30.5 12t12.5 28q0 17 -12.5 29zM295.5 653
q-12.5 12 -29.5 12q-18 0 -30.5 -12t-12.5 -29q0 -16 12.5 -28t30.5 -12q17 0 29.5 12t12.5 28q0 17 -12.5 29z" />
    <glyph glyph-name="dotlessi" unicode="&#x131;" horiz-adv-x="218" 
d="M142 0v525h-68v-525h68z" />
    <glyph glyph-name="Lslash" unicode="&#x141;" horiz-adv-x="429" 
d="M90 314v414h75v-339l40 41l13 -13l-53 -54v-289h246v-74h-321v287l-74 -74l-13 13z" />
    <glyph glyph-name="lslash" unicode="&#x142;" horiz-adv-x="272" 
d="M98 281v447h75v-371l52 53l13 -13l-65 -66v-331h-75v255l-62 -62l-13 13z" />
    <glyph glyph-name="OE" unicode="&#x152;" horiz-adv-x="867" 
d="M807 58v-58h-357v83q-60 -95 -168 -95q-114 0 -174 100t-60 280q0 176 61.5 274t172.5 98q108 0 168 -91v79h345v-58h-278v-264h262v-58h-262v-290h290zM406.5 141.5q38.5 93.5 38.5 226.5q0 131 -38.5 221.5t-124.5 90.5t-125 -90t-39 -222q0 -133 39 -226.5t125 -93.5
t124.5 93.5z" />
    <glyph glyph-name="oe" unicode="&#x153;" horiz-adv-x="703" 
d="M644 253h-265q3 -90 29.5 -150.5t90.5 -60.5q37 0 75 18.5t62 46.5v-45q-16 -26 -61 -49.5t-79 -23.5q-109 0 -154 98q-23 -46 -58.5 -70.5t-79.5 -24.5q-52 0 -91 32.5t-60.5 93.5t-21.5 143q0 132 46.5 202t126.5 70q98 0 142 -96q23 47 58 71.5t81 24.5
q76 0 117.5 -62.5t41.5 -173.5v-44zM282.5 112q26.5 65 26.5 147q0 53 -12.5 103.5t-36 83.5t-55.5 33q-49 0 -77.5 -67t-28.5 -153q0 -78 24.5 -145t80.5 -67q52 0 78.5 65zM585 308q-5 74 -26 122.5t-76 48.5q-42 0 -67 -53.5t-33 -117.5h202z" />
    <glyph glyph-name="Scaron" unicode="&#x160;" horiz-adv-x="449" 
d="M362.5 47.5q55.5 59.5 55.5 162.5q0 72 -43.5 118.5t-124.5 80.5q-62 26 -99 57t-37 82q0 59 34 95t88 36q42 0 70.5 -10t46.5 -24t46 -41v86q-46 27 -86.5 38.5t-90.5 11.5q-47 0 -88 -23.5t-65.5 -69t-24.5 -107.5q0 -73 39.5 -114.5t126.5 -76.5q138 -55 138 -163
q0 -43 -20.5 -72.5t-51 -43.5t-58.5 -14q-104 0 -187 83v-93q48 -31 91.5 -44.5t94.5 -13.5q90 0 145.5 59.5zM367 931h-15l-116 -94l-116 94h-15l88 -148h85z" />
    <glyph glyph-name="scaron" unicode="&#x161;" horiz-adv-x="348" 
d="M243.5 8q35.5 16 58.5 51t23 89q0 77 -128 137q-38 18 -63 40t-25 54q0 40 19.5 69.5t55.5 29.5q47 0 71.5 -11t55.5 -36v61q-22 18 -56.5 29.5t-65.5 11.5q-37 0 -70.5 -17.5t-55.5 -54.5t-22 -93q0 -79 125 -136q51 -23 71 -41.5t20 -54.5q0 -38 -25.5 -63t-55.5 -25
q-69 0 -137 64v-77q36 -22 67 -32.5t65 -10.5q37 0 72.5 16zM317 736h-15l-116 -94l-116 94h-15l88 -148h85z" />
    <glyph glyph-name="Zcaron" unicode="&#x17d;" horiz-adv-x="447" 
d="M91 58l319 577v93h-366v-58h311l-332 -599v-71h387v58h-319zM361 931h-15l-116 -94l-116 94h-15l88 -148h85z" />
    <glyph glyph-name="zcaron" unicode="&#x17e;" horiz-adv-x="380" 
d="M100 55l232 423v47h-288v-55h206l-219 -404v-66h308v55h-239zM327 731h-15l-116 -94l-116 94h-15l88 -148h85z" />
    <glyph glyph-name="circumflex" unicode="&#x2c6;" horiz-adv-x="262" 
d="M88 931l-88 -148h15l116 95l116 -95h15l-89 148h-85z" />
    <glyph glyph-name="caron" unicode="&#x2c7;" horiz-adv-x="290" 
d="M277 931h-15l-116 -94l-116 94h-15l88 -148h85z" />
    <glyph glyph-name="ring" unicode="&#x2da;" horiz-adv-x="173" 
d="M25.5 895q25.5 26 62.5 26q36 0 61.5 -26t25.5 -62t-25.5 -62t-61.5 -26q-37 0 -62.5 26t-25.5 62t25.5 62zM53.5 799q14.5 -14 34.5 -14t34 14t14 34t-14 34t-34 14t-34.5 -14t-14.5 -34t14.5 -34z" />
    <glyph glyph-name="ogonek" unicode="&#x2db;" horiz-adv-x="306" 
d="M164 -89q-20 3 -20 23q0 28 42 66h-25q-56 -45 -56 -82q0 -51 67 -51h26v44h-34z" />
    <glyph glyph-name="tilde" unicode="&#x2dc;" horiz-adv-x="357" 
d="M263 820q-21 0 -66 19q-44 19 -78 19q-58 0 -82 -45q-7 -10 -7 -24h19q2 32 39 32q8 0 29 -8q18 -10 27 -14q44 -18 83 -18q33 0 59 14q29 17 29 49h-20q-1 -24 -32 -24z" />
    <glyph glyph-name="hungarumlaut" unicode="&#x2dd;" horiz-adv-x="302" 
d="M52 783l78 156h-64l-33 -156h19zM163 783l78 156h-64l-33 -156h19z" />
    <glyph glyph-name="uni05B0" unicode="&#x5b0;" 
 />
    <glyph glyph-name="uni05B1" unicode="&#x5b1;" 
 />
    <glyph glyph-name="uni05B2" unicode="&#x5b2;" 
 />
    <glyph glyph-name="uni05B3" unicode="&#x5b3;" 
 />
    <glyph glyph-name="uni05B4" unicode="&#x5b4;" 
 />
    <glyph glyph-name="uni05B5" unicode="&#x5b5;" 
 />
    <glyph glyph-name="uni05B6" unicode="&#x5b6;" 
 />
    <glyph glyph-name="uni05B7" unicode="&#x5b7;" 
 />
    <glyph glyph-name="uni05B8" unicode="&#x5b8;" 
 />
    <glyph glyph-name="uni05B9" unicode="&#x5b9;" 
d="M30 660.5q-12 12.5 -30 12.5t-30 -12.5t-12 -30.5t12 -30t30 -12t30 12t12 30t-12 30.5z" />
    <glyph glyph-name="uni05BB" unicode="&#x5bb;" 
 />
    <glyph glyph-name="uni05BC" unicode="&#x5bc;" 
d="M28 288.5q-11 11.5 -28 11.5t-28 -11.5t-11 -28.5t11 -28t28 -11t28 11t11 28t-11 28.5z" />
    <glyph glyph-name="uni05BD" unicode="&#x5bd;" 
d="M-15 -88v-141h30v141h-30z" />
    <glyph glyph-name="uni05BE" unicode="&#x5be;" horiz-adv-x="401" 
d="M46 525h310v-55h-310v55z" />
    <glyph glyph-name="uni05BF" unicode="&#x5bf;" 
d="M-112 671v-48h224v48h-224z" />
    <glyph glyph-name="uni05C0" unicode="&#x5c0;" horiz-adv-x="149" 
d="M53 502v-506h43v506h-43z" />
    <glyph glyph-name="uni05C1" unicode="&#x5c1;" 
d="M30 660.5q-12 12.5 -30 12.5t-30 -12.5t-12 -30.5t12 -30t30 -12t30 12t12 30t-12 30.5z" />
    <glyph glyph-name="uni05C2" unicode="&#x5c2;" 
d="M30 660.5q-12 12.5 -30 12.5t-30 -12.5t-12 -30.5t12 -30t30 -12t30 12t12 30t-12 30.5z" />
    <glyph glyph-name="uni05C3" unicode="&#x5c3;" horiz-adv-x="256" 
d="M168 409q-19 19 -45 19q-27 0 -46.5 -19t-19.5 -46t19.5 -46t46.5 -19q26 0 45 19.5t19 45.5q0 27 -19 46zM168 95q-19 19 -45 19q-27 0 -46.5 -19t-19.5 -45q0 -28 19.5 -47t46.5 -19q26 0 45 19.5t19 46.5q0 26 -19 45z" />
    <glyph glyph-name="uni05C4" unicode="&#x5c4;" 
d="M-39 623v-78h79v78h-79z" />
    <glyph glyph-name="uni05C5" unicode="&#x5c5;" 
d="M-40 -294v-78h79v78h-79z" />
    <glyph glyph-name="uni05D0" unicode="&#x5d0;" horiz-adv-x="422" 
d="M263 256q22 6 32 14q57 37 64 126q4 43 10 129h-63l-9 -118q-8 -84 -39 -104q-7 -6 -16 -6l-134 228h-73l126 -204q-13 -4 -32 -13q-63 -37 -68 -131q-5 -69 -10 -177h63q5 100 10 165q3 38 12.5 69t31.5 45q7 4 15 4l135 -283h69z" />
    <glyph glyph-name="uni05D1" unicode="&#x5d1;" horiz-adv-x="356" 
d="M327 55h-51v470h-244v-55h177v-415h-177v-55h295v55z" />
    <glyph glyph-name="uni05D2" unicode="&#x5d2;" horiz-adv-x="290" 
d="M232 67q-6 68 -8 102q-6 129 -8 178q-1 30 -3 74.5t-6 103.5h-157v-55h95l9 -195v-5q0 -36 -16.5 -83t-45 -84t-62.5 -44v-70q32 0 56.5 25.5t39 55t32.5 75.5h4l8 -145h67z" />
    <glyph glyph-name="uni05D3" unicode="&#x5d3;" horiz-adv-x="348" 
d="M313 525h-288v-55h170v-470h67v470h51v55z" />
    <glyph glyph-name="uni05D4" unicode="&#x5d4;" horiz-adv-x="432" 
d="M371 525h-306v-55h239v-470h67v525zM138 333h-67v-333h67v333z" />
    <glyph glyph-name="uni05D5" unicode="&#x5d5;" horiz-adv-x="241" 
d="M180 525h-152v-55h85v-470h67v525z" />
    <glyph glyph-name="uni05D6" unicode="&#x5d6;" horiz-adv-x="260" 
d="M224 525h-188v-55h116q-8 -3 -16 -11l-9 -9q-44 -50 -44 -154v-296h67v316q0 154 58 154h16v55z" />
    <glyph glyph-name="uni05D7" unicode="&#x5d7;" horiz-adv-x="436" 
d="M380 388q0 69 -30.5 103t-97.5 34h-182v-525h67v470h99q33 0 49.5 -9t22 -28t5.5 -54v-379h67v388z" />
    <glyph glyph-name="uni05D8" unicode="&#x5d8;" horiz-adv-x="432" 
d="M359 470.5q-27 62.5 -96 62.5q-14 0 -32 -4t-27 -12v-52q19 15 40 14q45 2 58.5 -36.5t14.5 -73.5t2 -44q0 -98 -27 -170q-18 -48 -45 -74t-76 -26h-29l-21 470h-67l24 -525h101q75 0 121.5 52t66 127.5t19.5 148.5q0 80 -27 142.5z" />
    <glyph glyph-name="uni05D9" unicode="&#x5d9;" horiz-adv-x="233" 
d="M167 525h-142v-55h75v-228h67v283z" />
    <glyph glyph-name="uni05DA" unicode="&#x5da;" horiz-adv-x="342" 
d="M272 525h-242v-55h175v-630h67v685z" />
    <glyph glyph-name="uni05DB" unicode="&#x5db;" horiz-adv-x="344" 
d="M288 350q0 76 -34.5 125.5t-107.5 49.5h-110l-1 -55h111q41 0 58 -37t17 -84v-169q-2 -53 -16.5 -88.5t-56.5 -36.5h-120v-55h118q72 0 107.5 52.5t35.5 127.5z" />
    <glyph glyph-name="uni05DC" unicode="&#x5dc;" horiz-adv-x="332" 
d="M92 525v147h-67v-202h200l-127 -470h69l140 525h-215z" />
    <glyph glyph-name="uni05DD" unicode="&#x5dd;" horiz-adv-x="447" 
d="M384 378q0 76 -32 111.5t-106 35.5h-176v-525h314v378zM137 55v415h109q32 0 47.5 -14t19.5 -36t4 -56v-309h-180z" />
    <glyph glyph-name="uni05DE" unicode="&#x5de;" horiz-adv-x="443" 
d="M378 387q0 71 -31 104.5t-101 33.5h-221v-55h79l-60 -470h65l61 470h63q33 0 50 -9.5t22.5 -28.5t5.5 -54v-323h-117l1 -55h183v387z" />
    <glyph glyph-name="uni05DF" unicode="&#x5df;" horiz-adv-x="254" 
d="M184 525h-149v-55h82v-630h67v685z" />
    <glyph glyph-name="uni05E0" unicode="&#x5e0;" horiz-adv-x="258" 
d="M192 525h-150l1 -55h82v-415h-92v-55h159v525z" />
    <glyph glyph-name="uni05E1" unicode="&#x5e1;" horiz-adv-x="435" 
d="M55 525l24 -525h103q112 0 153 95.5t50 233.5q4 60 4 179v17h-334zM317 299q-10 -99 -37 -171.5t-98 -72.5h-39l-21 415h201q0 -103 -6 -171z" />
    <glyph glyph-name="uni05E2" unicode="&#x5e2;" horiz-adv-x="422" 
d="M301 525l-18 -310q0 -5 -3 -49.5t-19.5 -77.5t-45.5 -33h-24l-84 470h-67l85 -470h-72v-55h157q58 0 87.5 33.5t39 79t12.5 111.5l18 301h-66z" />
    <glyph glyph-name="uni05E3" unicode="&#x5e3;" horiz-adv-x="411" 
d="M345 387q0 70 -29 104t-98 34h-163v-287h67v232h80q33 0 49.5 -9.5t21.5 -29t5 -54.5l1 -537h66v547z" />
    <glyph glyph-name="uni05E4" unicode="&#x5e4;" horiz-adv-x="426" 
d="M361 387q0 71 -30 104.5t-98 33.5h-168v-280h67v225h84q34 0 50.5 -9t22 -28t5.5 -56v-322h-229v-55h296v387z" />
    <glyph glyph-name="uni05E5" unicode="&#x5e5;" horiz-adv-x="361" 
d="M241 365q-6 -32 -20 -60t-38 -26l-98 246h-70l90 -222q16 -40 21 -65t5 -67v-331h67v393q14 2 29 9q63 27 77 110l27 173h-67z" />
    <glyph glyph-name="uni05E6" unicode="&#x5e6;" horiz-adv-x="373" 
d="M218 255q29 0 51.5 21t35 52t15.5 60l15 137h-66l-13 -134q-3 -34 -16 -63t-40 -29h-1l-109 226h-69l224 -470h-209v-55h302z" />
    <glyph glyph-name="uni05E7" unicode="&#x5e7;" horiz-adv-x="452" 
d="M60 525v-55h277l-111 -470h68l124 525h-358zM137 335h-67v-495h67v495z" />
    <glyph glyph-name="uni05E8" unicode="&#x5e8;" horiz-adv-x="351" 
d="M286 365q0 78 -28 119t-103 41h-130v-55h110q52 0 68 -27.5t16 -83.5v-359h67v365z" />
    <glyph glyph-name="uni05E9" unicode="&#x5e9;" horiz-adv-x="523" 
d="M401 525l-11 -190q-3 -53 -18.5 -118t-49 -113.5t-84.5 -48.5h-83l-13 162q122 4 140 145q5 37 9 120l2 43h-64q-6 -97 -11 -151q-6 -46 -18.5 -75.5t-45.5 -29.5h-18l-18 256h-66l43 -525h164q97 0 142 109.5t54 233.5l12 182h-66z" />
    <glyph glyph-name="uni05EA" unicode="&#x5ea;" horiz-adv-x="484" 
d="M420 525h-372v-55h75v-363q0 -19 -9 -35.5t-26 -16.5h-53v-55h81q37 0 55.5 33t18.5 74v363h163v-470h67v525z" />
    <glyph glyph-name="uni05D505D5" unicode="&#x5f0;" horiz-adv-x="482" 
d="M180 525h-152v-55h85v-470h67v525zM421 525h-152v-55h85v-470h67v525z" />
    <glyph glyph-name="uni05D505D9" unicode="&#x5f1;" horiz-adv-x="503" 
d="M170 525h-142v-55h75v-228h67v283zM442 525h-152v-55h85v-470h67v525z" />
    <glyph glyph-name="uni05D905D9" unicode="&#x5f2;" horiz-adv-x="447" 
d="M167 525h-142v-55h75v-228h67v283zM381 525h-142v-55h75v-228h67v283z" />
    <glyph glyph-name="uni05F3" unicode="&#x5f3;" horiz-adv-x="223" 
d="M94 381h-32l38 245h60z" />
    <glyph glyph-name="uni05F4" unicode="&#x5f4;" horiz-adv-x="397" 
d="M94 381h-32l38 245h60zM268 381h-32l38 245h60z" />
    <glyph glyph-name="uni200C" unicode="&#x200c;" horiz-adv-x="19" 
d="M0 703v-703h19v703h-19z" />
    <glyph glyph-name="uni200D" unicode="&#x200d;" horiz-adv-x="19" 
d="M69 738l-13 14l-46 -47l-45 47l-15 -14l48 -46l-48 -46l15 -13l35 36v-669h19v669l37 -36l13 13l-46 46z" />
    <glyph glyph-name="uni200E" unicode="&#x200e;" horiz-adv-x="19" 
d="M58 738l36 -35h-94v-703h19v684h77l-38 -38l14 -13l59 59l-59 60z" />
    <glyph glyph-name="uni200F" unicode="&#x200f;" horiz-adv-x="19" 
d="M-73 703l36 35l-14 14l-60 -60l60 -59l14 13l-37 38h75v-684h19v703h-93z" />
    <glyph glyph-name="endash" unicode="&#x2013;" horiz-adv-x="400" 
d="M46 226v43h309v-43h-309z" />
    <glyph glyph-name="emdash" unicode="&#x2014;" horiz-adv-x="541" 
d="M46 221v48h439v-48h-439z" />
    <glyph glyph-name="quoteleft" unicode="&#x2018;" horiz-adv-x="223" 
d="M122 626l38 -245h-32l-66 245h60z" />
    <glyph glyph-name="quoteright" unicode="&#x2019;" horiz-adv-x="223" 
d="M94 381h-32l38 245h60z" />
    <glyph glyph-name="quotesinglbase" unicode="&#x201a;" horiz-adv-x="223" 
d="M94 -70h-32l38 245h60z" />
    <glyph glyph-name="quotedblleft" unicode="&#x201c;" horiz-adv-x="397" 
d="M122 626l38 -245h-32l-66 245h60zM296 626l38 -245h-32l-66 245h60z" />
    <glyph glyph-name="quotedblright" unicode="&#x201d;" horiz-adv-x="397" 
d="M94 381h-32l38 245h60zM268 381h-32l38 245h60z" />
    <glyph glyph-name="quotedblbase" unicode="&#x201e;" horiz-adv-x="356" 
d="M227 -70h-32l38 245h60zM94 -70h-32l38 245h60z" />
    <glyph glyph-name="dagger" unicode="&#x2020;" horiz-adv-x="430" 
d="M388.5 427.5q-14.5 11.5 -34.5 11.5q-21 0 -65 -18q-46 -17 -67 -17q0 27 21 76q21 50 21 76q0 24 -14 41.5t-37 17.5t-37 -17.5t-14 -41.5q0 -26 21 -76q21 -49 21 -76q-21 0 -67 17q-44 18 -64 18q-21 0 -35.5 -11t-14.5 -31q0 -18 14.5 -30.5t35.5 -12.5q18 0 64 17
q43 18 67 18q0 -72 -46 -106q46 -168 46 -470h18q0 302 46 470q-46 34 -46 106q24 0 67 -18q46 -17 65 -17t34 12.5t15 30.5q0 19 -14.5 30.5z" />
    <glyph glyph-name="daggerdbl" unicode="&#x2021;" horiz-adv-x="382" 
d="M320 41q-23 0 -58 -16t-61 -16q4 50 44 76q-44 53 -44 133q0 72 44 125q-40 26 -44 76q26 0 61 -16t58 -16q44 0 44 40q0 39 -44 39q-23 0 -58 -16q-37 -15 -61 -15q-1 22 18 68q20 49 20 63q0 20 -14 34.5t-34 14.5t-34 -14.5t-14 -34.5q0 -17 18 -64q18 -44 20 -67
q-23 0 -61 15q-35 16 -58 16q-44 0 -44 -39q0 -40 44 -40q23 0 58 16t61 16q-4 -50 -44 -76q44 -53 44 -125q0 -80 -44 -133q40 -26 44 -76q-26 0 -61 16t-58 16q-44 0 -44 -40q0 -39 44 -39q23 0 58 16q38 15 61 15q1 -18 -19 -68q-19 -44 -19 -63q0 -20 14 -34.5t34 -14.5
t34 14.5t14 34.5q0 14 -20 63q-19 46 -18 68q24 0 61 -15q35 -16 58 -16q44 0 44 39q0 40 -44 40z" />
    <glyph glyph-name="bullet" unicode="&#x2022;" horiz-adv-x="397" 
d="M327 389q-53 53 -127 53t-129 -52q-53 -53 -53 -127q0 -76 53 -129q56 -53 129 -53q74 0 127 53q53 56 53 129t-53 126z" />
    <glyph glyph-name="ellipsis" unicode="&#x2026;" horiz-adv-x="539" 
d="M213 0v87h85v-87h-85zM36 0v87h85v-87h-85zM390 0v87h85v-87h-85z" />
    <glyph glyph-name="perthousand" unicode="&#x2030;" horiz-adv-x="1050" 
d="M58.5 527.5q5.5 43.5 30 76t75.5 32.5q52 0 77.5 -34t32 -79.5t6.5 -104.5q0 -89 -21 -152t-95 -63q-51 0 -75 34.5t-30 80t-6 105.5q0 61 5.5 104.5zM208 -11h40l277 640h-40zM113.5 294.5q11.5 -48.5 50.5 -48.5q44 0 55.5 51t11.5 119q0 82 -11.5 131t-55.5 49
q-40 0 -51 -47t-11 -140q0 -66 11.5 -114.5zM468.5 317.5q5.5 43.5 30 76t75.5 32.5q52 0 77.5 -34t32 -79.5t6.5 -104.5q0 -89 -21 -152t-95 -63q-51 0 -75 34.5t-30 80t-6 105.5q0 61 5.5 104.5zM778.5 317.5q5.5 43.5 30 76t75.5 32.5q52 0 77.5 -34t32 -79.5t6.5 -104.5
q0 -89 -21 -152t-95 -63q-51 0 -75 34.5t-30 80t-6 105.5q0 61 5.5 104.5zM523.5 84.5q11.5 -48.5 50.5 -48.5q44 0 55.5 51t11.5 119q0 82 -11.5 131t-55.5 49q-40 0 -51 -47t-11 -140q0 -66 11.5 -114.5zM833.5 84.5q11.5 -48.5 50.5 -48.5q44 0 55.5 51t11.5 119
q0 82 -11.5 131t-55.5 49q-40 0 -51 -47t-11 -140q0 -66 11.5 -114.5z" />
    <glyph glyph-name="guilsinglleft" unicode="&#x2039;" horiz-adv-x="292" 
d="M248 406h-28l-176 -203l176 -203h28l-114 203z" />
    <glyph glyph-name="guilsinglright" unicode="&#x203a;" horiz-adv-x="292" 
d="M44 406l113 -203l-113 -203h28l176 203l-176 203h-28z" />
    <glyph glyph-name="peseta" unicode="&#x20a7;" horiz-adv-x="1012" 
d="M553.5 30.5q-30.5 38.5 -30.5 119.5v320h-69q-17 -58 -64.5 -95t-98.5 -37h-130v-338h-67v728h197q39 0 78.5 -26t65.5 -72.5t27 -104.5h61v135h67v-135h95v-55h-95v-347q0 -32 13 -54t46 -22h12v65q68 -64 137 -64q15 0 34.5 11.5t33 31.5t13.5 45t-9.5 40.5t-27 26
t-54.5 26.5q-51 23 -88 58t-37 81q0 56 22 93t55.5 54.5t70.5 17.5q58 0 122 -41v-61q-31 25 -55.5 36t-71.5 11q-36 0 -55.5 -29.5t-19.5 -69.5q0 -32 28.5 -53.5t70.5 -40.5q117 -51 117 -137q0 -54 -23 -89t-58.5 -51t-72.5 -16q-47 0 -95 23v-8q-27 -15 -60 -15
q-54 0 -84.5 38.5zM161 396h104q36 0 62.5 20t41 50.5t14.5 61.5q0 32 -13 65t-40 55t-66 22h-103v-274z" />
    <glyph glyph-name="uni20AA" unicode="&#x20aa;" horiz-adv-x="640" 
d="M359 147v236q0 49 -7 63q-13 31 -51 31h-176v-477h-53v525h241q45 0 72.5 -33t27.5 -81v-264h-54zM474 0h-258v377h53v-322h178q57 0 57 97v373h53v-398q0 -127 -83 -127z" />
    <glyph glyph-name="Euro" unicode="&#x20ac;" horiz-adv-x="459" 
d="M214.5 589.5q-39.5 -61.5 -54.5 -145.5h226l-12 -61h-218q-1 -7 -1 -21q0 -38 1 -41h206l-12 -62h-188q10 -80 46.5 -141t103.5 -61t104 45v-74q-43 -28 -99 -28q-105 0 -161 72t-74 187h-54l11 62h37q-2 26 -2 41q0 14 1 21h-47l11 61h39q10 66 40.5 124.5t81 95.5
t118.5 37q66 0 111 -39l-11 -53q-40 42 -96 42q-68 0 -107.5 -61.5z" />
    <glyph glyph-name="trademark" unicode="&#x2122;" horiz-adv-x="853" 
d="M364 680h-123v-340h-53v340h-123v47h299v-47zM610 399h1l104 328h74v-387h-52v318h-1l-103 -318h-45l-103 318h-1v-318h-52v387h80z" />
    <glyph glyph-name="minus" unicode="&#x2212;" horiz-adv-x="400" 
d="M46 346v43h309v-43h-309z" />
    <glyph glyph-name="uniE802" unicode="&#xe802;" horiz-adv-x="342" 
d="M272 525h-242v-55h175v-630h67v685zM164 275.5q-11 11.5 -28 11.5t-28 -11.5t-11 -28.5t11 -28t28 -11t28 11t11 28t-11 28.5zM165 147.5q-11 11.5 -28 11.5t-28 -11.5t-11 -28.5t11 -28t28 -11t28 11t11 28t-11 28.5z" />
    <glyph glyph-name="uniE803" unicode="&#xe803;" horiz-adv-x="342" 
d="M272 525h-242v-55h175v-630h67v685z" />
    <glyph glyph-name="uni05DC05B9" unicode="&#xe804;" horiz-adv-x="332" 
d="M92 525v147h-67v-202h200l-127 -470h69l140 525h-215zM-12 660.5q-12 12.5 -30 12.5t-30 -12.5t-12 -30.5t12 -30t30 -12t30 12t12 30t-12 30.5z" />
    <glyph glyph-name="uni05DC05B905BC" unicode="&#xe805;" horiz-adv-x="332" 
d="M92 525v147h-67v-202h200l-127 -470h69l140 525h-215zM-12 660.5q-12 12.5 -30 12.5t-30 -12.5t-12 -30.5t12 -30t30 -12t30 12t12 30t-12 30.5zM125 352.5q-11 11.5 -28 11.5t-28 -11.5t-11 -28.5t11 -28t28 -11t28 11t11 28t-11 28.5z" />
    <glyph glyph-name="uniE890" unicode="&#xe890;" horiz-adv-x="492" 
d="M66.5 529q9.5 72 50 126.5t125.5 54.5q86 0 128.5 -57t53.5 -132.5t11 -174.5q0 -90 -11 -165t-53.5 -134t-128.5 -59q-84 0 -125 58t-50.5 133t-9.5 176q0 102 9.5 174zM157 140.5q19 -80.5 85 -80.5q52 0 76.5 50t29.5 108t5 128q0 88 -6 148.5t-30.5 104.5t-74.5 44
q-47 0 -70 -41.5t-28.5 -104.5t-5.5 -166q0 -110 19 -190.5z" />
    <glyph glyph-name="uniE891" unicode="&#xe891;" horiz-adv-x="492" 
d="M258 0v621l-105 -100v84l104 93h81v-698h-80z" />
    <glyph glyph-name="uniE892" unicode="&#xe892;" horiz-adv-x="492" 
d="M68 0v80l207 287q60 83 60 148q0 66 -25.5 94t-88.5 28q-71 0 -109 -45l-28 -33v95q37 58 150 58q96 0 138.5 -43.5t42.5 -139.5q0 -85 -73 -185l-197 -271h278v-73h-355z" />
    <glyph glyph-name="uniE893" unicode="&#xe893;" horiz-adv-x="492" 
d="M370 43q-54 -56 -156 -56q-99 0 -147 48v94q51 -68 147 -68q130 0 130 142q0 40 -18 71.5t-48.5 48.5t-67.5 16l-55 -3v68l48 3q56 3 92 37t36 87q0 106 -117 106q-90 0 -133 -64v89q23 22 59 36t74 14q98 0 143 -36q52 -42 52 -136q0 -59 -26.5 -99t-88.5 -65
q64 -19 97 -57t33 -117q0 -103 -54 -159z" />
    <glyph glyph-name="uniE894" unicode="&#xe894;" horiz-adv-x="492" 
d="M450 166h-64v-166h-77v166h-268v91l230 441h115v-457h64v-75zM279 579l-174 -338h202l3 401z" />
    <glyph glyph-name="uniE895" unicode="&#xe895;" horiz-adv-x="492" 
d="M368.5 49q-55.5 -61 -161.5 -61q-100 0 -139 48v92q41 -68 139 -68q139 0 139 159q0 77 -32 109t-108 32q-41 0 -80 -21l-44 -26v385h324v-73h-250v-214q52 20 82 20q186 0 186 -210q0 -111 -55.5 -172z" />
    <glyph glyph-name="uniE896" unicode="&#xe896;" horiz-adv-x="492" 
d="M392 61q-50 -74 -143 -74q-96 0 -137 53q-36 42 -47 144q-8 75 -8 164q0 364 201 364q96 0 142 -40v-83q-37 31 -62 43q-29 12 -76 12q-125 0 -125 -265q26 42 52 57.5t70 15.5q100 0 141 -68q34 -52 34 -159q0 -99 -42 -164zM247 388q-107 0 -107 -162q0 -81 16 -114
q26 -57 91 -57q108 0 108 170q0 163 -108 163z" />
    <glyph glyph-name="uniE897" unicode="&#xe897;" horiz-adv-x="492" 
d="M240 0h-83q48 282 204 622h-295v76h359v-89q-132 -291 -185 -609z" />
    <glyph glyph-name="uniE898" unicode="&#xe898;" horiz-adv-x="492" 
d="M246 -12q-189 0 -189 202q0 137 108 174q-96 39 -96 157q0 189 177 189t177 -190q0 -120 -94 -156q106 -37 106 -174q0 -202 -189 -202zM246 646q-100 0 -100 -127q0 -128 100 -128t100 128q0 127 -100 127zM246 336q-110 0 -110 -143q0 -141 110 -141t110 141
q0 143 -110 143z" />
    <glyph glyph-name="uniE899" unicode="&#xe899;" horiz-adv-x="492" 
d="M216 -16q-51 0 -70 5q-27 9 -60 35v82q14 -12 26.5 -22l17.5 -14q31 -18 86 -18q140 0 140 282q-45 -73 -124 -73q-102 0 -142 61q-33 50 -33 157q0 98 42 161q51 72 144 72q91 0 134 -51q35 -41 50 -138q8 -64 8 -165q0 -374 -219 -374zM244 644q-107 0 -107 -165
q0 -73 18 -108q24 -46 89 -46q105 0 105 152q0 167 -105 167z" />
    <glyph glyph-name="fi" unicode="&#xfb01;" horiz-adv-x="444" 
d="M198.5 670q7.5 -4 9.5 -5v48q-5 13 -21 19t-30 6q-37 0 -60 -30t-23 -85v-98h-61v-55h61v-470h70v470h156v-470h68v525h-224v109q0 15 9 27.5t21 12.5q17 0 24.5 -4zM368 643v85h-68v-85h68z" />
    <glyph glyph-name="fl" unicode="&#xfb02;" horiz-adv-x="437" 
d="M300 669v-669h67v700q-65 37 -190 38q-25 0 -48.5 -13.5t-39 -39.5t-15.5 -62v-98h-61v-55h61v-470h70v470h61v55h-61v109q0 20 16 33t35 13q69 0 105 -11z" />
    <glyph glyph-name="uni05D905D905B7" unicode="&#xfb1f;" horiz-adv-x="447" 
d="M167 525h-142v-55h75v-228h67v283zM381 525h-142v-55h75v-228h67v283zM370 50v-48h-277v48h277z" />
    <glyph glyph-name="uniFB20" unicode="&#xfb20;" horiz-adv-x="420" 
d="M299 525l-18 -310q0 -5 -3 -49.5t-19.5 -77.5t-45.5 -33h-24l-84 470h-67l85 -470h-72v-55h157q58 0 87.5 33.5t39 79t12.5 111.5l18 301h-66z" />
    <glyph glyph-name="uniFB21" unicode="&#xfb21;" horiz-adv-x="422" 
d="M263 256q22 6 32 14q57 37 64 126q4 43 10 129h-63l-9 -118q-8 -84 -39 -104q-7 -6 -16 -6l-134 228h-73l126 -204q-13 -4 -32 -13q-63 -37 -68 -131q-5 -69 -10 -177h63q5 100 10 165q3 38 12.5 69t31.5 45q7 4 15 4l135 -283h69z" />
    <glyph glyph-name="uniFB22" unicode="&#xfb22;" horiz-adv-x="348" 
d="M313 525h-288v-55h170v-470h67v470h51v55z" />
    <glyph glyph-name="uniFB23" unicode="&#xfb23;" horiz-adv-x="432" 
d="M371 525h-306v-55h239v-470h67v525zM138 333h-67v-333h67v333z" />
    <glyph glyph-name="uniFB24" unicode="&#xfb24;" horiz-adv-x="344" 
d="M288 350q0 76 -34.5 125.5t-107.5 49.5h-110l-1 -55h111q41 0 58 -37t17 -84v-169q-2 -53 -16.5 -88.5t-56.5 -36.5h-120v-55h118q72 0 107.5 52.5t35.5 127.5z" />
    <glyph glyph-name="uniFB25" unicode="&#xfb25;" horiz-adv-x="332" 
d="M92 525v147h-67v-202h200l-127 -470h69l140 525h-215z" />
    <glyph glyph-name="uniFB26" unicode="&#xfb26;" horiz-adv-x="447" 
d="M384 378q0 76 -32 111.5t-106 35.5h-176v-525h314v378zM137 55v415h109q32 0 47.5 -14t19.5 -36t4 -56v-309h-180z" />
    <glyph glyph-name="uniFB27" unicode="&#xfb27;" horiz-adv-x="351" 
d="M286 365q0 78 -28 119t-103 41h-130v-55h110q52 0 68 -27.5t16 -83.5v-359h67v365z" />
    <glyph glyph-name="uniFB28" unicode="&#xfb28;" horiz-adv-x="484" 
d="M420 525h-372v-55h75v-363q0 -19 -9 -35.5t-26 -16.5h-53v-55h81q37 0 55.5 33t18.5 74v363h163v-470h67v525z" />
    <glyph glyph-name="uniFB29" unicode="&#xfb29;" horiz-adv-x="545" 
d="M56 275h170v170h61v-170h170v-61h-401v61z" />
    <glyph glyph-name="shin_shindot" unicode="&#xfb2a;" horiz-adv-x="523" 
d="M401 525l-11 -190q-3 -53 -18.5 -118t-49 -113.5t-84.5 -48.5h-83l-13 162q122 4 140 145q5 37 9 120l2 43h-64q-6 -97 -11 -151q-6 -46 -18.5 -75.5t-45.5 -29.5h-18l-18 256h-66l43 -525h164q97 0 142 109.5t54 233.5l12 182h-66zM440 660.5q-12 12.5 -30 12.5
t-30 -12.5t-12 -30.5t12 -30t30 -12t30 12t12 30t-12 30.5z" />
    <glyph glyph-name="shin_sindot" unicode="&#xfb2b;" horiz-adv-x="523" 
d="M401 525l-11 -190q-3 -53 -18.5 -118t-49 -113.5t-84.5 -48.5h-83l-13 162q122 4 140 145q5 37 9 120l2 43h-64q-6 -97 -11 -151q-6 -46 -18.5 -75.5t-45.5 -29.5h-18l-18 256h-66l43 -525h164q97 0 142 109.5t54 233.5l12 182h-66zM150 660.5q-12 12.5 -30 12.5
t-30 -12.5t-12 -30.5t12 -30t30 -12t30 12t12 30t-12 30.5z" />
    <glyph glyph-name="shin_shindot_dagesh" unicode="&#xfb2c;" horiz-adv-x="523" 
d="M472 633.5q-11 11.5 -28 11.5t-28 -11.5t-11 -28.5t11 -28t28 -11t28 11t11 28t-11 28.5zM401 525l-11 -190q-3 -53 -18.5 -118t-49 -113.5t-84.5 -48.5h-83l-13 162q122 4 140 145q5 37 9 120l2 43h-64q-6 -97 -11 -151q-6 -46 -18.5 -75.5t-45.5 -29.5h-18l-18 256h-66
l43 -525h164q97 0 142 109.5t54 233.5l12 182h-66zM316 203.5q-10 10.5 -25 10.5t-25 -10.5t-10 -25.5q0 -16 9.5 -25.5t25.5 -9.5t25.5 9.5t9.5 25.5q0 15 -10 25.5z" />
    <glyph glyph-name="shin_sindot_dagesh" unicode="&#xfb2d;" horiz-adv-x="523" 
d="M116 634.5q-11 11.5 -28 11.5t-28 -11.5t-11 -28.5t11 -28t28 -11t28 11t11 28t-11 28.5zM402 525l-11 -190q-3 -53 -18.5 -118t-49 -113.5t-84.5 -48.5h-83l-13 162q122 4 140 145q5 37 9 120l2 43h-64q-6 -97 -11 -151q-6 -46 -18.5 -75.5t-45.5 -29.5h-18l-18 256h-66
l43 -525h164q97 0 142 109.5t54 233.5l12 182h-66zM317 203.5q-10 10.5 -25 10.5t-25 -10.5t-10 -25.5q0 -16 9.5 -25.5t25.5 -9.5t25.5 9.5t9.5 25.5q0 15 -10 25.5z" />
    <glyph glyph-name="uni05D005B7" unicode="&#xfb2e;" horiz-adv-x="422" 
d="M263 256q22 6 32 14q57 37 64 126q4 43 10 129h-63l-9 -118q-8 -84 -39 -104q-7 -6 -16 -6l-134 228h-73l126 -204q-13 -4 -32 -13q-63 -37 -68 -131q-5 -69 -10 -177h63q5 100 10 165q3 38 12.5 69t31.5 45q7 4 15 4l135 -283h69z" />
    <glyph glyph-name="uni05D005B8" unicode="&#xfb2f;" horiz-adv-x="422" 
d="M263 256q22 6 32 14q57 37 64 126q4 43 10 129h-63l-9 -118q-8 -84 -39 -104q-7 -6 -16 -6l-134 228h-73l126 -204q-13 -4 -32 -13q-63 -37 -68 -131q-5 -69 -10 -177h63q5 100 10 165q3 38 12.5 69t31.5 45q7 4 15 4l135 -283h69z" />
    <glyph glyph-name="alef_mapiq" unicode="&#xfb30;" horiz-adv-x="422" 
d="M263 256q22 6 32 14q57 37 64 126q4 43 10 129h-63l-9 -118q-8 -84 -39 -104q-7 -6 -16 -6l-134 228h-73l126 -204q-13 -4 -32 -13q-63 -37 -68 -131q-5 -69 -10 -177h63q5 100 10 165q3 38 12.5 69t31.5 45q7 4 15 4l135 -283h69zM217 134.5q-11 11.5 -28 11.5
t-28 -11.5t-11 -28.5t11 -28t28 -11t28 11t11 28t-11 28.5z" />
    <glyph glyph-name="uni05D105BC" unicode="&#xfb31;" horiz-adv-x="356" 
d="M327 55h-51v470h-244v-55h177v-415h-177v-55h295v55zM134 287.5q-11 11.5 -28 11.5t-28 -11.5t-11 -28.5t11 -28t28 -11t28 11t11 28t-11 28.5z" />
    <glyph glyph-name="uni05D205BC" unicode="&#xfb32;" horiz-adv-x="290" 
d="M232 67q-6 68 -8 102q-6 129 -8 178q-1 30 -3 74.5t-6 103.5h-157v-55h95l9 -195v-5q0 -36 -16.5 -83t-45 -84t-62.5 -44v-70q32 0 56.5 25.5t39 55t32.5 75.5h4l8 -145h67zM102 318.5q-11 11.5 -28 11.5t-28 -11.5t-11 -28.5t11 -28t28 -11t28 11t11 28t-11 28.5z" />
    <glyph glyph-name="uni05D305BC" unicode="&#xfb33;" horiz-adv-x="348" 
d="M313 525h-288v-55h170v-470h67v470h51v55zM129 320.5q-11 11.5 -28 11.5t-28 -11.5t-11 -28.5t11 -28t28 -11t28 11t11 28t-11 28.5z" />
    <glyph glyph-name="uni05D405BC" unicode="&#xfb34;" horiz-adv-x="432" 
d="M371 525h-306v-55h239v-470h67v525zM138 333h-67v-333h67v333zM241 308.5q-11 11.5 -28 11.5t-28 -11.5t-11 -28.5t11 -28t28 -11t28 11t11 28t-11 28.5z" />
    <glyph glyph-name="uni05D505BC" unicode="&#xfb35;" horiz-adv-x="242" 
d="M181 525h-152v-55h85v-470h67v525zM67 286.5q-11 11.5 -28 11.5t-28 -11.5t-11 -28.5t11 -28t28 -11t28 11t11 28t-11 28.5z" />
    <glyph glyph-name="uni05D605BC" unicode="&#xfb36;" horiz-adv-x="260" 
d="M224 525h-188v-55h116q-8 -3 -16 -11l-9 -9q-44 -50 -44 -154v-296h67v316q0 154 58 154h16v55zM54 310.5q-11 11.5 -28 11.5t-28 -11.5t-11 -28.5t11 -28t28 -11t28 11t11 28t-11 28.5z" />
    <glyph glyph-name="uni05D805BC" unicode="&#xfb38;" horiz-adv-x="432" 
d="M359 470.5q-27 62.5 -96 62.5q-14 0 -32 -4t-27 -12v-52q19 15 40 14q45 2 58.5 -36.5t14.5 -73.5t2 -44q0 -98 -27 -170q-18 -48 -45 -74t-76 -26h-29l-21 470h-67l24 -525h101q75 0 121.5 52t66 127.5t19.5 148.5q0 80 -27 142.5zM249 303.5q-11 11.5 -28 11.5
t-28 -11.5t-11 -28.5t11 -28t28 -11t28 11t11 28t-11 28.5z" />
    <glyph glyph-name="uni05D905BC" unicode="&#xfb39;" horiz-adv-x="233" 
d="M167 525h-142v-55h75v-228h67v283zM66 387.5q-11 11.5 -28 11.5t-28 -11.5t-11 -28.5t11 -28t28 -11t28 11t11 28t-11 28.5z" />
    <glyph glyph-name="uniFB3A" unicode="&#xfb3a;" horiz-adv-x="342" 
d="M272 525h-242v-55h175v-630h67v685zM137 224.5q-11 11.5 -28 11.5t-28 -11.5t-11 -28.5t11 -28t28 -11t28 11t11 28t-11 28.5z" />
    <glyph glyph-name="uni05DB05BC" unicode="&#xfb3b;" horiz-adv-x="344" 
d="M288 350q0 76 -34.5 125.5t-107.5 49.5h-110l-1 -55h111q41 0 58 -37t17 -84v-169q-2 -53 -16.5 -88.5t-56.5 -36.5h-120v-55h118q72 0 107.5 52.5t35.5 127.5zM142 281.5q-11 11.5 -28 11.5t-28 -11.5t-11 -28.5t11 -28t28 -11t28 11t11 28t-11 28.5z" />
    <glyph glyph-name="uni05DC05BC" unicode="&#xfb3c;" horiz-adv-x="332" 
d="M92 525v147h-67v-202h200l-127 -470h69l140 525h-215zM114 335.5q-11 11.5 -28 11.5t-28 -11.5t-11 -28.5t11 -28t28 -11t28 11t11 28t-11 28.5z" />
    <glyph glyph-name="uni05DE05BC" unicode="&#xfb3e;" horiz-adv-x="443" 
d="M378 387q0 71 -31 104.5t-101 33.5h-221v-55h79l-60 -470h65l61 470h63q33 0 50 -9.5t22.5 -28.5t5.5 -54v-323h-117l1 -55h183v387zM264 268.5q-11 11.5 -28 11.5t-28 -11.5t-11 -28.5t11 -28t28 -11t28 11t11 28t-11 28.5z" />
    <glyph glyph-name="uni05E005BC" unicode="&#xfb40;" horiz-adv-x="258" 
d="M192 525h-150l1 -55h82v-415h-92v-55h159v525zM90 287.5q-11 11.5 -28 11.5t-28 -11.5t-11 -28.5t11 -28t28 -11t28 11t11 28t-11 28.5z" />
    <glyph glyph-name="uniFB41" unicode="&#xfb41;" horiz-adv-x="435" 
d="M55 525l24 -525h103q112 0 153 95.5t50 233.5q4 60 4 179v17h-334zM317 299q-10 -99 -37 -171.5t-98 -72.5h-39l-21 415h201q0 -103 -6 -171zM249 287.5q-11 11.5 -28 11.5t-28 -11.5t-11 -28.5t11 -28t28 -11t28 11t11 28t-11 28.5z" />
    <glyph glyph-name="uniFB43" unicode="&#xfb43;" horiz-adv-x="411" 
d="M345 387q0 70 -29 104t-98 34h-163v-287h67v232h80q33 0 49.5 -9.5t21.5 -29t5 -54.5l1 -537h66v547zM233 354.5q-11 11.5 -28 11.5t-28 -11.5t-11 -28.5t11 -28t28 -11t28 11t11 28t-11 28.5z" />
    <glyph glyph-name="uni05E405BC" unicode="&#xfb44;" horiz-adv-x="426" 
d="M361 387q0 71 -30 104.5t-98 33.5h-168v-280h67v225h84q34 0 50.5 -9t22 -28t5.5 -56v-322h-229v-55h296v387zM241 353.5q-11 11.5 -28 11.5t-28 -11.5t-11 -28.5t11 -28t28 -11t28 11t11 28t-11 28.5z" />
    <glyph glyph-name="uni05E605BC" unicode="&#xfb46;" horiz-adv-x="373" 
d="M218 255q29 0 51.5 21t35 52t15.5 60l15 137h-66l-13 -134q-3 -34 -16 -63t-40 -29h-1l-109 226h-69l224 -470h-209v-55h302zM136 177.5q-11 11.5 -28 11.5t-28 -11.5t-11 -28.5t11 -28t28 -11t28 11t11 28t-11 28.5z" />
    <glyph glyph-name="uni05E705BC" unicode="&#xfb47;" horiz-adv-x="452" 
d="M60 525v-55h277l-111 -470h68l124 525h-358zM137 335h-67v-495h67v495zM243 310.5q-11 11.5 -28 11.5t-28 -11.5t-11 -28.5t11 -28t28 -11t28 11t11 28t-11 28.5z" />
    <glyph glyph-name="uni05E805BC" unicode="&#xfb48;" horiz-adv-x="351" 
d="M286 365q0 78 -28 119t-103 41h-130v-55h110q52 0 68 -27.5t16 -83.5v-359h67v365zM136 263.5q-11 11.5 -28 11.5t-28 -11.5t-11 -28.5t11 -28t28 -11t28 11t11 28t-11 28.5z" />
    <glyph glyph-name="uni05E905BC" unicode="&#xfb49;" horiz-adv-x="523" 
d="M401 525l-11 -190q-3 -53 -18.5 -118t-49 -113.5t-84.5 -48.5h-83l-13 162q122 4 140 145q5 37 9 120l2 43h-64q-6 -97 -11 -151q-6 -46 -18.5 -75.5t-45.5 -29.5h-18l-18 256h-66l43 -525h164q97 0 142 109.5t54 233.5l12 182h-66zM316 203.5q-10 10.5 -25 10.5
t-25 -10.5t-10 -25.5q0 -16 9.5 -25.5t25.5 -9.5t25.5 9.5t9.5 25.5q0 15 -10 25.5z" />
    <glyph glyph-name="uni05EA05BC" unicode="&#xfb4a;" horiz-adv-x="484" 
d="M420 525h-372v-55h75v-363q0 -19 -9 -35.5t-26 -16.5h-53v-55h81q37 0 55.5 33t18.5 74v363h163v-470h67v525zM293 272.5q-11 11.5 -28 11.5t-28 -11.5t-11 -28.5t11 -28t28 -11t28 11t11 28t-11 28.5z" />
    <glyph glyph-name="uni05D505B9" unicode="&#xfb4b;" horiz-adv-x="242" 
d="M181 525h-152v-55h85v-470h67v525zM150 660.5q-12 12.5 -30 12.5t-30 -12.5t-12 -30.5t12 -30t30 -12t30 12t12 30t-12 30.5z" />
    <glyph glyph-name="uni05D105BF" unicode="&#xfb4c;" horiz-adv-x="356" 
d="M327 55h-51v470h-244v-55h177v-415h-177v-55h295v55zM45 655v-48h224v48h-224z" />
    <glyph glyph-name="uni05DB05BF" unicode="&#xfb4d;" horiz-adv-x="344" 
d="M288 350q0 76 -34.5 125.5t-107.5 49.5h-110l-1 -55h111q41 0 58 -37t17 -84v-169q-2 -53 -16.5 -88.5t-56.5 -36.5h-120v-55h118q72 0 107.5 52.5t35.5 127.5zM40 650v-48h224v48h-224z" />
    <glyph glyph-name="uni05E405BF" unicode="&#xfb4e;" horiz-adv-x="426" 
d="M361 387q0 71 -30 104.5t-98 33.5h-168v-280h67v225h84q34 0 50.5 -9t22 -28t5.5 -56v-322h-229v-55h296v387zM97 654v-48h224v48h-224z" />
    <glyph glyph-name="uni05D005DC" unicode="&#xfb4f;" horiz-adv-x="533" 
 />
    <glyph glyph-name="uniFFFC" unicode="&#xfffc;" horiz-adv-x="884" 
d="M0 636v-139h43l97 95v44h-140zM248 636v-44h139v44h-139zM497 636v-44h139v44h-139zM745 636v-44l96 -95h43v139h-139zM333.5 434.5q-35.5 41.5 -101.5 41.5t-101 -41.5t-35 -117.5t35 -116.5t101 -40.5t101.5 41t35.5 116q0 76 -35.5 117.5zM563 328q38 23 38 62
q0 80 -107 80h-101v-305h103q119 0 119 91q0 53 -52 72zM719 470v-208q0 -59 -41 -59q-18 0 -28 10l-31 -33q23 -20 59 -20q91 0 91 104v206h-50zM232 203q-85 0 -85 114q0 116 85 116q86 0 86 -116q0 -114 -86 -114zM486 345h-44v83h39q71 0 71 -42q0 -41 -66 -41zM0 387
v-139h43v139h-43zM841 387v-139h43v139h-43zM496 207h-54v95h49q73 0 73 -46q0 -49 -68 -49zM43 140h-43v-140h140v43zM841 140l-96 -97v-43h139v140h-43zM248 43v-43h139v43h-139zM497 43v-43h139v43h-139z" />
    <glyph glyph-name="qamats_qatan" unicode="&#x5c7;" 
 />
    <glyph glyph-name="Private" horiz-adv-x="558" 
 />
    <glyph glyph-name="alt_lamed" horiz-adv-x="332" 
d="M92 525v147h-67v-202h200l-127 -470h69l140 525h-215z" />
    <glyph glyph-name="uni05D005DC05B5" horiz-adv-x="533" 
 />
    <glyph glyph-name="uni05D005DC05B6" horiz-adv-x="533" 
 />
    <glyph glyph-name="alef_lamed_hatafseg" horiz-adv-x="533" 
 />
    <glyph glyph-name="hatafsegol_meteg" 
 />
    <glyph glyph-name="hatafpatah_meteg" 
 />
    <glyph glyph-name="hatafqamats_meteg" 
 />
    <glyph glyph-name="sheva_na" 
 />
    <glyph glyph-name="uni00A0" unicode="&#xa0;" horiz-adv-x="250" 
 />
    <glyph glyph-name="alef_dag_hazak" horiz-adv-x="422" 
 />
    <glyph glyph-name="bet_dag_hazak" horiz-adv-x="356" 
d="M327 55h-51v470h-244v-55h177v-415h-177v-55h295v55z" />
    <glyph glyph-name="gimel_dag_hazak" horiz-adv-x="290" 
d="M232 67q-6 68 -8 102q-6 129 -8 178q-1 30 -3 74.5t-6 103.5h-157v-55h95l9 -195v-5q0 -36 -16.5 -83t-45 -84t-62.5 -44v-70q32 0 56.5 25.5t39 55t32.5 75.5h4l8 -145h67z" />
    <glyph glyph-name="dalet_dag_hazak" horiz-adv-x="348" 
d="M313 525h-288v-55h170v-470h67v470h51v55z" />
    <glyph glyph-name="vav_dag_hazak" horiz-adv-x="242" 
d="M181 525h-152v-55h85v-470h67v525z" />
    <glyph glyph-name="zayin_dag_hazak" horiz-adv-x="262" 
d="M226 525h-188v-55h116q-8 -3 -16 -11l-9 -9q-44 -50 -44 -154v-296h67v316q0 154 58 154h16v55z" />
    <glyph glyph-name="tet_dag_hazak" horiz-adv-x="432" 
d="M359 470.5q-27 62.5 -96 62.5q-14 0 -32 -4t-27 -12v-52q19 15 40 14q45 2 58.5 -36.5t14.5 -73.5t2 -44q0 -98 -27 -170q-18 -48 -45 -74t-76 -26h-29l-21 470h-67l24 -525h101q75 0 121.5 52t66 127.5t19.5 148.5q0 80 -27 142.5z" />
    <glyph glyph-name="yod_dag_hazak" horiz-adv-x="233" 
d="M167 525h-142v-55h75v-228h67v283z" />
    <glyph glyph-name="fina_kaf_dag_hazak" horiz-adv-x="342" 
d="M272 525h-242v-55h175v-630h67v685z" />
    <glyph glyph-name="kaf_dag_hazak" horiz-adv-x="344" 
d="M288 350q0 76 -34.5 125.5t-107.5 49.5h-110l-1 -55h111q41 0 58 -37t17 -84v-169q-2 -53 -16.5 -88.5t-56.5 -36.5h-120v-55h118q72 0 107.5 52.5t35.5 127.5z" />
    <glyph glyph-name="lamed_dag_hazak" horiz-adv-x="332" 
d="M92 525v147h-67v-202h200l-127 -470h69l140 525h-215z" />
    <glyph glyph-name="mem_dag_hazak" horiz-adv-x="443" 
d="M378 387q0 71 -31 104.5t-101 33.5h-221v-55h79l-60 -470h65l61 470h63q33 0 50 -9.5t22.5 -28.5t5.5 -54v-323h-117l1 -55h183v387z" />
    <glyph glyph-name="nun_dag_hazak" horiz-adv-x="258" 
d="M192 525h-150l1 -55h82v-415h-92v-55h159v525z" />
    <glyph glyph-name="samech_dag_hazak" horiz-adv-x="435" 
d="M55 525l24 -525h103q112 0 153 95.5t50 233.5q4 60 4 179v17h-334zM317 299q-10 -99 -37 -171.5t-98 -72.5h-39l-21 415h201q0 -103 -6 -171z" />
    <glyph glyph-name="final_pe_dag_hazak" horiz-adv-x="411" 
d="M345 387q0 70 -29 104t-98 34h-163v-287h67v232h80q33 0 49.5 -9.5t21.5 -29t5 -54.5l1 -537h66v547z" />
    <glyph glyph-name="pe_dag_hazak" horiz-adv-x="426" 
d="M361 387q0 71 -30 104.5t-98 33.5h-168v-280h67v225h84q34 0 50.5 -9t22 -28t5.5 -56v-322h-229v-55h296v387z" />
    <glyph glyph-name="tsadi_dag_hazak" horiz-adv-x="373" 
d="M218 255q29 0 51.5 21t35 52t15.5 60l15 137h-66l-13 -134q-3 -34 -16 -63t-40 -29h-1l-109 226h-69l224 -470h-209v-55h302z" />
    <glyph glyph-name="qof_dag_hazak" horiz-adv-x="452" 
d="M60 525v-55h277l-111 -470h68l124 525h-358zM137 335h-67v-495h67v495z" />
    <glyph glyph-name="resh_dag_hazak" horiz-adv-x="351" 
d="M286 365q0 78 -28 119t-103 41h-130v-55h110q52 0 68 -27.5t16 -83.5v-359h67v365z" />
    <glyph glyph-name="shin_dag_hazak" horiz-adv-x="523" 
d="M401 525l-11 -190q-3 -53 -18.5 -118t-49 -113.5t-84.5 -48.5h-83l-13 162q122 4 140 145q5 37 9 120l2 43h-64q-6 -97 -11 -151q-6 -46 -18.5 -75.5t-45.5 -29.5h-18l-18 256h-66l43 -525h164q97 0 142 109.5t54 233.5l12 182h-66z" />
    <glyph glyph-name="tav_dag_hazak" horiz-adv-x="484" 
d="M420 525h-372v-55h75v-363q0 -19 -9 -35.5t-26 -16.5h-53v-55h81q37 0 55.5 33t18.5 74v363h163v-470h67v525z" />
    <glyph glyph-name="lamed_hol_dag_hazak" horiz-adv-x="332" 
d="M-33 660.5q-12 12.5 -30 12.5t-30 -12.5t-12 -30.5t12 -30t30 -12t30 12t12 30t-12 30.5zM92 525v147h-67v-202h200l-127 -470h69l140 525h-215z" />
    <glyph glyph-name="shin_shd_dag_hazak" horiz-adv-x="523" 
d="M401 525l-11 -190q-3 -53 -18.5 -118t-49 -113.5t-84.5 -48.5h-83l-13 162q122 4 140 145q5 37 9 120l2 43h-64q-6 -97 -11 -151q-6 -46 -18.5 -75.5t-45.5 -29.5h-18l-18 256h-66l43 -525h164q97 0 142 109.5t54 233.5l12 182h-66z" />
    <glyph glyph-name="shin_sd_dag_hazak" horiz-adv-x="523" 
d="M401 525l-11 -190q-3 -53 -18.5 -118t-49 -113.5t-84.5 -48.5h-83l-13 162q122 4 140 145q5 37 9 120l2 43h-64q-6 -97 -11 -151q-6 -46 -18.5 -75.5t-45.5 -29.5h-18l-18 256h-66l43 -525h164q97 0 142 109.5t54 233.5l12 182h-66z" />
    <glyph glyph-name="dagesh_hazak" 
 />
    <glyph glyph-name="rightleftspace" horiz-adv-x="250" 
 />
    <glyph glyph-name="enmaqaf" horiz-adv-x="126" 
 />
    <glyph glyph-name="enminus" horiz-adv-x="426" 
d="M46 226v43h309v-43h-309z" />
    <glyph glyph-name="hZero.prop" horiz-adv-x="480" 
d="M317 145q-9 -76 -34 -109q-31 -46 -99 -46t-99 46q-25 33 -34 109q-6 47 -6 118q0 76 7 125q10 70 35 104q31 43 97 43t97 -43q25 -33 35 -104q7 -45 7 -125v-15q0 -53 -6 -103zM260 374q-4 47 -16 73q-18 36 -60 36q-41 0 -59 -36q-12 -23 -17 -73l-2 -63l-2 -48
q0 -34 1 -51q-1 -16 3 -54q5 -56 14 -76q19 -40 62 -40q42 0 61 39q14 26 15 77q4 85 4 105v79z" />
    <glyph glyph-name="hOne.prop" horiz-adv-x="372" 
d="M115 0v467l-79 -75v63l78 70h61v-525h-60z" />
    <glyph glyph-name="hTwo.prop" horiz-adv-x="455" 
d="M36 0v60l156 216q45 62 45 111t-19.5 70.5t-66.5 21.5q-54 0 -82 -34l-21 -25v72q28 43 113 43q72 0 104 -32.5t32 -104.5q0 -63 -55 -139l-148 -204h209v-55h-267z" />
    <glyph glyph-name="hThree.prop" horiz-adv-x="480" 
d="M286 32q-40 -42 -118 -42q-74 0 -110 36v71q38 -51 110 -51q98 0 98 107q0 45 -29 74.5t-72 27.5l-41 -2v51l36 2q42 2 69 28t27 65q0 80 -88 80q-67 0 -100 -48v67q33 37 100 37q73 0 108 -27q39 -31 39 -102q0 -84 -109 -123q32 -5 50 -12q70 -25 70 -119
q0 -78 -40 -120z" />
    <glyph glyph-name="hFour.prop" horiz-adv-x="480" 
d="M331 125h-48v-125h-58v125h-201v68l173 332h86v-344h48v-56zM203 435l-131 -254h152l2 302z" />
    <glyph glyph-name="hFive.prop" horiz-adv-x="480" 
d="M268.5 37.5q-41.5 -46.5 -121.5 -46.5q-75 0 -105 36v69q31 -51 105 -51q104 0 104 120q0 57 -24 81.5t-81 24.5q-29 0 -60 -16l-33 -20v290h243v-55h-188v-161q38 15 62 15q140 0 140 -158q0 -82 -41.5 -128.5z" />
    <glyph glyph-name="hSix.prop" horiz-adv-x="480" 
d="M294 46q-38 -56 -108 -56q-72 0 -103 40q-27 33 -35 108q-6 53 -6 124q0 273 151 273q73 0 107 -30v-62q-27 23 -47 32q-21 9 -57 9q-94 0 -94 -199q21 31 40 43t52 12q74 0 106 -51q25 -40 25 -120q0 -77 -31 -123zM185 292q-81 0 -81 -122q0 -59 12 -86q19 -43 69 -43
q81 0 81 128q0 123 -81 123z" />
    <glyph glyph-name="hSeven.prop" horiz-adv-x="461" 
d="M173 0h-63q36 212 154 468h-222v57h270v-67q-100 -217 -139 -458z" />
    <glyph glyph-name="hEight.prop" horiz-adv-x="480" 
d="M185 -9q-142 0 -142 152q0 103 81 131q-72 29 -72 118q0 142 133 142t133 -143q0 -90 -71 -117q80 -29 80 -131q0 -152 -142 -152zM185 486q-75 0 -75 -96t75 -96t75 96t-75 96zM185 253q-83 0 -83 -108q0 -106 83 -106t83 106q0 108 -83 108z" />
    <glyph glyph-name="hNine.prop" horiz-adv-x="480" 
d="M167 -12q-40 0 -53 4q-22 6 -45 26v62q24 -21 33 -27q23 -14 65 -14q105 0 105 212q-34 -55 -93 -55q-77 0 -107 46q-25 37 -25 118q0 74 32 121q38 54 108 54q69 0 101 -38q27 -31 37 -104q6 -45 6 -124q0 -281 -164 -281zM188 484q-81 0 -81 -124q0 -55 14 -81
q18 -35 67 -35q79 0 79 115q0 125 -79 125z" />
    <glyph glyph-name="mercha_kefula" horiz-adv-x="397" 
 />
    <glyph glyph-name="darga" horiz-adv-x="417" 
d="M90.5 477.5q-9.5 -7.5 -23.5 -7.5t-24 7.5t-10 19.5q0 13 9.5 20.5t24.5 7.5q14 0 23.5 -7.5t9.5 -20.5q0 -12 -9.5 -19.5z" />
    <glyph glyph-name="qadma" horiz-adv-x="397" 
 />
    <glyph glyph-name="telisha_qetana" horiz-adv-x="397" 
 />
    <glyph glyph-name="yerach_ben_yomo" horiz-adv-x="397" 
 />
    <glyph glyph-name="ole" horiz-adv-x="417" 
 />
    <glyph glyph-name="iluy" horiz-adv-x="397" 
 />
    <glyph glyph-name="dehi" horiz-adv-x="397" 
 />
    <glyph glyph-name="uni2153" unicode="&#x2153;" horiz-adv-x="634" 
d="M131 260v311l-52 -50v42l52 46h40v-349h-40zM148 -11h40l277 610h-40zM549 21q-27 -28 -78 -28q-48 0 -73 25v47q25 -34 73 -34q65 0 65 71q0 30 -19 49.5t-48 18.5l-27 -2v34l24 2q28 2 46 19t18 43q0 53 -59 53q-45 0 -66 -32v44q11 11 29 18t37 7q50 0 72 -18
q26 -21 26 -68q0 -29 -13.5 -49t-44.5 -33q32 -9 48.5 -28t16.5 -59q0 -52 -27 -80z" />
    <glyph glyph-name="Uhungarumlaut" unicode="&#x170;" horiz-adv-x="553" 
d="M373.5 14q44.5 26 71.5 79t27 131v504h-68v-528q0 -45 -19 -80t-49 -53.5t-61 -18.5q-32 0 -59.5 19t-44.5 53.5t-17 79.5v528h-68v-504q0 -76 25.5 -129t68.5 -80t95 -27q54 0 98.5 26zM202 783l78 156h-64l-33 -156h19zM313 783l78 156h-64l-33 -156h19z" />
    <glyph glyph-name="inverse_nun" horiz-adv-x="336" 
d="M280 0v55h-92v415h82l1 55h-150v-525h159z" />
    <glyph glyph-name="shiluv" horiz-adv-x="397" 
 />
    <glyph glyph-name="ohungarumlaut" unicode="&#x151;" horiz-adv-x="408" 
d="M52.5 118q21.5 -61 60.5 -93.5t91 -32.5q51 0 90.5 32.5t61 93.5t21.5 143q0 137 -46 204.5t-127 67.5q-80 0 -126.5 -70t-46.5 -202q0 -82 21.5 -143zM260.5 446q23.5 -33 36 -83.5t12.5 -103.5q0 -82 -26.5 -147t-78.5 -65q-56 0 -80.5 67t-24.5 145q0 86 28.5 153
t77.5 67q32 0 55.5 -33zM122 583l78 156h-64l-33 -156h19zM233 583l78 156h-64l-33 -156h19z" />
    <glyph glyph-name="Ohungarumlaut" unicode="&#x150;" horiz-adv-x="561" 
d="M454 89q61 101 61 279q0 176 -61 274t-172 98t-172.5 -98t-61.5 -274q0 -180 60 -280t174 -100q111 0 172 101zM406.5 589.5q38.5 -90.5 38.5 -221.5q0 -133 -38.5 -226.5t-124.5 -93.5t-125 93.5t-39 226.5q0 132 39 222t125 90t124.5 -90.5zM172 783l78 156h-64
l-33 -156h19zM283 783l78 156h-64l-33 -156h19z" />
    <glyph glyph-name="uhungarumlaut" unicode="&#x171;" horiz-adv-x="451" 
d="M381 0v525h-67v-377q-3 -23 -17.5 -46t-38.5 -38.5t-54 -15.5q-24 0 -43 23t-19 53v401h-67v-386q0 -74 38 -110.5t90 -36.5q29 0 61.5 16t49.5 46v-54h67zM153 615l78 156h-64l-33 -156h19zM264 615l78 156h-64l-33 -156h19z" />
    <glyph glyph-name="alt_lamed_dagesh" horiz-adv-x="332" 
d="M92 525v147h-67v-202h200l-127 -470h69l140 525h-215zM139 378.5q-11 11.5 -28 11.5t-28 -11.5t-11 -28.5t11 -28t28 -11t28 11t11 28t-11 28.5z" />
    <glyph glyph-name=".notdef.001" 
d="M442 0v619h-442v-619h442zM71 575h300l-150 -226zM195 310l-151 -226v451zM398 535v-451l-150 226zM221 270l150 -226h-300z" />
    <glyph glyph-name="uni00AD" unicode="&#xad;" horiz-adv-x="393" 
d="M47 226v43h309v-43h-309z" />
    <glyph glyph-name="uni2010" unicode="&#x2010;" horiz-adv-x="400" 
d="M46 226v43h309v-43h-309z" />
    <glyph glyph-name="figuredash" unicode="&#x2012;" horiz-adv-x="541" 
d="M46 221v48h439v-48h-439z" />
    <glyph glyph-name="uni2015" unicode="&#x2015;" horiz-adv-x="541" 
d="M46 221v48h439v-48h-439z" />
    <glyph glyph-name="uniE000" unicode="&#xe000;" horiz-adv-x="370" 
d="M318 145q-9 -76 -34 -109q-31 -46 -99 -46t-99 46q-25 33 -34 109q-6 47 -6 118q0 76 7 125q10 70 35 104q31 43 97 43t97 -43q25 -33 35 -104q7 -45 7 -125v-15q0 -53 -6 -103zM261 374q-4 47 -16 73q-18 36 -60 36q-41 0 -59 -36q-12 -23 -17 -73l-2 -63l-2 -48
q0 -34 1 -51q-1 -16 3 -54q5 -56 14 -76q19 -40 62 -40q42 0 61 39q14 26 15 77q4 85 4 105v79z" />
    <glyph glyph-name="uniE001" unicode="&#xe001;" horiz-adv-x="370" 
d="M174 0v467l-79 -75v63l78 70h61v-525h-60z" />
    <glyph glyph-name="uniE002" unicode="&#xe002;" horiz-adv-x="370" 
d="M51 0v60l156 216q45 62 45 111t-19.5 70.5t-66.5 21.5q-54 0 -82 -34l-21 -25v72q28 43 113 43q72 0 104 -32.5t32 -104.5q0 -63 -55 -139l-148 -204h209v-55h-267z" />
    <glyph glyph-name="uniE003" unicode="&#xe003;" horiz-adv-x="370" 
d="M284 32q-40 -42 -118 -42q-74 0 -110 36v71q38 -51 110 -51q98 0 98 107q0 45 -29 74.5t-72 27.5l-41 -2v51l36 2q42 2 69 28t27 65q0 80 -88 80q-67 0 -100 -48v67q33 37 100 37q73 0 108 -27q39 -31 39 -102q0 -84 -109 -123q32 -5 50 -12q70 -25 70 -119
q0 -78 -40 -120z" />
    <glyph glyph-name="uniE004" unicode="&#xe004;" horiz-adv-x="370" 
d="M335 125h-48v-125h-58v125h-201v68l173 332h86v-344h48v-56zM207 435l-131 -254h152l2 302z" />
    <glyph glyph-name="uniE005" unicode="&#xe005;" horiz-adv-x="370" 
d="M277.5 37.5q-41.5 -46.5 -121.5 -46.5q-75 0 -105 36v69q31 -51 105 -51q104 0 104 120q0 57 -24 81.5t-81 24.5q-29 0 -60 -16l-33 -20v290h243v-55h-188v-161q38 15 62 15q140 0 140 -158q0 -82 -41.5 -128.5z" />
    <glyph glyph-name="uniE006" unicode="&#xe006;" horiz-adv-x="370" 
d="M298 46q-38 -56 -108 -56q-72 0 -103 40q-27 33 -35 108q-6 53 -6 124q0 273 151 273q73 0 107 -30v-62q-27 23 -47 32q-21 9 -57 9q-94 0 -94 -199q21 31 40 43t52 12q74 0 106 -51q25 -40 25 -120q0 -77 -31 -123zM189 292q-81 0 -81 -122q0 -59 12 -86q19 -43 69 -43
q81 0 81 128q0 123 -81 123z" />
    <glyph glyph-name="uniE007" unicode="&#xe007;" horiz-adv-x="370" 
d="M183 0h-63q36 212 154 468h-222v57h270v-67q-100 -217 -139 -458z" />
    <glyph glyph-name="uniE008" unicode="&#xe008;" horiz-adv-x="370" 
d="M185 -9q-142 0 -142 152q0 103 81 131q-72 29 -72 118q0 142 133 142t133 -143q0 -90 -71 -117q80 -29 80 -131q0 -152 -142 -152zM185 486q-75 0 -75 -96t75 -96t75 96t-75 96zM185 253q-83 0 -83 -108q0 -106 83 -106t83 106q0 108 -83 108z" />
    <glyph glyph-name="uniE009" unicode="&#xe009;" horiz-adv-x="370" 
d="M159 -12q-40 0 -53 4q-22 6 -45 26v62q24 -21 33 -27q23 -14 65 -14q105 0 105 212q-34 -55 -93 -55q-77 0 -107 46q-25 37 -25 118q0 74 32 121q38 54 108 54q69 0 101 -38q27 -31 37 -104q6 -45 6 -124q0 -281 -164 -281zM180 484q-81 0 -81 -124q0 -55 14 -81
q18 -35 67 -35q79 0 79 115q0 125 -79 125z" />
    <glyph glyph-name="tevir" horiz-adv-x="480" 
 />
    <glyph glyph-name="geresh_taam" 
 />
    <glyph glyph-name="geresh_muqdam" 
 />
    <glyph glyph-name="gershayim_taam" 
 />
    <glyph glyph-name="karnei_para" 
 />
    <glyph glyph-name="telisha_gdola" 
 />
    <glyph glyph-name="uniF86A" unicode="&#xf86a;" 
 />
    </font>
</defs>
</svg>
